<svg width="17" height="19" viewBox="0 0 17 19" fill="none" xmlns="http://www.w3.org/2000/svg">
<path fill-rule="evenodd" clip-rule="evenodd" d="M16.2225 8.25342H1.36914C1.02414 8.25342 0.744141 7.97342 0.744141 7.62842C0.744141 7.28342 1.02414 7.00342 1.36914 7.00342H16.2225C16.5675 7.00342 16.8475 7.28342 16.8475 7.62842C16.8475 7.97342 16.5675 8.25342 16.2225 8.25342" fill="#03A9F4"/>
<path fill-rule="evenodd" clip-rule="evenodd" d="M12.5014 11.5078C12.1564 11.5078 11.873 11.2278 11.873 10.8828C11.873 10.5378 12.1489 10.2578 12.4939 10.2578H12.5014C12.8464 10.2578 13.1264 10.5378 13.1264 10.8828C13.1264 11.2278 12.8464 11.5078 12.5014 11.5078" fill="#03A9F4"/>
<path fill-rule="evenodd" clip-rule="evenodd" d="M8.80314 11.5078C8.45814 11.5078 8.1748 11.2278 8.1748 10.8828C8.1748 10.5378 8.45064 10.2578 8.79564 10.2578H8.80314C9.14814 10.2578 9.42814 10.5378 9.42814 10.8828C9.42814 11.2278 9.14814 11.5078 8.80314 11.5078" fill="#03A9F4"/>
<path fill-rule="evenodd" clip-rule="evenodd" d="M5.09792 11.5078C4.75292 11.5078 4.46875 11.2278 4.46875 10.8828C4.46875 10.5378 4.74542 10.2578 5.09042 10.2578H5.09792C5.44292 10.2578 5.72292 10.5378 5.72292 10.8828C5.72292 11.2278 5.44292 11.5078 5.09792 11.5078" fill="#03A9F4"/>
<path fill-rule="evenodd" clip-rule="evenodd" d="M12.5014 14.7468C12.1564 14.7468 11.873 14.4668 11.873 14.1218C11.873 13.7768 12.1489 13.4968 12.4939 13.4968H12.5014C12.8464 13.4968 13.1264 13.7768 13.1264 14.1218C13.1264 14.4668 12.8464 14.7468 12.5014 14.7468" fill="#03A9F4"/>
<path fill-rule="evenodd" clip-rule="evenodd" d="M8.80314 14.7468C8.45814 14.7468 8.1748 14.4668 8.1748 14.1218C8.1748 13.7768 8.45064 13.4968 8.79564 13.4968H8.80314C9.14814 13.4968 9.42814 13.7768 9.42814 14.1218C9.42814 14.4668 9.14814 14.7468 8.80314 14.7468" fill="#03A9F4"/>
<path fill-rule="evenodd" clip-rule="evenodd" d="M5.09792 14.7468C4.75292 14.7468 4.46875 14.4668 4.46875 14.1218C4.46875 13.7768 4.74542 13.4968 5.09042 13.4968H5.09792C5.44292 13.4968 5.72292 13.7768 5.72292 14.1218C5.72292 14.4668 5.44292 14.7468 5.09792 14.7468" fill="#03A9F4"/>
<path fill-rule="evenodd" clip-rule="evenodd" d="M12.1611 4.82575C11.8161 4.82575 11.5361 4.54575 11.5361 4.20075V1.45825C11.5361 1.11325 11.8161 0.833252 12.1611 0.833252C12.5061 0.833252 12.7861 1.11325 12.7861 1.45825V4.20075C12.7861 4.54575 12.5061 4.82575 12.1611 4.82575" fill="#03A9F4"/>
<path fill-rule="evenodd" clip-rule="evenodd" d="M5.42969 4.82575C5.08469 4.82575 4.80469 4.54575 4.80469 4.20075V1.45825C4.80469 1.11325 5.08469 0.833252 5.42969 0.833252C5.77469 0.833252 6.05469 1.11325 6.05469 1.45825V4.20075C6.05469 4.54575 5.77469 4.82575 5.42969 4.82575" fill="#03A9F4"/>
<mask id="mask0_2780_2682" style="mask-type:alpha" maskUnits="userSpaceOnUse" x="0" y="2" width="17" height="17">
<path fill-rule="evenodd" clip-rule="evenodd" d="M0.666992 2.14917H16.917V18.7499H0.666992V2.14917Z" fill="white"/>
</mask>
<g mask="url(#mask0_2780_2682)">
<path fill-rule="evenodd" clip-rule="evenodd" d="M5.26783 3.39917C3.10699 3.39917 1.91699 4.55167 1.91699 6.64417V14.185C1.91699 16.3233 3.10699 17.5 5.26783 17.5H12.3162C14.477 17.5 15.667 16.345 15.667 14.2483V6.64417C15.6703 5.615 15.3937 4.815 14.8445 4.265C14.2795 3.69834 13.4087 3.39917 12.3237 3.39917H5.26783ZM12.3162 18.75H5.26783C2.43033 18.75 0.666992 17.0008 0.666992 14.185V6.64417C0.666992 3.87084 2.43033 2.14917 5.26783 2.14917H12.3237C13.7478 2.14917 14.9253 2.57584 15.7295 3.38167C16.5103 4.16584 16.9212 5.29334 16.917 6.64584V14.2483C16.917 17.025 15.1537 18.75 12.3162 18.75V18.75Z" fill="#03A9F4"/>
</g>
</svg>
