<svg width="24" height="24" viewBox="0 0 24 24" fill="none" xmlns="http://www.w3.org/2000/svg">
<g id="Iconly/Light-Outline/Hide">
<g id="Hide">
<path id="Fill 1" fill-rule="evenodd" clip-rule="evenodd" d="M9.7608 15.6173C9.5688 15.6173 9.3768 15.5443 9.2308 15.3973C8.4928 14.6603 8.0858 13.6803 8.0858 12.6383C8.0858 10.4783 9.8418 8.72125 11.9998 8.72125C13.0378 8.72125 14.0458 9.14025 14.7648 9.87125C15.0548 10.1673 15.0518 10.6413 14.7558 10.9313C14.4608 11.2233 13.9868 11.2183 13.6958 10.9243C13.2568 10.4773 12.6388 10.2213 11.9998 10.2213C10.6688 10.2213 9.5858 11.3053 9.5858 12.6383C9.5858 13.2793 9.8368 13.8833 10.2908 14.3373C10.5838 14.6303 10.5838 15.1043 10.2918 15.3973C10.1448 15.5443 9.9528 15.6173 9.7608 15.6173Z" fill="black"/>
<path id="Fill 3" fill-rule="evenodd" clip-rule="evenodd" d="M12.5674 16.4912C12.2124 16.4912 11.8964 16.2372 11.8304 15.8752C11.7564 15.4682 12.0264 15.0772 12.4344 15.0032C13.4144 14.8252 14.1904 14.0472 14.3664 13.0662C14.4404 12.6592 14.8304 12.3912 15.2374 12.4612C15.6454 12.5342 15.9164 12.9242 15.8434 13.3322C15.5564 14.9252 14.2944 16.1892 12.7024 16.4792C12.6574 16.4872 12.6114 16.4912 12.5674 16.4912Z" fill="black"/>
<g id="Group 7">
<mask id="mask0_67_1805" style="mask-type:alpha" maskUnits="userSpaceOnUse" x="2" y="4" width="17" height="15">
<path id="Clip 6" fill-rule="evenodd" clip-rule="evenodd" d="M2 4.62451H18.0862V18.7226H2V4.62451Z" fill="white"/>
</mask>
<g mask="url(#mask0_67_1805)">
<path id="Fill 5" fill-rule="evenodd" clip-rule="evenodd" d="M6.6544 18.7226C6.4924 18.7226 6.3294 18.6696 6.1914 18.5626C4.5004 17.2346 3.0714 15.2876 2.0614 12.9336C1.9794 12.7436 1.9794 12.5296 2.0614 12.3406C3.0824 9.97664 4.5204 8.01964 6.2204 6.68264C9.6864 3.93964 14.3004 3.93064 17.8014 6.70264C18.1264 6.95964 18.1814 7.43164 17.9244 7.75664C17.6664 8.07964 17.1964 8.13664 16.8704 7.87864C13.9044 5.53064 10.0834 5.53864 7.1494 7.86064C5.7134 8.99064 4.4804 10.6366 3.5704 12.6386C4.4714 14.6286 5.6934 16.2646 7.1184 17.3826C7.4444 17.6386 7.5004 18.1106 7.2444 18.4356C7.0964 18.6236 6.8764 18.7226 6.6544 18.7226Z" fill="black"/>
</g>
</g>
<g id="Group 10">
<mask id="mask1_67_1805" style="mask-type:alpha" maskUnits="userSpaceOnUse" x="8" y="8" width="14" height="13">
<path id="Clip 9" fill-rule="evenodd" clip-rule="evenodd" d="M8.71747 8.74121H22V20.6894H8.71747V8.74121Z" fill="white"/>
</mask>
<g mask="url(#mask1_67_1805)">
<path id="Fill 8" fill-rule="evenodd" clip-rule="evenodd" d="M12.0001 20.6894C11.0631 20.6894 10.1311 20.5374 9.2311 20.2384C8.8381 20.1074 8.6251 19.6824 8.7561 19.2894C8.8871 18.8954 9.3101 18.6864 9.7051 18.8144C10.4521 19.0634 11.2241 19.1894 12.0001 19.1894C15.4281 19.1894 18.5611 16.7474 20.4301 12.6364C19.9741 11.6374 19.4431 10.7324 18.8491 9.94242C18.6001 9.61142 18.6661 9.14042 18.9971 8.89142C19.3271 8.64242 19.7981 8.71042 20.0471 9.04042C20.7711 10.0014 21.4071 11.1124 21.9381 12.3384C22.0211 12.5284 22.0211 12.7444 21.9381 12.9334C19.8421 17.7904 16.1271 20.6894 12.0001 20.6894Z" fill="black"/>
</g>
</g>
<g id="Group 13">
<mask id="mask2_67_1805" style="mask-type:alpha" maskUnits="userSpaceOnUse" x="3" y="4" width="18" height="18">
<path id="Clip 12" fill-rule="evenodd" clip-rule="evenodd" d="M3.36355 4.00043H20.637V21.2734H3.36355V4.00043Z" fill="white"/>
</mask>
<g mask="url(#mask2_67_1805)">
<path id="Fill 11" fill-rule="evenodd" clip-rule="evenodd" d="M4.1133 21.2734C3.9213 21.2734 3.7293 21.2004 3.5833 21.0534C3.2903 20.7604 3.2903 20.2864 3.5833 19.9934L19.3573 4.21944C19.6503 3.92644 20.1243 3.92644 20.4173 4.21944C20.7103 4.51244 20.7103 4.98744 20.4173 5.28044L4.6433 21.0534C4.4973 21.2004 4.3053 21.2734 4.1133 21.2734Z" fill="black"/>
</g>
</g>
</g>
</g>
</svg>
