<svg width="20" height="20" viewBox="0 0 20 20" fill="none" xmlns="http://www.w3.org/2000/svg">
<g id="Iconly/Light-Outline/Lock">
<g id="Lock">
<path id="Fill 1" fill-rule="evenodd" clip-rule="evenodd" d="M14.1024 8.5C13.7574 8.5 13.4774 8.22 13.4774 7.875V6.08583C13.4774 4.33917 12.0566 2.91833 10.3099 2.91833H10.2966C9.45241 2.91833 8.66157 3.24333 8.06407 3.83583C7.46241 4.43083 7.12991 5.225 7.12657 6.07167V7.875C7.12657 8.22 6.84657 8.5 6.50157 8.5C6.15657 8.5 5.87657 8.22 5.87657 7.875V6.08583C5.88157 4.88583 6.34574 3.77833 7.18324 2.94833C8.02157 2.1175 9.12824 1.63667 10.3124 1.66833C12.7457 1.66833 14.7274 3.65 14.7274 6.08583V7.875C14.7274 8.22 14.4474 8.5 14.1024 8.5" fill="#50C1F3"/>
<path id="Fill 3" fill-rule="evenodd" clip-rule="evenodd" d="M7.11833 8.44067C5.71999 8.44067 4.58333 9.57733 4.58333 10.9757V14.5498C4.58333 15.9482 5.71999 17.0848 7.11833 17.0848H13.4858C14.8833 17.0848 16.0208 15.9482 16.0208 14.5498V10.9757C16.0208 9.57733 14.8833 8.44067 13.4858 8.44067H7.11833ZM13.4858 18.3348H7.11833C5.03083 18.3348 3.33333 16.6373 3.33333 14.5498V10.9757C3.33333 8.88817 5.03083 7.19067 7.11833 7.19067H13.4858C15.5733 7.19067 17.2708 8.88817 17.2708 10.9757V14.5498C17.2708 16.6373 15.5733 18.3348 13.4858 18.3348V18.3348Z" fill="#50C1F3"/>
<path id="Fill 5" fill-rule="evenodd" clip-rule="evenodd" d="M10.3019 14.313C9.95691 14.313 9.67691 14.033 9.67691 13.688V11.8372C9.67691 11.4922 9.95691 11.2122 10.3019 11.2122C10.6469 11.2122 10.9269 11.4922 10.9269 11.8372V13.688C10.9269 14.033 10.6469 14.313 10.3019 14.313" fill="#50C1F3"/>
</g>
</g>
</svg>
