<svg width="38" height="38" viewBox="0 0 38 38" fill="none" xmlns="http://www.w3.org/2000/svg">
<path opacity="0.5" d="M30.0832 9.5H7.9165C6.65673 9.5 5.44854 10.0004 4.55775 10.8912C3.66695 11.782 3.1665 12.9902 3.1665 14.25V18.5567L13.9918 22.1667H24.0079L34.8332 18.5567V14.25C34.8332 12.9902 34.3327 11.782 33.4419 10.8912C32.5511 10.0004 31.343 9.5 30.0832 9.5Z" fill="#0E2233" fill-opacity="0.2"/>
<path d="M15.8332 9.5V7.91667H22.1665V9.5H25.3332V7.91667C25.3323 7.07707 24.9984 6.2721 24.4048 5.67842C23.8111 5.08474 23.0061 4.75084 22.1665 4.75H15.8332C14.9936 4.75084 14.1886 5.08474 13.5949 5.67842C13.0012 6.2721 12.6673 7.07707 12.6665 7.91667V9.5H15.8332ZM13.9918 22.1667L3.1665 18.5567V28.5C3.16776 29.7594 3.66861 30.9668 4.55914 31.8574C5.44966 32.7479 6.65711 33.2487 7.9165 33.25H30.0832C31.3426 33.2487 32.55 32.7479 33.4405 31.8574C34.3311 30.9668 34.8319 29.7594 34.8332 28.5V18.5567L24.0079 22.1667H13.9918Z" fill="#0E2233" fill-opacity="0.2"/>
</svg>
