<svg xmlns="http://www.w3.org/2000/svg" xmlns:xlink="http://www.w3.org/1999/xlink" viewBox="0 0 400 250" xmlns:v="https://vecta.io/nano"><style>.B{isolation:isolate}.AC{mix-blend-mode:multiply}</style><defs><clipPath id="A"><path d="M0-288.05h400V-39H0z" stroke-width="0" fill="none"/></clipPath><linearGradient id="B" x1="-3697.69" y1="-501.96" x2="-3692.4" y2="-501.96" gradientTransform="translate(-3620.29 -303.19) rotate(-166.77) scale(1 -1)" xlink:href="#i"><stop offset="0" stop-color="#e7ecff"/><stop offset="1" stop-color="#c2d5ff"/></linearGradient><linearGradient id="C" x1="-3697.03" y1="-503.57" x2="-3673.73" y2="-503.57" xlink:href="#B"/><linearGradient id="D" x1="147.64" y1="132.48" x2="247.98" y2="132.48" xlink:href="#i"><stop offset="0" stop-color="#78a7ff"/><stop offset="1" stop-color="#3d79f3"/></linearGradient><linearGradient id="E" x1="166.71" y1="129.75" x2="228.91" y2="129.75" gradientTransform="matrix(1,0,0,1,0,0)" xlink:href="#B"/><linearGradient id="F" x1="196.64" y1="98.24" x2="235.22" y2="98.24" gradientTransform="matrix(1,0,0,1,0,0)" xlink:href="#B"/><linearGradient id="G" x1="196.64" y1="103.56" x2="235.22" y2="103.56" gradientTransform="matrix(1,0,0,1,0,0)" xlink:href="#B"/><linearGradient id="H" x1="196.64" y1="108.89" x2="235.22" y2="108.89" gradientTransform="matrix(1,0,0,1,0,0)" xlink:href="#B"/><linearGradient id="I" x1="172.39" y1="129.75" x2="179.39" y2="129.75" xlink:href="#i"><stop offset="0" stop-color="#ffbb83"/><stop offset="1" stop-color="#ff9d45"/></linearGradient><linearGradient id="J" xlink:href="#I"/><linearGradient id="K" x1="166.71" y1="184.13" x2="228.91" y2="184.13" gradientTransform="matrix(1,0,0,1,0,0)" xlink:href="#B"/><linearGradient id="L" x1="196.64" y1="152.62" x2="235.22" y2="152.62" gradientTransform="matrix(1,0,0,1,0,0)" xlink:href="#B"/><linearGradient id="M" x1="196.64" y1="157.94" x2="235.22" y2="157.94" gradientTransform="matrix(1,0,0,1,0,0)" xlink:href="#B"/><linearGradient id="N" x1="196.64" y1="163.27" x2="235.22" y2="163.27" gradientTransform="matrix(1,0,0,1,0,0)" xlink:href="#B"/><linearGradient id="O" x1="172.39" y1="129.75" x2="179.39" y2="129.75" xlink:href="#D"/><linearGradient id="P" x1="174.83" y1="79.46" x2="220.79" y2="79.46" gradientTransform="matrix(1,0,0,1,0,0)" xlink:href="#B"/><linearGradient id="Q" x1="160.4" y1="157.94" x2="190.23" y2="157.94" gradientTransform="matrix(1,0,0,1,0,0)" xlink:href="#B"/><linearGradient id="R" x1="399.62" y1="-217.57" x2="432.3" y2="-217.57" gradientTransform="translate(-174.68 240.86) rotate(8.06)" xlink:href="#B"/><linearGradient id="S" x1="259.023" y1="82.536" x2="276.33" y2="84.986" xlink:href="#i"><stop offset="0" stop-color="#b3b3ff"/><stop offset="1" stop-color="#8f8fea"/></linearGradient><linearGradient id="T" x1="416.15" y1="-244.98" x2="440.09" y2="-244.98" gradientTransform="translate(-174.68 240.86) rotate(8.06)" xlink:href="#B"/><linearGradient id="U" x1="277.223" y1="57.429" x2="289.896" y2="59.224" xlink:href="#S"/><linearGradient id="V" x1="-5209.33" y1="196.58" x2="-5192.7" y2="196.58" gradientTransform="translate(-5111.76) rotate(-180) scale(1 -1)" xlink:href="#B"/><linearGradient id="W" x1="-5229.59" y1="198.65" x2="-5212.95" y2="198.65" gradientTransform="translate(-5111.76) rotate(-180) scale(1 -1)" xlink:href="#B"/><linearGradient id="X" x1="-5220.82" y1="185.64" x2="-5205.14" y2="185.64" gradientTransform="translate(-5111.76) rotate(-180) scale(1 -1)" xlink:href="#B"/><linearGradient id="Y" x1="-5221.27" y1="217.5" x2="-5201.73" y2="217.5" gradientTransform="translate(-5111.76) rotate(-180) scale(1 -1)" xlink:href="#B"/><linearGradient id="Z" x1="257.03" y1="61.2" x2="316.52" y2="61.2" xlink:href="#i"><stop offset=".05" stop-color="#fff"/></linearGradient><linearGradient id="a" x1="280.975" y1="34.456" x2="292.562" y2="87.956" xlink:href="#i"><stop offset=".36" stop-color="#78c7ee"/><stop offset=".97" stop-color="#009bdd"/></linearGradient><path id="b" d="M176.1 126.54l.96 1.94 2.14.31c.19.03.26.26.13.39l-1.55 1.51.37 2.13c.03.19-.16.33-.33.24l-1.92-1.01-1.92 1.01c-.17.09-.36-.05-.33-.24l.37-2.13-1.55-1.51c-.14-.13-.06-.36.13-.39l2.14-.31.96-1.94a.23.23 0 0 1 .41 0z"/><path id="c" d="M176.69 104.83h-.5l.03-.4c.02-.23.16-.47.42-.48a.44.44 0 0 1 .46.42c.01.24-.18.45-.42.46zm-2.23 0h-.5c-.24-.01-.43-.22-.42-.46s.2-.42.44-.42h.02c.26.01.4.25.42.48l.03.4zm2.98-.47a.78.78 0 0 0-.77-.74h-.03c-.39.02-.7.34-.74.78l-.04.43h-1.08l-.04-.43c-.04-.44-.34-.76-.74-.78a.76.76 0 0 0-.8.74c0 .21.06.4.2.55s.33.24.54.25h.54l.21 2.6h.33l-.21-2.6h1.02l-.21 2.6h.33l.21-2.6h.54c.21 0 .4-.1.54-.25a.75.75 0 0 0 .2-.55z"/><path id="d" d="M175.31 97.88a.27.27 0 0 1-.27-.27v-1.65a.27.27 0 1 1 .54 0v1.65a.27.27 0 0 1-.27.27z"/><path id="e" d="M182.69 103.61h-1.65a.27.27 0 0 1 0-.54h1.65a.27.27 0 1 1 0 .54z"/><path id="f" d="M180.53 108.83c-.07 0-.14-.03-.19-.08l-1.16-1.16c-.11-.11-.11-.28 0-.39s.28-.11.39 0l1.16 1.16c.11.11.11.28 0 .39-.05.05-.12.08-.19.08z"/><path id="g" d="M179.37 99.56c-.07 0-.14-.03-.19-.08-.11-.11-.11-.28 0-.39l1.16-1.16c.11-.11.28-.11.39 0s.11.28 0 .39l-1.16 1.16c-.05.05-.12.08-.19.08z"/><path id="h" d="M182.69 157.99h-1.65a.27.27 0 1 1 0-.54h1.65a.27.27 0 1 1 0 .54z"/><linearGradient id="i" gradientUnits="userSpaceOnUse"/></defs><g class="B"><g clip-path="url(#A)"><g opacity=".1"><g fill="#474747"><path d="M278.12 6.67l-3.36-1.13-.34.19 3.36 1.14.34-.2zm-6.88 3.91l-3.41-1.22-.37.21 3.41 1.22.37-.21zm-8.28 4.71l-3.46-1.34-.41.23 3.47 1.34.4-.23z"/></g><path d="M254.35-70.81l-35.19-2.43v70.01l35.19 13.37v-80.95z" fill="#e0e0e0"/><path d="M277.18-74.33l-22.83 1.96v82.51l22.83-11.79v-72.68z" fill="#ccc"/><path d="M256.06-19.9l20.02-7.27V4.85l-20.02 11.03V-19.9z" fill="#07465e"/><path d="M257.89-19.05l16.69-6.19V4.28l-16.69 9.07v-32.4z" fill="#0d7fab"/><g fill="#6b6b6b"><path d="M277.54 6.59l.93-.53v.69l-.93.53v-.69zm-6.91 3.91l1-.57v.72l-1 .57v-.72zm-8.33 4.71l1.11-.62v.75l-1.11.63v-.76z"/></g><path d="M215.19 23.28l-.68-.35-19.81 9.56.67.41 19.82-9.62z" fill="#155a7a"/><path d="M194.71 32.42l.68.41v9.84l-.68-.44v-9.81z" fill="#1e83b3"/><path d="M195.38 32.83l19.74-9.58v9.06l-19.74 10.36v-9.84z" fill="#18698f"/><path d="M162.64-88.51l27.71.04V34.74l-27.71-17.42V-88.51z" fill="#e0e0e0"/><path d="M217.52-88.8h-27.16V34.74l27.16-13.13V-88.8z" fill="#ccc"/><path d="M212.58-13.02l2.27-.73v12.48l-2.27.86v-12.61zm-3.31-13.76l2.36-.62v-12.74l-2.36.49v12.88zm-3.4-26.21v13.07l2.45-.5v-12.92l-2.45.36zm0-.95l2.45-.36v-12.94l-2.45.22v13.08zm3.4-.5l2.36-.35v-12.75l-2.36.21v12.88zm0 41.5l2.36-.76v-12.73l-2.36.62v12.87zm3.31 26.18l2.27-1V-.26l-2.27.86v12.64zM209.27.86l2.36-.9V-12.7l-2.36.76V.85zm3.31-28.5l2.27-.6v-12.55l-2.27.47v12.69zM211.64.97l-2.36.9V14.7l2.36-1.04V.96zm-2.36-54.45v12.87l2.36-.49v-12.73l-2.36.35zm3.31-1.44l2.27-.33v-12.56l-2.27.2v12.69zm0 13.63l2.27-.47V-54.3l-2.27.33v12.67zm0 27.29l2.27-.73v-12.54l-2.27.6V-14zm-11.15-9.73l-2.65.7v13.48l2.65-.86v-13.32zm0 27.57V-9.42l-2.65.86V4.85l2.65-1.01zm3.51-.33l-2.57.98v13.23l2.57-1.13V3.51zm-2.57-55.99v13.27l2.57-.53v-13.12l-2.57.38zm0 14.24v13.28l2.57-.68v-13.13l-2.57.53zm3.51-.72v13.08l2.45-.65v-12.93l-2.45.51zm0 27.12l2.45-.79v-12.92l-2.45.65v13.06zm2.45 13.05v-12.86l-2.45.79V2.15l2.45-.93zm0 1.01l-2.45.93v13.03l2.45-1.08V2.22zm-5.96-55.64l2.57-.38v-13.14l-2.57.23v13.29zm2.57 41.88v-13.12l-2.57.68v13.27l2.57-.83zm0 14.04v-13.05l-2.57.83v13.2l2.57-.98zm-3.51-40.55l-2.65.55v13.49l2.65-.7v-13.34zm-2.65-14.85l2.65-.39v-13.34l-2.65.24v13.5zm0 .95v13.48l2.65-.55v-13.33l-2.65.39zm2.65 56.79l-2.65 1.01v13.44l2.65-1.17V4.85zm-3.59-56.66l-2.76.41v13.7l2.76-.57v-13.54zm-2.76-.55l2.76-.41v-13.55l-2.76.25v13.71zm2.76 15.05l-2.76.57v13.71l2.76-.73v-13.55zm0 14.52l-2.76.73v13.69l2.76-.89V-22.8zm0 29l-2.76 1.05v13.66l2.76-1.21V6.22zm0-14.48l-2.76.89V6.26l2.76-1.05V-8.26z" fill="#135473"/><path d="M182.82-23.44l2.83.97v13.44l-2.83-1.18v-13.23zm0-29.43l2.83.54v-13.5l-2.83-.33v13.29zm0 14.21l2.83.76v-13.47l-2.83-.55v13.25zm0 14.22l2.83.97v-13.46l-2.83-.76v13.25zm0 42.66l2.83 1.61V6.44l-2.83-1.4v13.18zm-3.62-71.79l2.68.52v-13.21l-2.68-.31v13.01zm-.47 70.01h0zm3.14-11.86l-2.68-1.32v12.91l2.68 1.52V4.58zm-2.68-57.19v12.98l2.68.72v-13.18l-2.68-.52zm0 26.93l2.68.92v-13.18l-2.68-.72v12.98zm0 13.96l2.68 1.12v-13.16l-2.68-.92v12.96zm-3.48-27.87v12.71l2.54.87v-12.91l-2.54-.68zm3.48 41.79l2.68 1.32V-9.59l-2.68-1.12V2.21zm-3.48-56.45l2.54.49V-66.7l-2.54-.3v12.75zm0 .96v12.72l2.54.68V-52.8l-2.54-.49zm7.1 57.28l2.83 1.4V-8l-2.83-1.18V3.99zm-4.56-1.2l-2.54-1.25v12.64l2.54 1.44V2.79zm-5.9-43.28v12.46l2.42.83v-12.64l-2.42-.65zm2.42 26.91v-12.63l-2.42-.83v12.45l2.42 1.01zm.01 13.6v-12.57l-2.42-1.01v12.39l2.42 1.19zm0 1.05l-2.42-1.19v12.39l2.42 1.37V1.07zm-3.36-41.81l-2.28-.61v12.22l2.28.78v-12.39zm.94-14.15l2.42.47V-67.1l-2.42-.28v12.49zm0 .96v12.47l2.42.65v-12.65l-2.42-.47zm3.36 40.75l2.54 1.06v-12.89l-2.54-.87v12.7zm2.54 14.92V-11.1l-2.54-1.06V.49l2.54 1.25zm-6.84-2.33l-2.28-1.13v12.14l2.28 1.3V-.58zm-3.23-54.15l-2.18-.42v11.99l2.18.58v-12.16zm3.23 27.38l-2.28-.78v12.2l2.28.96v-12.38zm0 25.72v-12.32l-2.28-.96v12.16l2.28 1.13zm-2.28-53.88l2.28.44V-67.5l-2.28-.27v12.25zm0 .96v12.23l2.28.61v-12.4l-2.28-.44zm-3.12-1.56l2.18.42v-12.18l-2.18-.25v12.02zm2.18 14.51l-2.18-.58v11.98l2.18.75v-12.15zm0 26.3l-2.18-.91V-4.3l2.18 1.07v-12.08zm0-13.16l-2.18-.75v11.97l2.18.91v-12.13zm0 26.28l-2.18-1.07V8.65l2.18 1.24V-2.18z" fill="#1c7ca8"/><g fill="#18698f"><path d="M204.93 2.5l-2.56.98v-13.2l2.56-.83V2.5zm0 14.09l-2.56 1.13V4.49l2.56-.98v13.08zm-3.5 1.55l-2.66 1.16V5.86l2.66-1.01v13.29zm0-14.3l-2.66 1.01V-8.56l2.66-.86V3.84zm10.21 9.81l-2.37 1.04V1.86l2.37-.9v12.69zm3.21-13.91v12.5l-2.27 1V.6l2.27-.86zm-6.52 15.36l-2.45 1.08V3.15l2.45-.93V15.1zm.94-27.05l2.37-.76V-.05l-2.37.9v-12.8zm-3.39 1.1l2.45-.79V1.21l-2.45.94v-13zm-8.05 16.06l-2.76 1.05V-7.37l2.76-.89V5.21zm0 14.51l-2.76 1.21V7.27l2.76-1.05v13.5zm-23.05-6.08l-2.42-1.37V-.12l2.42 1.19v12.57zm0-13.62l-2.42-1.19v-12.39l2.42 1.01V.02zm.94-12.18l2.54 1.07V1.74L175.72.49v-12.65zm-4.3 23.89l-2.28-1.3V-1.71l2.28 1.13v12.31zm6.84 3.89l-2.54-1.44V1.54l2.54 1.25v12.83zm7.39-9.18v13.39l-2.83-1.61V5.04l2.83 1.4zm-3.77 11.25l-2.68-1.53V3.26l2.68 1.32v13.11zM179.2-10.7l2.68 1.12V3.53l-2.68-1.32V-10.7zm-.47 27.13v.01-.01h0zm6.92-11.04l-2.83-1.4V-9.19l2.07.87.76 1.51v12.2zm-17.45 4.5l-2.18-1.23V-3.25l2.18 1.07V9.89z"/></g><path d="M177.48-19.65l11.07-2.85v47.85l-11.07 4.91v-49.91z" fill="#575757"/><path d="M178.58-18.58l8.95-2.35v45.42l-8.95 3.92v-46.99z" fill="#3fade0"/><path d="M176.5-20.03l.98.37v49.92l-.98-.64v-49.65z" fill="#8f8f8f"/><g fill="#63cbfc"><path d="M178.58 1.47l8.95 12.23v10.79l-2.41 1.06-6.54-8.94V1.47zm8.95-6.22v5.79l-8.95-12.23v-5.78l8.95 12.22z"/></g></g></g><g opacity=".51"><path d="m112.82,144.51c-9.78-17.2-16.3-37.72-10.08-56.07,5.9-17.41,23.02-26.31,39.85-30.5,17.6-4.38,36.07-4.88,53.86-8.6,18.66-3.91,37-9.35,54.74-16.35,8.04-3.17,16-6.67,24.38-8.81,15.11-3.84,33.65-1.42,43.52,11.86,10.31,13.86,10.77,33.93,3.33,49.19-8.5,17.44-23.75,31.11-29.35,50.06-3.39,11.48-2.59,23.96-6.6,35.22-3.92,11.03-9.86,21.45-18,29.92-9.29,9.67-21.54,16.7-34.8,18.72-18.3,2.8-36.73-3.92-53.15-12.47-21.96-11.43-42.42-26.7-57.41-46.58-3.55-4.71-7.09-9.97-10.28-15.59Z" fill="#e7e7f0"/></g><path d="M94.38 60.48c-.14 0-.26-.11-.26-.26l.04-1.84c0-.14.13-.27.27-.25.14 0 .25.13.25.27l-.04 1.81c0 .14-.11.26-.26.26h0zm83.09 77.27c-.14 0-.25-.11-.26-.25 0-.14.1-.27.25-.28l3.64-.3a.26.26 0 0 1 .29.23c.02.14-.09.27-.23.29l-3.66.3h-.02zm7.28-.79c-.13 0-.24-.09-.26-.22-.02-.14.07-.28.22-.3l3.58-.69c.14-.03.28.06.31.2s-.06.28-.2.31l-3.61.7h-.04zm7.14-1.61c-.11 0-.22-.07-.25-.19-.04-.14.04-.28.18-.32l3.46-1.13c.14-.05.29.02.33.16.05.14-.02.29-.16.33l-3.5 1.15c-.02 0-.05.01-.07.01zm6.87-2.52c-.1 0-.19-.06-.24-.15-.06-.13 0-.29.13-.34l.28-.13 2.98-1.49c.13-.07.28-.02.35.1.07.13.02.28-.1.35l-3.01 1.51-.29.13s-.07.02-.11.02zm6.41-3.52c-.08 0-.17-.04-.22-.12-.08-.12-.05-.28.07-.36l2.95-2.13c.11-.09.28-.07.37.04s.07.28-.04.37l-2.99 2.15a.23.23 0 0 1-.14.04zm5.74-4.53c-.07 0-.14-.03-.19-.08-.1-.1-.09-.27.01-.37l2.52-2.62c.09-.11.26-.12.37-.03s.12.26.03.37l-2.55 2.66c-.05.05-.11.07-.18.07zm4.78-5.53c-.05 0-.1-.01-.15-.05-.12-.08-.15-.24-.07-.36.7-1.02 1.32-2.07 1.85-3.12.06-.13.22-.18.35-.11s.18.22.11.35c-.54 1.07-1.18 2.14-1.89 3.17-.05.07-.13.11-.22.11zm3.28-6.52s-.05 0-.08-.01c-.14-.04-.21-.19-.17-.33.38-1.15.67-2.33.86-3.51.02-.14.16-.24.3-.22s.24.16.22.3c-.2 1.21-.49 2.42-.88 3.59-.04.11-.14.18-.25.18zm1.16-7.2h0c-.14 0-.26-.12-.26-.26v-.08c0-1.16-.09-2.35-.26-3.53-.02-.14.08-.27.22-.3.14-.02.27.08.3.22a25.97 25.97 0 0 1 .26 3.6v.09c0 .14-.12.26-.26.26zm-1.02-7.23c-.11 0-.22-.07-.25-.19-.32-1.14-.72-2.29-1.19-3.43-.05-.13 0-.29.14-.34a.25.25 0 0 1 .34.14 30.11 30.11 0 0 1 1.21 3.49c.04.14-.04.28-.18.32h-.07zm-2.78-6.76c-.09 0-.18-.05-.23-.14l-1.25-2.14-.63-.97c-.08-.12-.05-.28.07-.36s.28-.05.36.07l.64.98 1.27 2.17c.07.13.02.28-.1.35-.04.02-.08.03-.12.03zm-55.84-.13c-.14 0-.26-.11-.26-.25s.11-.26.25-.27l2.28-.13 1.35-.14c.14-.02.27.08.29.23.02.14-.09.27-.23.29l-1.36.14-2.31.13h0zm-3.66-.1h-.02c-1.25-.1-2.48-.27-3.65-.51-.14-.03-.23-.17-.2-.31s.17-.23.31-.2a29.27 29.27 0 0 0 3.59.51c.14.01.25.14.24.28s-.13.24-.26.24zm10.93-.74c-.12 0-.23-.09-.26-.21-.03-.14.07-.28.21-.31l3.56-.8c.14-.04.28.05.32.19s-.05.28-.19.32l-3.59.81h-.05zm-18.08-.75s-.06 0-.09-.02c-1.21-.44-2.34-.96-3.36-1.56a.262.262 0 1 1 .27-.45 19.23 19.23 0 0 0 3.27 1.52c.14.05.21.2.16.33-.04.11-.14.17-.25.17zm25.17-1.04c-.11 0-.21-.07-.25-.18-.04-.14.04-.28.17-.33l3.47-1.14c.14-.05.28.02.33.16s-.02.28-.16.33l-3.49 1.14c-.03 0-.05.01-.08.01zm-48.03-.92c-.14 0-.25-.11-.26-.25 0-.14.11-.27.25-.27l3.63-.29c.14-.02.27.09.29.23s-.08.27-.23.29l-3.67.3h-.01zm-3.66-.01l-3.68-.35c-.14-.02-.24-.15-.22-.3.02-.14.16-.23.3-.22l3.62.34c.14 0 .25.13.25.27s-.12.25-.26.25zm10.92-.86c-.12 0-.23-.09-.26-.21-.03-.14.06-.28.2-.31l3.54-.85c.14-.04.28.04.32.18s-.04.28-.18.32l-3.58.86h-.05zm-18.16-.2h-.06l-2-.58-1.52-.54c-.13-.05-.2-.2-.15-.34.05-.13.2-.2.34-.15l1.49.53 1.97.57a.27.27 0 0 1 .19.32c-.03.12-.14.2-.25.2zm65.84-.41c-.11 0-.2-.06-.24-.17-.05-.13.02-.29.15-.34l3.41-1.33c.13-.05.29.01.34.15.05.13-.01.29-.15.34l-3.42 1.33c-.03.01-.06.02-.09.02zm-38.33-.3c-.06 0-.13-.02-.18-.07-.43-.41-.84-.85-1.21-1.31l-.83.3c-.14.05-.29-.02-.33-.16-.05-.14.02-.28.16-.33l.67-.25-.17-.24-.61-.93c-.07-.12-.03-.28.09-.36.12-.07.28-.03.36.09l.58.9.25.34 2.21-.92c.13-.06.29 0 .34.13.06.13 0 .29-.13.34l-2.08.87 1.05 1.13c.1.1.11.26 0 .37-.05.05-.12.08-.19.08zm68.74-.56c-.07 0-.14-.03-.19-.09-.85-.93-1.75-1.75-2.67-2.42-.12-.09-.14-.25-.06-.36.08-.12.25-.14.36-.06.95.69 1.87 1.53 2.75 2.49.1.11.09.27-.02.37-.05.05-.11.07-.18.07zM109.1 84.17s-.08 0-.12-.03a30.49 30.49 0 0 1-3.15-1.93c-.12-.08-.15-.25-.06-.36.08-.12.25-.15.36-.06.98.69 2.02 1.33 3.09 1.9.13.07.18.23.11.35-.05.09-.14.14-.23.14zm79.48-.49a.26.26 0 0 1-.24-.16c-.05-.13.01-.29.14-.34l3.42-1.32c.14-.05.28.02.33.16s-.02.29-.16.33l-3.41 1.32c-.03.01-.06.02-.1.02zm-40.76-1.64c-.09 0-.18-.05-.23-.14-.07-.13-.02-.28.11-.35l3.14-1.84c.12-.08.28-.04.36.08s.04.28-.08.36l-3.18 1.86c-.04.02-.08.03-.12.03zm58.45-.75s-.06 0-.1-.02a12.72 12.72 0 0 0-3.4-.83h-.07c-.14-.02-.25-.15-.23-.29.01-.14.14-.25.29-.23h.08a14.22 14.22 0 0 1 3.54.87c.13.05.2.2.15.34a.26.26 0 0 1-.24.16zm-10.79-.05c-.11 0-.22-.08-.25-.19-.04-.14.04-.28.18-.32 1.3-.35 2.49-.6 3.62-.74.14-.02.27.08.29.23.02.14-.08.27-.23.29a25.41 25.41 0 0 0-3.55.72h-.07zm-92.35-1.28c-.06 0-.13-.02-.18-.07a26.76 26.76 0 0 1-2.55-2.67c-.09-.11-.08-.27.03-.37.11-.09.27-.08.37.03a28.08 28.08 0 0 0 2.5 2.62c.11.1.11.26.02.37-.05.06-.12.08-.19.08zm36.6-.1c-.11 0-.22-.07-.25-.19a17.17 17.17 0 0 1-.6-3.66c0-.14.1-.27.24-.28s.27.1.28.24c.08 1.25.27 2.44.59 3.55.04.14-.04.28-.18.32h-.07zm14.25-1.77c-.08 0-.16-.04-.21-.1-.09-.11-.06-.28.05-.37l.13-.1 2.67-2.23c.11-.1.27-.09.37.02s.09.27-.02.37l-2.7 2.26-.13.1s-.1.05-.16.05zm-55.53-3.75a.25.25 0 0 1-.22-.12c-.66-1.04-1.24-2.14-1.75-3.25-.06-.13 0-.29.13-.34.13-.06.29 0 .34.13.5 1.1 1.07 2.17 1.72 3.19.08.12.04.28-.08.36a.23.23 0 0 1-.14.04zm60.91-1.21c-.06 0-.12-.02-.17-.06-.11-.1-.12-.26-.02-.37.83-.94 1.58-1.91 2.21-2.87.08-.12.24-.15.36-.07s.15.24.07.36c-.65.98-1.41 1.96-2.26 2.93-.05.06-.12.09-.2.09zm-20.13-.54h-.03a.26.26 0 0 1-.23-.29c.13-1.18.35-2.41.66-3.64.03-.14.18-.22.32-.19a.27.27 0 0 1 .19.32 27.75 27.75 0 0 0-.65 3.57c-.01.13-.13.23-.26.23zm-43.79-4.9c-.11 0-.22-.07-.25-.19a26.13 26.13 0 0 1-.8-3.61c-.02-.14.08-.27.22-.3.14-.02.27.08.3.22a26.95 26.95 0 0 0 .78 3.54c.04.14-.04.28-.18.32-.02 0-.05.01-.07.01zm67.91-.66s-.07 0-.1-.02a.27.27 0 0 1-.14-.34c.5-1.16.85-2.32 1.02-3.44.02-.14.16-.24.3-.22s.24.16.22.3c-.19 1.16-.54 2.36-1.06 3.56a.26.26 0 0 1-.24.16zm-22.37-1.53s-.06 0-.09-.02c-.13-.05-.2-.2-.15-.34l.54-1.35.96-2.02c.07-.13.22-.18.35-.11s.18.22.11.35l-.94 1.98-.54 1.33a.27.27 0 0 1-.24.17zm23.36-5.61c-.12 0-.23-.08-.25-.2-.25-1.15-.74-2.24-1.44-3.22-.08-.12-.06-.28.06-.36s.28-.06.36.06a9.33 9.33 0 0 1 1.53 3.42c.03.14-.06.28-.2.31h-.06zm-19.94-.84a.27.27 0 0 1-.15-.05c-.12-.09-.14-.25-.06-.36.76-1.04 1.59-1.98 2.45-2.78.11-.1.27-.09.37.01.1.11.09.27-.01.37-.84.78-1.64 1.7-2.38 2.71a.26.26 0 0 1-.21.11zm5.36-4.92c-.09 0-.18-.05-.23-.13a.25.25 0 0 1 .1-.35 12.52 12.52 0 0 1 2.8-1.15l.69-.17c.14-.03.28.06.31.2s-.06.28-.2.31l-.66.16c-.92.25-1.82.62-2.68 1.11-.04.02-.08.03-.13.03zm10.45-.06s-.1-.01-.14-.04c-1.01-.64-2.12-1.07-3.3-1.27-.14-.02-.24-.16-.21-.3.02-.14.16-.24.3-.21 1.24.21 2.42.67 3.49 1.34.12.08.16.24.08.36a.25.25 0 0 1-.22.12zm12.73 83.81h-1.04c-.14 0-.26-.12-.26-.26s.11-.28.26-.26h1.82 0c.14 0 .26.12.26.26s-.11.26-.26.26h-.79z" fill="#5c5ca0"/><path d="M88.95 54.27s0 .1.05.12l4.61 2.6s.02 0 .03.01c.03 0 .07 0 .09-.03.03-.03.04-.08.02-.12l-3.4-5.82s-.06-.05-.1-.05-.07.03-.09.06l-1.21 3.22z" fill="url(#B)"/><path d="M72.53 42.5s-.01.08.01.11l14.72 16.25s.03.03.05.03h.04c.03 0 .06-.03.07-.06l3.77-10.01 4.46-3.06s.05-.06.04-.11c-.01-.04-.04-.07-.09-.08l-22.99-3.13s-.08.02-.1.05z" fill="url(#C)"/><path d="M78.01 44.53s0 .1.04.13l12.13 6.5 3.39 5.79s.04.04.07.05h.06c.05-.02.07-.07.06-.12l-2.52-8.15s-.03-.06-.06-.07l-13.03-4.19c-.05-.02-.1 0-.12.06z" fill="#c2d5ff"/><path d="M143.62 76.04h-.52v-7.09a10.85 10.85 0 0 1 10.84-10.84h8.1v.52h-8.1c-5.69 0-10.32 4.63-10.32 10.32v7.09zm108.9 0H252v-7.09c0-5.69-4.63-10.32-10.32-10.32h-8.1v-.52h8.1a10.85 10.85 0 0 1 10.84 10.84v7.09zm-90.48 130.81h-8.1a10.85 10.85 0 0 1-10.84-10.84v-7.09h.52v7.09c0 5.69 4.63 10.32 10.32 10.32h8.1v.52zm79.64 0h-8.1v-.52h8.1c5.69 0 10.32-4.63 10.32-10.32v-7.09h.52v7.09a10.85 10.85 0 0 1-10.84 10.84z" fill="#adc8f7"/><rect x="147.64" y="62.66" width="100.34" height="139.65" rx="6.29" fill="url(#D)"/><path d="M153.94 67.21h87.75c.96 0 1.75.78 1.75 1.75v127.06c0 .96-.78 1.75-1.75 1.75h-87.75c-.96 0-1.75-.78-1.75-1.75V68.96c0-.96.78-1.75 1.75-1.75z" fill="#fff"/><rect x="166.71" y="122.84" width="62.19" height="13.83" rx="1.44" fill="url(#E)"/><rect x="196.64" y="96.96" width="38.58" height="2.55" rx="1.27" fill="url(#F)"/><rect x="196.64" y="102.29" width="38.58" height="2.55" rx="1.27" fill="url(#G)"/><path d="m214.05,107.61h-16.14c-.7,0-1.27.57-1.27,1.27h0c0,.7.57,1.27,1.27,1.27h16.14c.7,0,1.27-.57,1.27-1.27h0c0-.7-.57-1.27-1.27-1.27Z" fill="url(#H)"/><path d="m190.23,103.56c0,8.23-6.68,14.91-14.91,14.91s-14.91-6.68-14.91-14.91,6.68-14.91,14.91-14.91,14.91,6.68,14.91,14.91Z" fill="#0d99ff"/><path d="m187.3,103.56c0,6.62-5.37,11.98-11.98,11.98s-11.99-5.37-11.99-11.98,5.37-11.99,11.99-11.99,11.98,5.37,11.98,11.99Z" fill="#fff"/><use xlink:href="#b" fill="url(#I)"/><use xlink:href="#b" x="8.64" fill="url(#J)"/><g fill="#fff"><use xlink:href="#b" x="17.28"/><use xlink:href="#b" x="25.92"/><use xlink:href="#b" x="34.56"/></g><rect x="166.71" y="177.22" width="62.19" height="13.83" rx="1.44" fill="url(#K)"/><rect x="196.64" y="151.35" width="38.58" height="2.55" rx="1.27" fill="url(#L)"/><rect x="196.64" y="156.67" width="38.58" height="2.55" rx="1.27" fill="url(#M)"/><path d="m214.05,162h-16.14c-.7,0-1.27.57-1.27,1.27h0c0,.7.57,1.27,1.27,1.27h16.14c.7,0,1.27-.57,1.27-1.27h0c0-.7-.57-1.27-1.27-1.27Z" fill="url(#N)"/><use xlink:href="#b" y="54.38" fill="url(#O)"/><use xlink:href="#b" x="8.64" y="54.38" fill="url(#O)"/><use xlink:href="#b" x="17.28" y="54.38" fill="url(#O)"/><g fill="#fff"><use xlink:href="#b" x="25.92" y="54.38"/><use xlink:href="#b" x="34.56" y="54.38"/></g><rect x="174.83" y="73.23" width="45.96" height="12.44" rx="1.35" fill="url(#P)"/><path d="m190.23,157.95c0,8.23-6.68,14.91-14.91,14.91s-14.91-6.68-14.91-14.91,6.68-14.91,14.91-14.91,14.91,6.68,14.91,14.91Z" fill="url(#Q)"/><path d="m187.3,157.95c0,6.62-5.37,11.98-11.98,11.98s-11.99-5.37-11.99-11.98,5.37-11.99,11.99-11.99,11.98,5.37,11.98,11.99Z" fill="#fff"/><path d="M283.77 83.87l-2.8-1.17c-.13-1.57-.53-3.07-1.15-4.45l1.89-2.38c.14-.17.14-.41 0-.59l-2.01-2.68c-.13-.18-.37-.24-.57-.16l-2.81 1.16a13.04 13.04 0 0 0-3.96-2.34l-.34-3.01a.49.49 0 0 0-.42-.43l-3.31-.47a.49.49 0 0 0-.52.3l-1.18 2.8c-1.57.13-3.06.52-4.44 1.15l-2.38-1.9a.51.51 0 0 0-.6 0l-2.68 2.01c-.18.13-.24.37-.15.57l1.15 2.81c-.99 1.16-1.79 2.49-2.34 3.96l-3 .34a.5.5 0 0 0-.44.41l-.47 3.32a.49.49 0 0 0 .31.52l2.79 1.17c.13 1.56.53 3.06 1.15 4.44l-1.89 2.38c-.14.17-.14.42-.01.6l2.01 2.68c.13.18.37.24.58.16l2.81-1.16a12.79 12.79 0 0 0 3.95 2.34l.35 3.01a.49.49 0 0 0 .41.43l3.31.47a.51.51 0 0 0 .53-.29l1.17-2.8c1.57-.12 3.07-.51 4.45-1.15l2.38 1.9c.17.14.41.14.59 0l2.68-2.01a.5.5 0 0 0 .16-.58l-1.15-2.81a13.32 13.32 0 0 0 2.34-3.95l3.01-.35a.49.49 0 0 0 .43-.41l.47-3.32a.49.49 0 0 0-.3-.52zm-16.98 5.98c-3.37-.48-5.71-3.59-5.24-6.95.48-3.37 3.59-5.71 6.96-5.24 3.37.48 5.71 3.59 5.24 6.96-.48 3.36-3.59 5.7-6.96 5.23z" fill="url(#R)"/><path d="M268.88 75.1c-4.78-.68-9.2 2.65-9.88 7.44-.68 4.78 2.65 9.2 7.43 9.88 4.79.68 9.2-2.65 9.88-7.43a8.74 8.74 0 0 0-7.43-9.89zm-2.09 14.75c-3.37-.48-5.71-3.59-5.24-6.95.48-3.37 3.59-5.71 6.96-5.24 3.37.48 5.71 3.59 5.24 6.96-.48 3.36-3.59 5.7-6.96 5.23z" fill="url(#S)"/><path d="M295.35 58.41l-2.05-.85a9.68 9.68 0 0 0-.84-3.26l1.38-1.74c.1-.12.1-.3 0-.43l-1.48-1.96a.36.36 0 0 0-.42-.12l-2.06.85c-.85-.73-1.82-1.31-2.9-1.72l-.25-2.21a.34.34 0 0 0-.31-.31l-2.42-.34a.35.35 0 0 0-.38.22l-.86 2.05a9.74 9.74 0 0 0-3.26.84l-1.74-1.39a.36.36 0 0 0-.44 0l-1.96 1.48c-.13.1-.18.27-.11.42l.84 2.06a9.94 9.94 0 0 0-1.72 2.9l-2.2.25c-.16.02-.3.14-.32.3l-.34 2.43c-.02.16.07.32.22.38l2.04.86a10.05 10.05 0 0 0 .84 3.26l-1.38 1.74c-.1.12-.11.31 0 .44l1.48 1.96c.1.13.27.18.42.11l2.06-.85c.85.73 1.82 1.32 2.89 1.72l.26 2.21a.35.35 0 0 0 .3.31l2.42.34c.17.02.32-.06.39-.22l.85-2.05a9.45 9.45 0 0 0 3.26-.84l1.74 1.39c.12.1.3.1.43 0l1.96-1.48c.13-.1.18-.28.11-.42l-.84-2.06a10.02 10.02 0 0 0 1.72-2.89l2.21-.26a.35.35 0 0 0 .31-.3l.34-2.43a.35.35 0 0 0-.22-.38zm-12.44 4.38a4.51 4.51 0 0 1-3.84-5.09c.35-2.47 2.63-4.19 5.1-3.84s4.19 2.63 3.84 5.1c-.35 2.46-2.63 4.18-5.1 3.83z" fill="url(#T)"/><path d="M284.44 51.98c-3.5-.5-6.74 1.94-7.24 5.45-.5 3.5 1.94 6.74 5.44 7.24a6.4 6.4 0 0 0 7.24-5.44c.5-3.51-1.93-6.75-5.44-7.25zm-1.53 10.81a4.51 4.51 0 0 1-3.84-5.09c.35-2.47 2.63-4.19 5.1-3.84s4.19 2.63 3.84 5.1c-.35 2.46-2.63 4.18-5.1 3.83z" fill="url(#U)"/><path d="m121.62,225.77c0,.93-9.5,1.69-21.23,1.69s-21.23-.76-21.23-1.69,9.5-1.69,21.23-1.69,21.23.75,21.23,1.69Z" fill="#f5f7ff"/><path d="M97.56 204.72c.12-2.16-.83-5.71-1.75-7.66s-2.24-3.7-3.75-5.24c-1.03-1.05-2.18-2.03-3.51-2.67s-2.87-.92-4.31-.56c-1.43.36-2.72 1.43-3.14 2.84-.26.88-.18 1.84.09 2.72.63 2.09 2.26 3.76 4.12 4.89s3.97 1.79 6.05 2.44 4.33 2.11 6.2 3.24z" fill="url(#V)"/><path d="M101.21 206.79c-.12-2.16.83-5.71 1.75-7.66s2.24-3.7 3.75-5.24c1.03-1.05 2.18-2.03 3.51-2.67s2.87-.92 4.31-.56c1.43.36 2.72 1.43 3.14 2.84.26.88.18 1.84-.09 2.72-.63 2.09-2.26 3.76-4.12 4.89s-3.97 1.79-6.05 2.44-4.33 2.11-6.2 3.24z" fill="url(#W)"/><path d="m100.52,201.39s18.68-27.83.8-31.26c-17.39-3.34-.8,31.26-.8,31.26Z" fill="url(#X)"/><g fill="#adc8f7"><path d="M99.21 210.36c.09 0 .16-.07.16-.16 0-8.09-12.41-17.3-12.93-17.69-.07-.05-.18-.04-.23.04-.05.07-.04.18.04.23.13.09 12.81 9.51 12.8 17.43 0 .09.07.16.16.16h0zm1.1-.21c.09 0 .16-.07.16-.16.32-6.91 13.54-15.67 13.67-15.75.08-.05.1-.15.05-.23s-.15-.1-.23-.05c-.55.36-13.49 8.93-13.82 16.01 0 .09.07.17.16.17h0z"/><path d="M98.99 210.36c.07 0 .14-.05.16-.12 3.19-12.27 2.01-34.06 2-34.28 0-.09-.08-.16-.17-.15-.09 0-.16.08-.15.17.01.22 1.19 21.96-1.99 34.17-.02.09.03.18.12.2H99z"/></g><path d="m90.95,208.86c-.54,0-.98.44-.98.98v7.24c0,4.07,2.5,7.53,6.03,8.99.13.05.27.08.41.08h6.65c.14,0,.28-.03.41-.08,3.53-1.46,6.03-4.92,6.03-8.99v-7.24c0-.54-.44-.98-.98-.98h-17.58Z" fill="url(#Y)"/><path d="M89.97 212.62v-2.77a.98.98 0 0 1 .98-.98h17.58a.98.98 0 0 1 .98.98v2.77H89.97zm6.22 5.61a3.55 3.55 0 0 0 7.1 0c0-1.96-1.58-3.55-3.55-3.55s-3.55 1.59-3.55 3.55z" fill="#78a7ff"/><circle class="AC" cx="288.63" cy="63.06" r="29.75" opacity=".5" fill="#d1d1d1"/><circle cx="286.78" cy="61.2" r="29.75" fill="#fff"/><circle cx="286.78" cy="61.2" r="29.75" fill="url(#Z)" opacity=".5"/><circle cx="286.78" cy="61.2" r="27.37" transform="matrix(.211666 -.977342 .977342 .211666 166.25 328.52)" fill="url(#a)"/><circle cx="286.78" cy="61.2" r="23.82" transform="matrix(.266902 -.963724 .963724 .266902 151.25 321.24)" fill="#fff"/><g fill="#28a6d1"><circle cx="286.78" cy="49.52" r="3.85" transform="matrix(.973259 -.22971 .22971 .973259 -3.71 67.21)"/><circle cx="286.78" cy="67.72" r="2.07" transform="matrix(.973259 -.22971 .22971 .973259 -7.89 67.7)"/><path d="M282.93 49.52l1.82 18.6 4.07-.09 1.81-18.51h-7.7z"/><circle cx="286.78" cy="74.24" r="2.49" transform="matrix(.973259 -.22971 .22971 .973259 -9.38 67.87)"/></g><g fill="#0d99ff"><path d="m175.32,99.94s.07,0,.11,0c.85.03,1.65.38,2.25,1,.6.62.93,1.43.93,2.29s-.31,1.63-.88,2.24c-.51.55-.84,1.21-.97,1.94,0,.05-.05.09-.11.09h-2.67c-.05,0-.1-.04-.11-.09-.13-.72-.46-1.39-.97-1.94-.54-.58-.85-1.34-.87-2.14-.01-.45.06-.89.23-1.31.16-.4.4-.76.7-1.08.3-.31.66-.56,1.06-.73.41-.18.85-.27,1.3-.27h0m0-.55c-2.15,0-3.9,1.79-3.84,3.95.03.96.41,1.84,1.02,2.5.46.49.76,1.11.85,1.78l.02.12c.02.18.18.31.36.31h3.18c.18,0,.33-.13.36-.31v-.1c.11-.67.41-1.3.87-1.79.64-.68,1.02-1.6,1.02-2.61,0-2.08-1.65-3.77-3.71-3.84-.04,0-.09,0-.13,0h0Z"/><use xlink:href="#c"/><path d="M173.73 108.91h3.17c.14 0 .26-.12.26-.26h0c0-.14-.12-.26-.26-.26h-3.17c-.14 0-.26.12-.26.26h0c0 .14.12.26.26.26zm0 .85h3.17c.14 0 .26-.12.26-.26h0c0-.14-.12-.26-.26-.26h-3.17c-.14 0-.26.12-.26.26h0c0 .14.12.26.26.26zm0 .85h3.17c.14 0 .26-.12.26-.26h0c0-.14-.12-.26-.26-.26h-3.17c-.14 0-.26.12-.26.26h0c0 .14.12.26.26.26z"/><use xlink:href="#d"/><use xlink:href="#e"/><use xlink:href="#e" x="-13.11"/><use xlink:href="#f"/><use xlink:href="#f" x="-9.27" y="-9.27"/><use xlink:href="#g"/><use xlink:href="#g" x="-9.27" y="9.27"/><path d="M175.32 111.44h0a1.78 1.78 0 0 1-1.05-.34c-.07-.05-.03-.16.06-.16h1.99c.09 0 .13.11.06.16a1.78 1.78 0 0 1-1.05.34zm0 42.89h.11c.85.03 1.65.38 2.25 1a3.27 3.27 0 0 1 .93 2.29 3.22 3.22 0 0 1-.88 2.24 3.81 3.81 0 0 0-.97 1.94c0 .05-.05.09-.11.09h-2.67c-.05 0-.1-.04-.11-.09a3.85 3.85 0 0 0-.97-1.94c-.54-.58-.85-1.34-.87-2.14-.01-.45.06-.89.23-1.31a3.46 3.46 0 0 1 .7-1.08 3.24 3.24 0 0 1 1.06-.73 3.22 3.22 0 0 1 1.3-.27h0m0-.55c-2.15 0-3.9 1.79-3.84 3.95.03.96.41 1.84 1.02 2.5a3.23 3.23 0 0 1 .85 1.78l.02.12c.02.18.18.31.36.31h3.18c.18 0 .33-.13.36-.31v-.1a3.43 3.43 0 0 1 .87-1.79c.64-.68 1.02-1.6 1.02-2.61 0-2.08-1.65-3.77-3.71-3.84h-.13 0z"/><use xlink:href="#c" y="54.38"/><path d="M173.73 163.29h3.17c.14 0 .26-.12.26-.26h0c0-.14-.12-.26-.26-.26h-3.17c-.14 0-.26.12-.26.26h0c0 .14.12.26.26.26zm0 .85h3.17c.14 0 .26-.12.26-.26h0c0-.14-.12-.26-.26-.26h-3.17c-.14 0-.26.12-.26.26h0c0 .14.12.26.26.26zm0 .85h3.17c.14 0 .26-.12.26-.26h0c0-.14-.12-.26-.26-.26h-3.17c-.14 0-.26.12-.26.26h0c0 .14.12.26.26.26z"/><use xlink:href="#d" y="54.38"/><use xlink:href="#h"/><use xlink:href="#h" x="-13.11"/><use xlink:href="#f" y="54.38"/><use xlink:href="#f" x="-9.27" y="45.11"/><use xlink:href="#g" y="54.38"/><use xlink:href="#g" x="-9.27" y="63.65"/><path d="m175.32,165.82h0c-.38,0-.75-.12-1.05-.34-.07-.05-.03-.16.06-.16h1.99c.09,0,.13.11.06.16-.3.22-.67.34-1.05.34Z"/></g></g></svg>