<svg xmlns="http://www.w3.org/2000/svg" viewBox="0 0 400 250" xmlns:v="https://vecta.io/nano"><style>.A{isolation:isolate}.Q{mix-blend-mode:multiply}</style><defs><linearGradient id="A" x1="125.51" y1="68.89" x2="185.01" y2="68.89" gradientUnits="userSpaceOnUse"><stop offset=".05" stop-color="#fff"/></linearGradient><linearGradient id="B" x1="149.461" y1="42.134" x2="161.047" y2="95.634" gradientUnits="userSpaceOnUse"><stop offset=".36" stop-color="#78c7ee"/><stop offset=".97" stop-color="#009bdd"/></linearGradient></defs><g class="A"><path d="M237.33 221.96c-5.68-5.83-7.55-14.68-6.19-22.7 1.37-8.03 5.61-15.31 10.76-21.62 6.23-7.65 13.88-14.13 22.44-19.03 7.69-4.4 16.18-7.54 24.98-8.5 8.81-.96 17.94.32 25.86 4.3 8.38 4.21 15.36 11.7 17.64 20.79s-.78 19.64-8.4 25.12c-4.92 3.54-11.1 4.74-17.06 5.85-6.29 1.17-13.34.3-18.87 3.52-8.53 4.97-14 14.42-23.35 17.57-9.44 3.18-20.87 1.84-27.82-5.29zm-62.34-61.83c38.38 0 69.5-31.12 69.5-69.5s-31.12-69.5-69.5-69.5-69.5 31.12-69.5 69.5 31.12 69.5 69.5 69.5zM319.63 39.87h-37.27c-1.74 0-3.14 1.48-3.14 3.31v18.44c0 1.83 1.41 3.31 3.14 3.31h37.27c1.74 0 3.14-1.48 3.14-3.31V43.18c0-1.83-1.41-3.31-3.14-3.31z" fill="#edf5fc"/><path d="M288.52 56.36a3.72 3.72 0 0 0 3.72-3.72c0-2.05-1.67-3.72-3.72-3.72s-3.72 1.67-3.72 3.72 1.67 3.72 3.72 3.72zm12.4-7.44h12.41a3.72 3.72 0 0 1 3.72 3.72h0a3.72 3.72 0 0 1-3.72 3.72h-12.41a3.72 3.72 0 0 1-3.72-3.72h0a3.72 3.72 0 0 1 3.72-3.72z" fill="#aedaff"/><path d="M290.71 191.86c-.44.77-.79 1.6-1.05 2.48-.92 3.11 1.06 6.61 4.01 8.89 2.95 2.27 6.81 3.28 9.48 1.65 1.52-.93 2.3-2.03 2.58-3.19.27-1.15.04-2.38-.55-3.57-1.64-3.32-6.11-6.41-8.68-6.92a27.28 27.28 0 0 0-3.6-.47c2.33-2.76 6.04-4.51 10.24-5.58 9.14-2.32 20.68-1.4 26.51-.12.31.07.63-.14.71-.46s-.11-.64-.42-.71c-5.95-1.3-17.72-2.23-27.04.14-4.81 1.22-8.97 3.34-11.42 6.68-9.17-.18-18.93 3.5-27.22 6.56-.31.11-.48.46-.38.77a.57.57 0 0 0 .74.36c7.95-2.93 17.28-6.49 26.1-6.5zm1.33.03c-.54.84-.97 1.76-1.26 2.76-.79 2.7 1.06 5.65 3.62 7.62 1.57 1.21 3.41 2.04 5.15 2.2 1.09.1 2.14-.07 3.03-.61 1.17-.71 1.8-1.53 2.01-2.41.21-.89 0-1.83-.46-2.76-1.5-3.03-5.56-5.86-7.89-6.32-1.38-.27-2.78-.43-4.19-.49z" fill="#0d99ff" fill-rule="evenodd"/><path d="M175.86 85.61L153 190.82c-1.6 7.39 3.06 13.38 10.42 13.38h68.63c7.34 0 14.62-5.97 16.23-13.38l22.86-105.21c1.61-7.39-3.06-13.38-10.42-13.38h-68.63c-7.36 0-14.63 5.99-16.23 13.38z" fill="#fff"/><path d="M162.51 147.04L153 190.81c-1.6 7.39 3.06 13.38 10.42 13.38h68.63c5.27 0 10.49-3.08 13.62-7.53-21.22-8.37-50.78-4.14-68.29-18.31-9.05-7.33-13.72-18.93-14.88-31.31z" fill="#e2f1ff"/><path d="m191.41,112.41c-3.17,14.59,6.07,26.36,20.53,26.36s28.84-11.85,31.99-26.36c3.16-14.56-6.03-26.36-20.53-26.36s-28.83,11.81-31.99,26.36Z" fill="#e1e5ff"/><path d="m191.41,112.41c-3.17,14.59,6.07,26.36,20.53,26.36,7.56,0,15.08-3.21,20.97-8.34-12.87,8.7-29.39,7.49-36.06-4.64-2.44-4.45-3.26-10.02-1.95-16.07,1.51-6.96,5.57-13.29,10.99-18-7.13,4.83-12.66,12.31-14.48,20.69Z" fill="#ccd2ff"/><path d="M232.05 204.66h-68.63c-7.57 0-12.57-6.17-10.88-13.95L175.4 85.5l.46.1-.46-.1c1.65-7.58 9.13-13.75 16.69-13.75h68.63c7.58 0 12.57 6.18 10.88 13.95l-22.86 105.21c-1.65 7.58-9.14 13.75-16.69 13.75zM192.1 72.69c-7.14 0-14.22 5.84-15.78 13.01l-22.86 105.21c-1.55 7.14 2.94 12.81 9.96 12.81h68.63c7.14 0 14.22-5.84 15.78-13.01L270.69 85.5c1.55-7.14-2.94-12.81-9.96-12.81H192.1z" fill="#112544"/><path d="m180.36,176.1l-2.15,9.91c-.45,2.09.87,3.79,2.95,3.79h39.4c2.08,0,4.14-1.7,4.6-3.79l2.15-9.91c.45-2.09-.87-3.79-2.95-3.79h-39.4c-2.08,0-4.14,1.7-4.6,3.79Z" fill="#0d99ff"/><path d="m180.36,176.11l-2.15,9.91c-.45,2.09.87,3.79,2.95,3.79h39.4c1.78,0,3.55-1.25,4.31-2.92-1.38.53.4.18-40.9.28-2.08,0-3.41-1.69-2.95-3.79,2.28-10.35,2.1-10.04,2.44-10.78-1.49.57-2.76,1.92-3.1,3.51Z" fill="#128dd8"/><path d="m257.17,81.87c-.46,2.11.87,3.81,2.97,3.81s4.17-1.71,4.62-3.81c.46-2.11-.87-3.81-2.97-3.81s-4.17,1.71-4.62,3.81Z" fill="#e1e5ff"/><path d="m218.26,123.15s-3.11-.03-5.56-2.79c-.13-.14-.41-.01-.44.2-.17,1.44-.07,5.04,5.2,5.68l.79-3.09Z" fill="#e2805d"/><path d="m193.36,128.48c3.44,6.26,10.11,10.29,18.58,10.29s16.89-4.03,23.05-10.29c-3.1-6.66-9.92-8.18-18.56-8.18s-17.08,1.52-23.07,8.18Z" fill="#fc6054"/><path d="m193.36,128.48c3.44,6.26,10.11,10.29,18.58,10.29s16.89-4.03,23.05-10.29c-.1-.21-.19-.4-.3-.6-5.54,4.16-12.21,6.68-18.92,6.68-8.2,0-14.71-3.78-18.24-9.7-1.49.99-2.89,2.18-4.18,3.61Z" fill="#e64b38"/><path d="m221.11,120.6l1.85-11.24.62-2.73c-1.75-.52,1.88-4.53,2.29-6.51-.94-.89-5.9-.02-5.43-1.58.12-.39.28-.76.48-1.11-.43.05-.87.07-1.3.03-1.26-.11-2.26-.61-2.85-1.31-.63.78-1.61,1.27-2.55,1.19-.48-.04-.89-.23-1.18-.52-.66.96-4.83,6.69-7.45,10.99-6.13,10.03,4.86,10.05,4.86,10.05l-.51,3.49c-.45,3.01,10.72,2.26,11.17-.75Z" fill="#fcbba4"/><g fill="#112544"><path d="M209.47 121.28l.15-1.05c.04-.26.28-.43.53-.4.26.04.43.28.4.53l-.15 1.05c-.33 2.19 9.87 1.64 10.25-.89.04-.26.28-.43.53-.39.26.04.43.28.39.53-.53 3.53-12.67 4.38-12.1.61zm13.33-29.65c-.42-1.23-2.18-2.36-3.66-2.49-6.85-.61-6.66 6.46-6.65 6.55-.81.01-1.36.91-1.7 1.52-.61 1.1-.44 2.19.33 2.35l1.92-2.73c-1.31 7.88 12.55-1.86 9.93 12.53l-.49 2.81c.54-.1 1.42-.46 1.92-.73 1.31-.71 2.39-1.93 2.83-3.39.21-.7.26-1.39.14-2.01 1.22-.72 6.74-5.78.76-8.87 2.88-2.85.23-5.59-2.07-5.79-.87-.08-2.44-.14-3.26.26zm-7.6 13.25c-.14.39.06.74.43.79s.79-.22.92-.6c.14-.39-.06-.74-.43-.79s-.79.22-.92.6zm.47-2.54c-.17-.01-.4 0-.49.18-.09.17.06.31.19.39.8.49 1.81.88 2.84.93.46.02.69-.35.39-.63-.32-.29-.84-.43-1.27-.56-.53-.16-1.09-.27-1.67-.32zm-5.57 1.17c-.12.39.09.73.47.76s.78-.25.9-.64-.09-.73-.47-.76-.78.25-.9.64zm3.24-1.74c.14.08.29.22.21.39s-.31.2-.48.19c-1.02-.06-2.1-.3-2.9-.81-.36-.23-.21-.62.26-.67.75-.07 2.22.5 2.92.9z"/><path d="m220.39,103.53c-.54,1.78.43,3.34,2.17,3.5,1.73.15,3.58-1.16,4.12-2.94.54-1.77-.43-3.34-2.17-3.5-1.74-.15-3.58,1.16-4.12,2.94Z"/></g><path d="m220.84,108.14c-.43,1.43.35,2.69,1.75,2.82,1.4.12,2.88-.94,3.32-2.37.43-1.43-.35-2.69-1.75-2.82-1.4-.12-2.89.94-3.32,2.37Z" fill="#fcbba4"/><path d="M210.25 108.13c-.16-.14-.26-.33-.27-.54-.06-1.19 1.99-3.12 2.62-3.69.19-.17.49-.16.66.04.17.19.16.49-.04.66-1.07.95-2.2 2.26-2.3 2.84a1.9 1.9 0 0 0 .65.03c.26-.03.49.16.52.42s-.16.49-.42.52c-.45.05-1.08.02-1.42-.27zm-4.12 3.35a.48.48 0 0 1 .21-.63.48.48 0 0 1 .63.21c.93 1.88 3.3 1.53 5.02.64.23-.12.51-.03.63.2s.03.51-.2.63c-2.23 1.18-5.13 1.33-6.3-1.05zm16.83-2.43c-.17 0-.33-.09-.41-.24-.12-.23-.04-.51.19-.64l.82-.45c.23-.12.51-.04.64.19.12.23.04.51-.19.64l-.82.45c-.07.04-.15.06-.22.06z" fill="#e2805d"/><g fill="#0d99ff"><path d="M211.95 139.24c-15.02 0-24.18-12.27-20.99-26.93 3.2-14.74 17.76-26.73 32.45-26.73s24.24 11.97 20.99 26.93c-3.16 14.56-17.49 26.73-32.45 26.73zm11.46-52.72c-14.27 0-28.42 11.66-31.53 25.99h0c-3.06 14.11 5.69 25.79 20.07 25.79s28.47-11.92 31.53-25.99c3.15-14.5-6.09-25.79-20.07-25.79zm-31.99 25.89h0 0zm68.72-26.26c-2.42 0-3.94-2.01-3.43-4.38.5-2.3 2.78-4.18 5.08-4.18 2.43 0 3.94 2.01 3.43 4.38-.5 2.3-2.78 4.18-5.08 4.18zm1.66-7.62c-1.88 0-3.75 1.54-4.17 3.44-.4 1.84.73 3.24 2.51 3.24 1.88 0 3.75-1.54 4.17-3.44.4-1.84-.74-3.24-2.51-3.24zm-2.15 4.42c-.16-.2-.14-.5.06-.66l1.9-1.57c.2-.16.49-.14.66.06.16.2.14.5-.06.66l-1.9 1.57c-.2.16-.5.14-.66-.06z"/><path d="M261.21 82.94l-1.22-1.57c-.16-.2-.12-.5.08-.66s.5-.12.66.08l1.22 1.57c.16.2.12.5-.08.66s-.5.12-.66-.08zm-67.71-3.43h-9.56a.47.47 0 0 1 0-.94h9.56a.47.47 0 1 1 0 .94zm-.62 2.83h-9.56a.47.47 0 0 1 0-.94h9.56a.47.47 0 1 1 0 .94zm-5.39 2.83h-4.78a.47.47 0 0 1 0-.94h4.78a.47.47 0 1 1 0 .94z"/></g><path d="m220.56,190.27h-39.4c-2.41,0-3.92-2-3.41-4.36l2.15-9.91c.5-2.29,2.77-4.16,5.06-4.16h39.4c2.41,0,3.92,2,3.41,4.36l-2.15,9.91c-.5,2.29-2.77,4.16-5.06,4.16Zm-40.2-14.16l.46.1-2.15,9.91c-.4,1.83.73,3.22,2.49,3.22h39.4c1.87,0,3.73-1.53,4.14-3.42l2.15-9.91c.4-1.83-.73-3.22-2.49-3.22h-39.4c-1.87,0-3.73,1.53-4.14,3.42l-.46-.1Z" fill="#112544"/><path d="M245.84 148.76h-71.93a.47.47 0 0 1 0-.94h71.93a.47.47 0 0 1 0 .94zm-12.47 9.36h-51.05a.47.47 0 0 1 0-.94h51.05a.47.47 0 0 1 0 .94z" fill="#0d99ff"/><path d="M194.29 176.12c1.86 0 2.98.76 3.35 2.29.38 1.47-.12 3.62-1.85 5.03-1.23.98-3.39 1.55-4.66 1.55-.38-.07-.54-.25-.49-.53l1.4-7.84c.18-.26.41-.39.68-.39.81-.14 1.43-.11 1.57-.12zm-2.42 7.66l.07.03c.46 0 1.2-.2 2.22-.6 1.33-.6 2.12-1.62 2.37-3.04 0-.16.37-1.49-.68-2.46-.38-.3-.95-.45-1.7-.45-.19 0-1.11-.03-1.14.12l-1.14 6.41zm10.53-5.34c1.76 0 2.51 1.66 2.26 3.17-.09.21 0 2.09-2.46 3.19-1.56.59-3.04.29-3.7-1.36-.24-.94-.05-1.66-.05-1.74.17-1.02.71-1.86 1.6-2.52.74-.49 1.53-.73 2.35-.73zm-2.79 3.28c0 .1-.44 1.42.82 2.12 1.02.31 1.91-.12 2.6-.92.21-.31.35-.66.42-1.06 0-.11.4-1.35-.61-2.11-.42-.2-.58-.14-.69-.15-1.41 0-2.34.95-2.54 2.12zm7.16-3.26c.89 0 .44.85.46 1.06.76-1.37 4.8-1.93 4.34 2.12l-.64 3.17c-.16.18-.34.27-.54.27h-.01c-.37-.05-.53-.23-.48-.53l.48-2.81c.46-2.66-2.25-2.57-3.36-.97l-.64 3.76c-.1.32-.32.48-.68.5-.27 0-.43-.15-.47-.46 0-.11.28-1.92.86-5.44.11-.45.34-.67.69-.67zm9.54.09c1.9 0 2.18 1.13 1.96 2.91-.06.33-.32.53-.8.57-2.07.3-3.29.18-3.82.19 0 .1-.19.64.13 1.13.91 1.14 2.69.13 3.48.03.31.02.44.22.38.59-.45 1.08-3.85 1.74-4.94-.02-.26-.52-.31-1.24-.15-2.16.47-2.04 1.73-3.12 3.77-3.24zm-2.35 2.6c.48 0 1.5.1 3.2-.14v-.04c.16-.88-.17-1.33-.97-1.34-1.79.07-2.08 1.32-2.23 1.52zm-87.61 39.54l5.63-14.87s7.65-21.14 1.57-23.04c-7.44-2.32-10.62 15.99-10.62 15.99s-3.91-27.74-11.41-25.5 2.35 30.08 2.35 30.08-9.62-23.82-15.77-20.47c-6.15 3.36 7.72 25.16 7.72 25.16s-8.63-9.04-12.24-4.03c-4.65 6.45 16.49 16.67 16.49 16.67H90.01" fill="#fff"/><g fill="#e2f1ff"><path d="M126.18 221.13c-.24-.09-.36-.36-.27-.6l5.63-14.87c1.7-4.69 6.65-20.93 1.86-22.42-5.58-1.74-9.05 9.98-10.02 15.63-.09.52-.85.51-.93-.01-.87-6.18-4.86-26.89-10.81-25.12-6.04 1.8.55 23.52 2.66 29.48a.47.47 0 0 1-.28.59.47.47 0 0 1-.6-.26c-2.07-5.14-10.24-22.89-15.11-20.23-4.9 2.67 4.9 19.81 7.89 24.5a.47.47 0 0 1-.11.62c-.19.15-.46.13-.63-.05-3-3.15-8.97-7.62-11.52-4.08-3.61 5 10.79 13.3 16.31 15.97a.47.47 0 0 1-.2.89H89.99a.47.47 0 0 1 0-.94h18.11c-6.07-3.2-18.93-10.92-14.92-16.47 2.53-3.5 7.18-.96 10.54 1.78-3.1-5.3-11.26-20.1-5.86-23.05 4.78-2.6 10.84 8.85 13.27 13.75-1.68-5.98-5.73-21.62.24-23.4 6.67-1.99 10.43 16.53 11.61 23.38 1.44-6.03 4.81-15.7 10.7-13.87 5.73 1.78.75 18.07-1.26 23.65l-5.63 14.88c-.09.24-.36.36-.6.27z"/><path d="M118.95 221.38s-9.23-4.51-7.02-8.33c2.21-3.83 6.29 1.83 6.29 1.83s-.51-10.25 3.49-10.97 4.25 8.74 4.25 8.74 2.59-8.53 6.25-7.59-1.74 10.67-1.74 10.67 5.99-2.9 7.23-1.4c1.15 1.38-1.57 3.7-1.57 3.7s7.06-1.11 5.19 3.36h-22.37zm-13.72-13.37c-10.34-14.83-23.79-22.84-33.26-26.95a.47.47 0 0 1 .38-.86c9.58 4.16 23.19 12.27 33.65 27.28a.46.46 0 0 1-.12.65c-.21.15-.51.09-.65-.12z"/><path d="M81.32 184.45c-.93 2.53-4.97 3.36-9.03 1.87-4.05-1.5-6.58-4.76-5.65-7.29.93-2.52 4.97-3.36 9.03-1.86 4.05 1.5 6.58 4.76 5.65 7.28zm46.46-18.12c2.37 1.27 5.95-.78 8-4.59 2.04-3.81 1.77-7.93-.6-9.2s-5.95.78-7.99 4.59-1.77 7.93.6 9.2z"/><path d="M122.45 198.81c-1.9-26.35 11.69-45.11 11.82-45.3.15-.21.45-.25.66-.1s.25.45.1.66c-.14.18-13.52 18.69-11.64 44.68a.47.47 0 0 1-.43.5.47.47 0 0 1-.5-.43z"/></g><path d="m265.13,197.44c.3.07.6-.13.67-.43l.68-3.16c.07-.3-.13-.6-.43-.67s-.6.13-.67.43l-.68,3.16c-.07.3.13.6.43.67Z" fill="#0d99ff"/><path d="M293.1 93.09l-4.42 20.45-5.15 23.82-5.59 25.84a127.28 127.28 0 0 1-10.93 30.76l-2.16-.47-.12-4.34a127.87 127.87 0 0 1 2.87-28.19l5.59-25.84 5.15-23.82 4.42-20.45c.21-.96 1.15-1.56 2.1-1.36l6.87 1.49c.96.21 1.56 1.15 1.36 2.1z" fill="#1f4168"/><path d="M285.98 89.74l4.66 1.01 1.09-5.03c.28-1.29-.54-2.55-1.83-2.83h0c-1.29-.28-2.55.54-2.83 1.83l-1.09 5.03zm-.48 50.09h0a1.51 1.51 0 0 0 1.78-1.12l9.22-39.2c.6-2.55-1.01-5.09-3.57-5.65h0l-1.09 5.03h0c1.23.34 1.98 1.58 1.7 2.82l-8.24 37.82c-.03.13.06.26.19.29z" fill="#0d99ff"/><path d="M265.28 175.98l8.57 1.85.03-.11-8.59-1.85-.01.11zm16.95-56.87a1.28 1.28 0 0 0 1.35-1l4.45-20.57a1.27 1.27 0 0 0-.97-1.51 1.27 1.27 0 0 0-1.51.97l-4.45 20.57a1.27 1.27 0 0 0 .97 1.51c.05.01.11.02.16.02z" fill="#fff"/><circle class="Q" cx="157.11" cy="70.74" r="29.75" opacity=".5" fill="#d1d1d1"/><circle cx="155.26" cy="68.89" r="29.75" fill="#fff"/><circle cx="155.26" cy="68.89" r="29.75" fill="url(#A)" opacity=".5"/><circle cx="155.26" cy="68.89" r="27.37" transform="matrix(.211666 -.977342 .977342 .211666 55.07 206.05)" fill="url(#B)"/><circle cx="155.26" cy="68.89" r="23.82" transform="matrix(.266902 -.963724 .963724 .266902 47.43 200.13)" fill="#fff"/><g fill="#28a6d1"><circle cx="155.26" cy="57.21" r="3.85" transform="matrix(.973259 -.22971 .22971 .973259 -8.99 37.2)"/><circle cx="155.26" cy="75.41" r="2.07" transform="matrix(.973259 -.22971 .22971 .973259 -13.17 37.69)"/><path d="M151.41 57.21l1.82 18.6 4.07-.09 1.81-18.51h-7.7z"/><circle cx="155.26" cy="81.93" r="2.49" transform="matrix(.973259 -.22971 .22971 .973259 -14.67 37.86)"/></g></g></svg>