<?xml version="1.0" encoding="utf-8"?>
<!-- Generator: Adobe Illustrator 25.0.0, SVG Export Plug-In . SVG Version: 6.00 Build 0)  -->
<svg version="1.1" id="Layer_1" xmlns="http://www.w3.org/2000/svg" xmlns:xlink="http://www.w3.org/1999/xlink" x="0px" y="0px"
	 viewBox="0 0 251 225" style="enable-background:new 0 0 251 225;" xml:space="preserve">
<style type="text/css">
	.st0{fill:#0D99FF;}
</style>
<g>
	<path class="st0" d="M216.7,101.3c0-1,0-2-0.2-3c-1-6.6-6.8-13-16.2-12.9c-12.4,0.2-24.9,0-37.3,0c-13,0-25.9,0-38.9,0
		c-0.9,0-2.4-0.5-2.4,1c-0.1,1.7,1.5,1.2,2.4,1.2c20,0,40.1,0,60.2,0c5.8,0,11.7-0.1,17.5,0c7.2,0.2,12.6,5.7,12.7,12.9
		c0.1,5.5,0.1,11,0.1,16.6c0,9.2,0,18.4,0,27.6c0,7.9,0,15.9,0,23.8c0,8.2-5.6,13.9-13.8,13.9c-6.8,0-13.6-0.1-20.4-0.1
		c-17.2,0-34.3,0-51.5,0c-3.1,0-5.9,0.8-8.6,2.3c-10.5,6.1-21,12.1-31.5,18.2c-2.8,1.6-4.6,0.5-4.6-2.7c0-3.8,0.1-7.5,0.1-11.3
		c0-4.1-2.3-6.5-6.5-6.5c-2.5,0-4.9,0.1-7.4,0.1c-8.4,0-14-5.6-14-14c0-14.6,0.1-29.3,0.1-43.9c0-5.1-0.1-10.2-0.2-15.3
		c0-0.6-0.4-1.5-0.8-1.6c-1.1-0.2-1.2,0.7-1.2,1.6c0,3.9,0,7.7,0,11.6c0,16,0,32.1,0,48.1c0,9,6.6,15.6,15.7,15.6
		c2.5,0,5,0.1,7.6,0.1c3.1,0,4.4,1.3,4.4,4.4c0,3.9,0.1,7.8,0.1,11.7c0,2.7,1.7,4.7,4.2,4.8c1.1,0,2.3-0.3,3.3-0.9
		c10.5-5.9,21.1-11.9,31.6-18c2.5-1.4,5.1-2.1,8-2.1c23.9,0,47.7,0,71.6-0.1c9.2,0,15.8-6.5,15.8-15.8c0-10.8,0.1-21.5,0.1-32.3
		C216.8,124.8,216.8,113,216.7,101.3z"/>
	<path class="st0" d="M61.2,87c2.7-0.9,5.4-1.8,8.1-2.5c10.5-2.7,21-4,31.7-0.7c4.4,1.4,8.3-0.8,10.4-4.9c1.4-2.8,1.9-5.8,1.7-8.9
		c-0.7-12.5-5.4-23.4-14-32.6c-2.5-2.6-5.3-4.8-8.8-6.1c-5.4-2-9.8,0-12.4,5.2c-1.6,3.3-3.6,6.5-5.9,9.3c-6,7.5-13.6,13.1-21.8,18
		c-5.9,3.5-8.1,10.5-5.3,16.6C48,86.4,54.7,89.1,61.2,87z M80.2,37c1.4-3.7,4.8-5.2,8.6-4.1c2.9,0.8,5.3,2.4,7.4,4.4
		c9.1,8.8,14.1,19.5,14.8,32c0.2,2.6-0.5,5.5-1.4,8c-1.4,4-4.9,5.6-8.8,4c-2.8-1.1-5.6-2.7-7.7-4.8c-8.9-8.7-13.5-19.5-14.5-32.8
		C78.9,42,79.3,39.4,80.2,37z M46.1,76.2c-0.6-4.6,1.3-8.2,5.2-10.6c6.4-3.9,12.5-8.1,17.8-13.4c2.6-2.6,5-5.5,7.5-8.3
		c0.6,13.9,6.2,25.7,16.6,36c-3.5,0-6.6-0.2-9.7,0c-7.6,0.5-15,2.3-22.2,4.8c-2.4,0.9-4.9,1.3-7.4,0.5
		C49.4,83.9,46.7,80.9,46.1,76.2z"/>
	<path class="st0" d="M78.9,97.1c-2.1-1.8-4.2-3.7-6-5.8c-3-3.6-2.9-3.7-7.2-2c-0.3,0.1-0.6,0.2-0.9,0.4c-1.3,0.5-1.6,1.5-1.2,2.7
		c0.3,0.7,0.6,1.5,1.1,2.1c2.3,2.6,4.7,5.1,7.2,7.5c0.5,0.5,1.4,0.7,2.4,1.1c1.5-0.7,3.2-1.3,4.6-2.2C80.7,99.8,80.5,98.6,78.9,97.1
		z M71.8,99c-1.9-1.8-3.7-3.7-5.4-5.7c-0.4-0.4-0.6-1-1-1.6c0.3-0.2,0.5-0.3,0.6-0.4c3.1-1.3,3-1.2,5.1,1.2c2,2.3,4.2,4.4,6.3,6.6
		C75.2,101.1,73.9,101.1,71.8,99z"/>
	<path class="st0" d="M133.4,62.7c-2.9,0-5.8,0-8.7,0c-0.6,0-1.6,0.5-1.7,0.9c-0.2,1.1,0.7,1.1,1.5,1.1c5.9,0.2,11.8,0.4,17.7,0.5
		c0.5,0,1.5-0.5,1.5-0.9c0.2-1-0.8-1.1-1.5-1.1c-2.9,0-5.9,0-8.8,0C133.4,63,133.4,62.8,133.4,62.7z"/>
	<path class="st0" d="M124.2,21.3c0.3-0.3,0.5-0.7,0.8-1.1c-0.2-0.3-0.5-0.9-0.7-0.9c-0.5,0-1.2,0.2-1.5,0.5c-4,4.4-8,8.9-11.9,13.4
		c-0.3,0.4-0.2,1.2-0.2,1.8c0.6-0.2,1.4-0.1,1.7-0.5C116.3,30.2,120.3,25.8,124.2,21.3z"/>
	<path class="st0" d="M117.7,48.9c0.5,0.2,1.2,0.6,1.6,0.4c5.6-2.4,11.2-4.8,16.8-7.2c0.4-0.2,0.7-0.6,1-0.8c-0.3-1.3-1-1.4-1.8-1
		c-5.5,2.4-11.1,4.8-16.6,7.2C118.2,47.7,118,48.4,117.7,48.9z"/>
	<path class="st0" d="M99.9,59.6c0-6-4.7-9.9-9.9-8.9c-1.7,0.4-3.4,0.8-5.1,1.3c-0.5,0.1-0.8,0.8-1.2,1.2c0.6,0.2,1.1,0.8,1.6,0.7
		c1.5-0.2,3-0.7,4.5-1.1c3.2-0.8,6.1,0.6,7.4,3.4C98.5,59,97.7,62,95,64c-1.3,0.9-2.6,1.7-3.8,2.7c-0.3,0.3-0.4,1-0.5,1.5
		c0.6,0.1,1.3,0.4,1.6,0.1c1.6-1,3.1-2,4.6-3.2C98.9,63.5,99.8,61.3,99.9,59.6z"/>
	<path class="st0" d="M89.7,38.9c4.6,3.6,8.7,7.6,11.3,12.9c0.4,0.8,0.6,1.6,1,2.4c0.2,0.3,0.8,0.6,1.2,0.5c0.3-0.1,0.6-0.6,0.8-0.9
		c-0.2-0.6-0.3-1-0.5-1.4c-2.7-6.7-7.6-11.5-13.3-15.7c-0.1-0.1-0.2-0.2-0.3-0.2c-0.5,0.1-0.9,0.2-1.4,0.3c0.1,0.5,0.1,1,0.3,1.4
		C89,38.6,89.4,38.7,89.7,38.9z"/>
	<path class="st0" d="M73.9,54.8c0.3-0.3,0.1-1.2,0.1-1.8c-0.5,0.2-1.3,0.1-1.6,0.5C68.3,58.4,63,62,57.6,65.4
		c-2.2,1.4-4.6,2.7-6.9,4.1c-0.4,0.2-0.7,0.9-0.8,1.4c-0.1,0.4,0.3,0.8,0.4,1.2c0.2-0.1,0.3-0.3,0.5-0.4c0.3-0.2,0.7-0.3,1-0.5
		c5.5-3.6,11-7.1,16.4-10.9C70.4,58.8,72.1,56.7,73.9,54.8z"/>
	<path class="st0" d="M87.1,108.9c1.9,0,2.9,1.6,3,4.8l4.4-0.3c-0.4-5.6-2.9-8.4-7.4-8.4c-2.7,0-4.8,1-6.2,3c-1.4,2-2.1,4.7-2.1,8.2
		c0,3.5,0.7,6.2,2.1,8.2c1.4,2,3.4,3,6.1,3c2.2,0,4-0.7,5.3-2.2c1.3-1.5,2.1-3.4,2.2-5.7l-4.4-0.3c-0.3,2.9-1.3,4.4-3.1,4.4
		c-1.1,0-1.9-0.5-2.4-1.5c-0.5-1-0.8-2.8-0.8-5.5c0-3,0.3-5,0.9-6C85.4,109.4,86.1,108.9,87.1,108.9z"/>
	<path class="st0" d="M112.3,116.2c0-3.7-0.7-6.5-2-8.4c-1.3-1.9-3.3-2.8-5.9-2.8c-5.2,0-7.9,3.7-7.9,11.2c0,3.7,0.7,6.4,2,8.3
		c1.3,1.9,3.3,2.9,5.9,2.9C109.7,127.4,112.3,123.7,112.3,116.2z M102.3,122c-0.4-1-0.7-2.9-0.7-5.8c0-2.9,0.2-4.9,0.7-5.8
		c0.5-1,1.2-1.5,2.2-1.5c1,0,1.7,0.5,2.2,1.5c0.5,1,0.7,2.9,0.7,5.8c0,2.9-0.2,4.9-0.7,5.9c-0.5,1-1.2,1.4-2.2,1.4
		C103.5,123.5,102.7,123,102.3,122z"/>
	<polygon class="st0" points="125.7,118.8 122.7,105.4 115.7,105.4 115.7,127.1 119.5,127.1 119.5,108.9 123.6,127.1 127.1,127.1 
		131.5,108.9 131.5,127.1 135.9,127.1 135.9,105.4 129.2,105.4 	"/>
	<rect x="140" y="105.4" class="st0" width="4.8" height="21.7"/>
	<polygon class="st0" points="159.6,118.8 154,105.4 148.7,105.4 148.7,127.1 152.4,127.1 152.4,111.4 159,127.1 163.3,127.1 
		163.3,105.4 159.6,105.4 	"/>
	<path class="st0" d="M175,108.9c1.8,0,2.8,1.4,3.1,4.3l4.3-0.7c-0.5-5-3-7.4-7.5-7.4c-2.8,0-4.9,1-6.3,3.1
		c-1.4,2.1-2.1,4.9-2.1,8.5c0,3.3,0.7,5.9,2.2,7.8c1.4,1.9,3.4,2.9,5.9,2.9c2.3,0,4.1-0.9,5.2-2.8l0.6,2.5h2v-11.6h-7.5v3.7h3.2
		c0,2.9-1,4.3-2.9,4.3c-1.2,0-2.1-0.5-2.7-1.6c-0.6-1.1-0.9-2.9-0.9-5.5c0-2.9,0.3-4.9,1-6S173.9,108.9,175,108.9z"/>
	<path class="st0" d="M89.4,168.7c3.4,0,6.2-1,8.2-2.9c2-1.9,3.1-4.3,3.1-7.3c0-1.7-0.4-3.2-1.1-4.5c-0.7-1.3-1.7-2.3-2.8-3
		c-1.2-0.7-2.8-1.5-4.8-2.3c-2.3-0.9-3.7-1.6-4.4-2.1c-0.7-0.5-1.1-1.3-1.1-2.2c0-0.8,0.3-1.5,0.9-2c0.6-0.6,1.4-0.9,2.4-0.9
		c2.2,0,3.7,1.3,4.5,3.9l5.8-2.2c-1.4-4.9-4.8-7.4-10.3-7.4c-3,0-5.5,0.9-7.3,2.7c-1.8,1.8-2.8,4.2-2.8,7c0,1.7,0.4,3.2,1.2,4.5
		c0.8,1.3,1.8,2.3,3,3c1.2,0.7,3,1.5,5.4,2.4c1.9,0.7,3.1,1.3,3.6,1.9c0.5,0.6,0.8,1.3,0.8,2.1c0,1-0.4,1.9-1.1,2.5
		c-0.8,0.6-1.7,0.9-2.9,0.9c-2.7,0-4.4-1.6-5.1-4.8l-6.1,1.7C80,165.8,83.6,168.7,89.4,168.7z"/>
	<path class="st0" d="M115.4,168.7c7.7,0,11.5-5.5,11.5-16.4c0-5.5-1-9.5-3-12.3c-2-2.7-4.8-4.1-8.6-4.1c-7.7,0-11.5,5.5-11.5,16.4
		c0,5.4,1,9.4,2.9,12.2C108.7,167.3,111.6,168.7,115.4,168.7z M112.2,143.8c0.7-1.4,1.7-2.1,3.2-2.1c1.5,0,2.5,0.7,3.2,2.1
		c0.7,1.4,1,4.3,1,8.6c0,4.3-0.3,7.2-1,8.6c-0.7,1.4-1.7,2.1-3.2,2.1c-1.5,0-2.5-0.7-3.2-2.2c-0.7-1.5-1-4.3-1-8.5
		C111.2,148.1,111.5,145.2,112.2,143.8z"/>
	<path class="st0" d="M130.6,152.3c0,5.4,1,9.4,2.9,12.2c1.9,2.8,4.8,4.2,8.6,4.2c7.7,0,11.5-5.5,11.5-16.4c0-5.5-1-9.5-3-12.3
		c-2-2.7-4.8-4.1-8.6-4.1C134.5,136,130.6,141.4,130.6,152.3z M139,143.8c0.7-1.4,1.7-2.1,3.2-2.1c1.5,0,2.5,0.7,3.2,2.1
		c0.7,1.4,1,4.3,1,8.6c0,4.3-0.3,7.2-1,8.6c-0.7,1.4-1.7,2.1-3.2,2.1c-1.5,0-2.5-0.7-3.2-2.2c-0.7-1.5-1-4.3-1-8.5
		C138,148.1,138.3,145.2,139,143.8z"/>
	<polygon class="st0" points="158.3,136.5 158.3,136.5 158.3,168.2 163.7,168.2 163.7,145.2 173.4,168.2 179.7,168.2 179.7,136.5 
		174.3,136.5 174.3,156.2 166.1,136.5 	"/>
</g>
</svg>
