<svg xmlns="http://www.w3.org/2000/svg" viewBox="0 0 400 250" xmlns:v="https://vecta.io/nano"><defs><linearGradient id="A" x1="199.42" y1="25.7" x2="200.95" y2="287.12" gradientUnits="userSpaceOnUse"><stop offset="0" stop-color="#f2f2f2"/><stop offset="1" stop-color="#efefef"/></linearGradient><linearGradient id="B" x1="234.81" y1="94.09" x2="234.81" y2="207.83" gradientUnits="userSpaceOnUse"><stop offset="0" stop-color="#fff"/><stop offset=".72" stop-color="#fafafa"/></linearGradient></defs><path d="M200 198.82c41.11 0 74.44-33.33 74.44-74.44S241.11 49.94 200 49.94s-74.44 33.33-74.44 74.44 33.33 74.44 74.44 74.44z" fill="url(#A)"/><path d="m194.09,94.09h81.45c7.78,0,14.08,5.26,14.08,11.74v90.27c0,6.48-6.31,11.74-14.08,11.74h-81.45c-7.78,0-14.08-5.26-14.08-11.74v-90.27c0-6.48,6.31-11.74,14.08-11.74Z" fill="url(#B)"/><path d="M285.7 60.75h-37.27c-1.74 0-3.14 1.48-3.14 3.31V82.5c0 1.83 1.41 3.31 3.14 3.31h37.27c1.74 0 3.14-1.48 3.14-3.31V64.06c0-1.83-1.41-3.31-3.14-3.31z" fill="#fff"/><path d="m254.59,77.23c2.06,0,3.72-1.67,3.72-3.72s-1.67-3.72-3.72-3.72-3.72,1.67-3.72,3.72,1.67,3.72,3.72,3.72Z" fill="#ccc6d9"/><path d="M267 69.79h12.41a3.72 3.72 0 0 1 3.72 3.72h0a3.72 3.72 0 0 1-3.72 3.72H267a3.72 3.72 0 0 1-3.72-3.72h0a3.72 3.72 0 0 1 3.72-3.72z" fill="#d5d5d5"/><path d="m161.35,90.13c-.01-.88-.12-1.78-.34-2.68-.78-3.15-4.25-5.18-7.95-5.65-3.69-.48-7.54.61-9.02,3.35-.85,1.57-.96,2.92-.62,4.06.34,1.13,1.16,2.07,2.27,2.81,3.09,2.04,8.51,2.46,10.99,1.6,1.14-.4,2.26-.87,3.35-1.42-.62,3.56-2.94,6.94-6.03,9.98-6.72,6.61-17.15,11.63-22.83,13.48-.31.1-.47.44-.38.76.09.32.42.5.72.4,5.79-1.88,16.43-7.01,23.28-13.75,3.54-3.48,6.06-7.41,6.5-11.53,8.01-4.47,14.58-12.57,20.2-19.39.21-.25.18-.63-.06-.85-.24-.22-.61-.19-.82.06-5.39,6.54-11.65,14.32-19.26,18.77Zm-1.16.65c.04-.99-.05-2-.3-3.02-.67-2.73-3.77-4.34-6.97-4.75-1.96-.25-3.98-.04-5.56.69-.99.46-1.81,1.14-2.31,2.05-.65,1.2-.79,2.23-.52,3.1.27.88.93,1.58,1.79,2.15,2.82,1.86,7.75,2.25,10,1.48,1.33-.46,2.62-1.03,3.87-1.69Z" fill-rule="evenodd"/><circle cx="283.75" cy="146.09" r="3.72" fill="#e3e3e3"/><path d="M143.17 171.77c.66-.25 1.36-.58 1.9-1.06.64-.57.9-1.3 1.08-2.07l.59-3.04c.1-.37.29-.51.38-.57.21-.16.42-.2.62-.18.24.02.56.11.78.53a1.22 1.22 0 0 1 .1.28c.02.09.03.38.05.5l.14.87c.13.97.21 1.8.64 2.69.58 1.21 1.16 1.96 1.94 2.29.76.32 1.67.26 2.83 0a3.88 3.88 0 0 1 .33-.07c.51-.09 1 .26 1.1.8s-.22 1.06-.73 1.17l-.31.07c-1.57.41-3.38 1.86-4.43 3.14-.32.39-.8 1.49-1.29 2.19-.36.52-.76.86-1.1.98a.95.95 0 0 1-.57.03.99.99 0 0 1-.57-.4c-.08-.11-.15-.27-.19-.46-.02-.09-.02-.33-.02-.44l-.31-1.07c-.21-.86-.62-1.41-1.11-2.13-.46-.67-.95-1.1-1.67-1.44-.09-.02-.85-.22-1.12-.33-.39-.16-.58-.44-.65-.59-.11-.25-.13-.47-.1-.65.03-.27.15-.5.35-.69.13-.12.32-.23.57-.28a7.28 7.28 0 0 1 .79-.07zm4.45-1.4a2.72 2.72 0 0 0 .11.25c.85 1.78 1.79 2.77 2.94 3.25l.04.02c-.77.6-1.47 1.27-2 1.92-.22.27-.51.82-.82 1.38-.28-.97-.75-1.66-1.34-2.52a6.02 6.02 0 0 0-1.49-1.56c.45-.24.87-.52 1.25-.85.62-.55 1.03-1.19 1.31-1.88z" fill="#ccc6d9" fill-rule="evenodd"/><path d="M246.89 162.62c0-5.21-2.06-9.94-5.46-13.34-2.06-2.06-4.73-3.76-7.52-4.61 1.46-1.46 2.3-3.4 2.3-5.58v-2.55c0-4.37-3.64-8-8-8h0c-4.37 0-8 3.64-8 8v2.55a7.82 7.82 0 0 0 2.3 5.58 18.83 18.83 0 0 0-13.1 17.95 1.66 1.66 0 0 0 1.7 1.7h34.32c.73-.12 1.46-.85 1.46-1.7zm-23.52-23.52v-2.67c0-2.55 2.06-4.61 4.73-4.61h0c2.55 0 4.61 2.06 4.61 4.73v2.55c0 2.55-2.06 4.73-4.73 4.73h0c-2.55-.12-4.61-2.18-4.61-4.73zm-10.79 21.83c.73-7.28 6.55-12.97 13.82-13.7v5.7a1.7 1.7 0 1 0 3.4 0v-5.7c7.15.85 12.97 6.55 13.7 13.7h-30.92zm27.4 10.55a1.66 1.66 0 0 0-1.7-1.7h-20.61a1.7 1.7 0 1 0 0 3.4h20.61a1.66 1.66 0 0 0 1.7-1.7zm36.62-3.04c-2.06-2.18-4.49-3.76-7.28-4.85v-49.96c0-4.49-3.64-8-8-8h-57.96c-4.49 0-8 3.64-8 8v.61h-2.3c-2.79.12-4.97 2.43-5.21 5.21a5.36 5.36 0 0 0 1.33 4c.97 1.09 2.3 1.7 3.88 1.82h2.3v15.76h-2.3c-2.79.12-4.97 2.43-5.21 5.21a5.36 5.36 0 0 0 1.33 4c.97 1.09 2.3 1.7 3.88 1.82h2.3v15.76h-2.3c-2.79.12-4.97 2.43-5.21 5.21a5.36 5.36 0 0 0 1.33 4c.97 1.09 2.3 1.7 3.88 1.82h2.3v.61c0 2.18.85 4.12 2.3 5.7 1.46 1.46 3.52 2.3 5.7 2.3h41.11c1.21 3.88 3.64 7.28 6.79 9.7 3.15 2.43 7.15 3.76 11.4 3.76s8.25-1.46 11.4-3.76c.85-.61 1.7-1.46 2.55-2.3 3.15-3.4 5.21-8 5.21-13.1s-1.94-9.94-5.21-13.34zm-15.16-59.54c2.55 0 4.73 2.06 4.73 4.73v49.11c-1.09-.24-2.18-.24-3.27-.24-.61 0-1.33 0-1.94.12v-27.65c0-.24 0-.49-.12-.61v-20.61c0-1.82-.61-3.4-1.58-4.73h2.18v-.12zm-68.15 12.85c-.61 0-1.09-.24-1.46-.73-.36-.49-.61-.97-.49-1.58 0-1.09.97-1.94 1.94-2.06h7.76c.61 0 1.09.12 1.58.61.36.36.73.97.73 1.46 0 .61-.12 1.09-.61 1.58a1.88 1.88 0 0 1-1.46.73h-8zm0 26.8c-.61 0-1.09-.24-1.46-.73-.36-.49-.61-.97-.49-1.58 0-1.09.97-1.94 1.94-2.06h7.76c.61 0 1.09.12 1.58.61.36.36.73.97.73 1.46 0 .61-.12 1.09-.61 1.58-.36.36-.97.73-1.46.73h-8zm3.88 26.68h-3.88c-.61 0-1.09-.24-1.46-.73-.36-.49-.61-.97-.49-1.58 0-1.09.97-1.94 1.94-2.06h7.76c1.21-.12 2.18.85 2.3 2.06 0 .61-.12 1.09-.61 1.58a1.88 1.88 0 0 1-1.46.73h-4.12zm46.68 8.73h-40.5v-.12c-1.21 0-2.43-.49-3.27-1.33s-1.33-2.06-1.33-3.27v-.61h2.55c1.46-.12 2.79-.73 3.76-1.82s1.46-2.55 1.33-4c-.12-3.03-2.79-5.34-5.7-5.21h-2.18v-15.76h2.55c1.46-.12 2.79-.73 3.76-1.82s1.46-2.55 1.33-4-.73-2.79-1.82-3.76-2.55-1.46-3.88-1.33h-2.18v-15.76h2.55c3.03-.12 5.34-2.79 5.21-5.82-.12-1.46-.73-2.79-1.82-3.76s-2.55-1.46-3.88-1.33h-2.18v-.61c0-2.55 2.06-4.73 4.73-4.73h49.84c2.55 0 4.73 2.06 4.73 4.73v25.59c0 .24 0 .49.12.61v23.52c-8 2.3-13.82 9.7-13.82 18.31 0 .73 0 1.58.12 2.3zm18.92 12.61c-6.31-.24-11.64-4-13.82-9.46-.49-1.09-.73-2.18-.97-3.27-.12-.73-.12-1.46-.12-2.3 0-6.31 4-11.76 9.58-13.82 1.09-.36 2.18-.73 3.4-.85.61-.12 1.33-.12 1.94-.12 1.09 0 2.3.12 3.27.36 1.21.24 2.3.61 3.4 1.21 3.27 1.7 5.94 4.61 7.28 8.12.61 1.58.97 3.4.97 5.21s-.36 3.64-.97 5.21c-2.18 5.58-7.52 9.7-13.94 9.7zm-1.57-14.06c0 .36.12.85.24 1.21 0 .12.12.24.12.49.24.36.61.61 1.09.73.36 0 .85-.36 1.09-.61.12-.24.24-.61.24-.85v-.49l.73-7.76c0-.61-.12-1.21-.36-1.82-.12-.36-.49-.73-.97-.97-1.33-.61-2.55.36-2.67 1.94v.85l.49 7.28zm1.69 4.49h-.24c-.24 0-.36 0-.61.12h0c-.73.24-1.33.97-1.33 1.7 0 1.09.85 1.94 1.82 1.94h.12c1.09 0 1.94-.85 1.94-1.94v-.12a1.66 1.66 0 0 0-1.7-1.7z" fill="#0d99ff"/></svg>