<svg xmlns="http://www.w3.org/2000/svg" viewBox="0 0 400 250" xmlns:v="https://vecta.io/nano"><style>.A{isolation:isolate}.H{mix-blend-mode:multiply}</style><defs><linearGradient id="A" x1="116.21" y1="120.19" x2="277.46" y2="120.19" gradientUnits="userSpaceOnUse"><stop offset="0" stop-color="#78a7ff"/><stop offset="1" stop-color="#3d79f3"/></linearGradient><linearGradient id="B" x1="92.59" y1="183.76" x2="152.08" y2="183.76" gradientUnits="userSpaceOnUse"><stop offset=".05" stop-color="#fff"/></linearGradient><linearGradient id="C" x1="116.536" y1="157.014" x2="128.12" y2="210.504" gradientUnits="userSpaceOnUse"><stop offset=".36" stop-color="#78c7ee"/><stop offset=".97" stop-color="#009bdd"/></linearGradient></defs><g class="A"><path d="m299.78,32.26c-3.93,0-7.13-3.2-7.13-7.13s3.2-7.13,7.13-7.13,7.13,3.2,7.13,7.13-3.2,7.13-7.13,7.13Zm0-13.03c-3.25,0-5.9,2.65-5.9,5.9s2.65,5.9,5.9,5.9,5.9-2.65,5.9-5.9-2.65-5.9-5.9-5.9Z" fill="#39f"/><path d="m103.64,42.48c-.15,1.83-1.76,3.19-3.59,3.03-1.83-.15-3.19-1.76-3.03-3.59.15-1.83,1.76-3.19,3.59-3.03,1.83.15,3.19,1.76,3.03,3.59Z" fill="#d6a184"/><path d="M81.57 69.32c-1.34-.33-2.54-1.07-3.45-2.15a6.56 6.56 0 0 1-1.54-4.82c.31-3.63 3.51-6.34 7.15-6.04a6.63 6.63 0 0 1 6.04 7.15 6.63 6.63 0 0 1-7.15 6.04c-.36-.03-.71-.09-1.05-.17zm2.9-11.65c-.27-.07-.56-.11-.85-.14-2.96-.25-5.57 1.96-5.82 4.91-.12 1.43.32 2.83 1.25 3.93s2.23 1.77 3.66 1.89c2.96.25 5.57-1.96 5.82-4.92a5.4 5.4 0 0 0-4.07-5.68z" fill="#39f"/><path d="M119.05 234.33a3.75 3.75 0 1 1 0-7.5 3.75 3.75 0 1 1 0 7.5zm0-6.52a2.77 2.77 0 1 0 0 5.54 2.77 2.77 0 1 0 0-5.54z" fill="#d6a184"/><path d="M129.5 68.11c-15.93 12-29.28 26.54-34.21 44.19-6.21 22.24 1.1 46.39 15.48 64.42 26.58 33.32 77.75 46 118.66 29.39 41.29-16.76 65.05-61.51 70.41-102.31 2.21-16.82-.2-34.62-9.77-48.65-11.58-16.99-32.69-26.63-53.95-27.97s-42.6 4.86-61.69 14.35c-14.25 7.09-30.63 15.81-44.93 26.58z" fill="#e2f1ff"/><g fill="#39f"><path d="M232.16 238a.42.42 0 0 1-.45-.37c-.03-.23.14-.44.37-.47a5.82 5.82 0 0 0 1.93-.57c.21-.1.46-.02.56.19s.02.46-.19.56c-.68.34-1.42.55-2.2.65h-.02zm3.79-1.88a.48.48 0 0 1-.32-.11c-.17-.16-.18-.42-.02-.59s.31-.35.45-.53a13.21 13.21 0 0 1 .96-1.11c.16-.16.43-.17.59 0 .17.16.17.43 0 .59-.31.31-.61.66-.89 1.03-.16.21-.33.41-.51.6-.07.08-.17.12-.27.13zm3.07-3.01c-.15.01-.3-.06-.38-.19a.42.42 0 0 1 .12-.58c.54-.35 1.1-.64 1.69-.86l.35-.12c.22-.07.46.05.53.26.07.22-.05.46-.26.53l-.31.11c-.53.2-1.04.47-1.53.78a.48.48 0 0 1-.2.07zm6.22-1.26h-.05c-.17 0-.34-.02-.53-.03l-1.59-.04c-.23.01-.43-.17-.44-.4s.17-.43.4-.44c.62-.03 1.19 0 1.69.04l.51.03c.23.01.41.21.4.44 0 .21-.18.38-.39.4zm2.14-.2a.43.43 0 0 1-.44-.32c-.06-.22.08-.45.31-.51.65-.16 1.27-.41 1.88-.77a.41.41 0 0 1 .42.72c-.68.4-1.37.68-2.1.86a.17.17 0 0 0-.07.01zm3.72-2.1c-.12 0-.25-.04-.34-.14-.16-.17-.14-.44.03-.59.46-.42.94-.91 1.47-1.52.15-.17.42-.19.59-.04s.19.42.04.59c-.55.63-1.05 1.15-1.54 1.58-.07.07-.16.1-.25.11zm2.89-3.21c-.1 0-.21-.02-.29-.09-.18-.15-.21-.41-.06-.59l.1-.13 1.28-1.55c.15-.18.42-.2.59-.05.18.15.2.42.05.59l-1.26 1.53-.1.13c-.08.09-.18.15-.29.15zm28.33-4.02c-.61.04-1.25.04-1.89 0a.43.43 0 0 1-.39-.45.43.43 0 0 1 .45-.39c.71.05 1.41.04 2.09-.02.24-.02.43.15.46.38.02.23-.14.44-.37.46l-.34.03zm-7.93.53c-.56.04-1.09.04-1.63 0-.23-.02-.4-.22-.38-.45s.22-.4.45-.38c.5.04.99.04 1.51 0l.57-.06c.24-.02.44.14.47.37s-.14.44-.37.47l-.61.06zm10.37-.99a.42.42 0 0 1-.43-.29c-.07-.22.05-.46.27-.53.44-.14.86-.32 1.24-.52l.62-.35c.2-.12.46-.06.58.14s.06.46-.14.58l-.67.38c-.43.23-.89.42-1.37.58-.03.01-.07.02-.1.02zm-7.66.53a.41.41 0 0 1-.43-.31c-.05-.19.03-.38.19-.47l-.75-.27c-.22-.08-.32-.33-.24-.54.08-.22.33-.32.54-.24.61.23 1.23.43 1.86.58l.66-.28c.21-.1.46 0 .56.2a.43.43 0 0 1-.2.56l-.7.3a.35.35 0 0 1-.22.08l-1.18.38c-.03 0-.05.01-.08.01zm-6.41.09s-.09 0-.14-.01c-.67-.17-1.31-.4-2.09-.74-.21-.09-.31-.34-.22-.55s.34-.31.55-.22c.74.32 1.35.54 1.97.7.22.06.36.29.3.51-.05.18-.2.3-.37.31zm-13.85.6c-.12 0-.24-.03-.33-.13-.16-.17-.16-.43 0-.59.58-.56 1.14-1.03 1.71-1.42.19-.13.45-.08.58.11s.08.45-.11.58c-.54.37-1.06.8-1.61 1.33-.07.07-.17.11-.26.12zm24.15-2.53c-.14.01-.28-.05-.37-.17a.42.42 0 0 1 .09-.59c.56-.41 1.08-.88 1.53-1.39.15-.17.42-.19.59-.03.17.15.19.42.03.59a10.5 10.5 0 0 1-1.67 1.51c-.07.05-.14.07-.22.08zm7.51-.82c-.14.01-.28-.05-.37-.17-.14-.19-.09-.45.09-.59l1.68-1.31c.18-.15.44-.13.59.05s.13.44-.05.59l-1.73 1.35c-.07.05-.14.07-.21.08zm-14.17.72c-.08 0-.16-.01-.23-.05l-1.13-.7-.72-.51a.42.42 0 1 1 .5-.68l.7.49 1.06.66c.2.11.27.37.16.57a.41.41 0 0 1-.34.21zm-7.64.41c-.06 0-.13 0-.19-.03-.75-.32-1.36-.51-1.96-.62a.42.42 0 1 1 .15-.83c.67.12 1.33.33 2.15.67.21.09.31.34.22.55-.06.15-.2.24-.36.25zm-6.29-.17a.42.42 0 0 1-.42-.27c-.08-.22.02-.46.24-.54.58-.23 1.19-.39 1.82-.5l.37-.05c.23-.03.44.14.47.37s-.14.44-.37.47a3.98 3.98 0 0 0-.34.05c-.56.09-1.12.24-1.65.45-.04.02-.08.02-.12.03zm31.41-3.74c-.12 0-.24-.03-.33-.13-.16-.17-.16-.43 0-.59l1.47-1.54c.15-.17.42-.19.59-.04s.19.42.04.59l-1.51 1.59c-.07.07-.17.11-.26.12zm-7.95.41c-.08 0-.17-.01-.25-.06-.2-.12-.26-.38-.14-.57.37-.61.66-1.24.87-1.88a.41.41 0 1 1 .79.27c-.23.69-.55 1.37-.95 2.04a.42.42 0 0 1-.33.2zm-12.96.49c-.12 0-.25-.04-.34-.13-.52-.57-.97-1.18-1.32-1.84-.11-.2-.03-.46.17-.57s.46-.03.57.17c.32.59.72 1.15 1.19 1.66.16.17.15.44-.02.59-.07.07-.16.1-.25.11zm23.87-4.05c-.12 0-.24-.03-.33-.13-.16-.17-.15-.43.02-.59l1.67-1.43c.18-.14.45-.11.59.07s.11.45-.07.59l-1.61 1.38c-.07.07-.16.11-.26.11zm-9.56-.51h-.06a.43.43 0 0 1-.39-.45 6.98 6.98 0 0 0 0-1.12l-.09-.71-.04-.21c-.05-.23.1-.45.33-.49s.45.1.49.33c.02.08.03.16.04.24l.09.78c.03.41.03.83 0 1.24-.02.21-.18.37-.39.39zm-16.33.79a.43.43 0 0 1-.44-.32c-.13-.51-.21-1.02-.25-1.53-.02-.24-.02-.48-.02-.72a.41.41 0 0 1 .84.02l.02.65c.03.46.11.92.22 1.38.06.22-.08.45-.3.51-.02 0-.05 0-.07.01zm29.27-2.97a.4.4 0 0 1-.37-.18c-.13-.19-.09-.45.1-.58l1.81-1.21a.42.42 0 0 1 .58.12.42.42 0 0 1-.12.58l-1.78 1.2c-.06.04-.14.07-.21.07zm3.63-2.35c-.15.01-.3-.06-.39-.2-.12-.2-.06-.46.14-.58l1.86-1.11a.41.41 0 0 1 .42.72l-1.85 1.11a.33.33 0 0 1-.19.06zm-17.4.35c-.16.01-.33-.07-.41-.23a7.9 7.9 0 0 0-1.14-1.7c-.15-.17-.13-.44.04-.59s.44-.13.59.04c.49.56.92 1.21 1.26 1.88.1.21.02.46-.19.56a.42.42 0 0 1-.16.04zm-15.41.71c-.05 0-.11 0-.16-.02-.22-.07-.34-.31-.27-.53l.09-.25c.23-.63.55-1.23.95-1.79a.42.42 0 0 1 .58-.1.42.42 0 0 1 .1.58c-.35.49-.64 1.02-.84 1.58-.03.07-.05.15-.08.22-.05.17-.2.28-.37.29zm36.52-3.29c-.15.01-.29-.06-.38-.19a.42.42 0 0 1 .12-.58 10.49 10.49 0 0 0 1.62-1.3c.17-.16.43-.16.59.01s.16.43-.01.59a11.48 11.48 0 0 1-1.74 1.4.48.48 0 0 1-.2.07zm-23.93-.63a.41.41 0 0 1-.26-.07c-.56-.37-1.18-.67-1.85-.89a.41.41 0 0 1 .27-.79c.73.24 1.42.57 2.04.98a.42.42 0 0 1 .12.58c-.07.11-.19.18-.32.19zm-10.12.45c-.13 0-.27-.05-.36-.16-.14-.18-.11-.45.07-.59.58-.46 1.24-.85 1.94-1.16.21-.09.46 0 .55.21s0 .46-.21.55c-.64.28-1.23.64-1.76 1.05-.07.05-.15.08-.23.09zm37.15-2.79a.46.46 0 0 1-.28-.08c-.19-.14-.22-.4-.09-.59a16.84 16.84 0 0 0 1.14-1.77c.11-.2.37-.28.57-.16.2.11.28.37.16.57-.37.67-.77 1.29-1.2 1.86-.08.1-.19.16-.31.17zm-31.09.97h-.07c-.62-.06-1.07-.03-1.19-.02h0c-.28.02-.56.06-.85.11a.42.42 0 1 1-.15-.83 7.64 7.64 0 0 1 .93-.12h0c.18-.01.66-.04 1.32.03.23.02.4.23.38.46-.02.21-.19.36-.39.38zm33.2-4.73c-.06 0-.13 0-.19-.03-.21-.09-.31-.34-.22-.55.27-.62.52-1.29.74-1.99.07-.22.31-.34.53-.27s.34.31.27.53l-.77 2.06c-.06.15-.2.24-.36.25zm1.36-4.1s-.09 0-.13-.01c-.22-.06-.36-.29-.3-.51l.47-2.08c.04-.23.26-.38.49-.33.23.04.38.26.33.49l-.48 2.13c-.05.18-.2.3-.38.31zm.84-4.24h-.09c-.23-.03-.39-.25-.35-.48l.09-.64c.03-.23.24-.39.47-.36s.39.24.36.47l-.09.65c-.03.2-.19.34-.38.36z"/><circle cx="312.29" cy="178.61" r="11.15"/></g><g fill="#fff"><path d="M313.03 175.61c-.08.08-.21.08-.29 0-.89-.89-2.33-.88-3.22 0-.08.08-.21.08-.29 0s-.08-.21 0-.29a2.7 2.7 0 0 1 3.81 0c.08.08.08.21 0 .29zm5.39 7.53l-2.92-2.92a5.17 5.17 0 0 0 .83-2.8 5.21 5.21 0 1 0-5.21 5.21 5.17 5.17 0 0 0 2.8-.83l2.92 2.92a1.117 1.117 0 1 0 1.58-1.58zm-7.3-2.15c-1.98 0-3.58-1.6-3.58-3.58s1.6-3.58 3.58-3.58 3.58 1.6 3.58 3.58-1.6 3.58-3.58 3.58z"/><rect x="123.48" y="40.47" width="146.72" height="159.45" rx="9.05" transform="matrix(.006981 -.999976 .999976 .006981 75.28 316.19)"/></g><path d="m266.34,194.5l-140.04-.97c-5.6-.04-10.13-4.63-10.09-10.23l.88-127.32c.04-5.6,4.63-10.13,10.23-10.09l140.04.97c5.6.04,10.13,4.63,10.09,10.23l-.88,127.32c-.04,5.6-4.63,10.13-10.23,10.09ZM127.33,46.81c-5.1-.04-9.27,4.08-9.31,9.18l-.88,127.32c-.04,5.1,4.08,9.27,9.18,9.31l140.04.97c5.1.04,9.27-4.08,9.31-9.18l.88-127.32c.04-5.1-4.08-9.27-9.18-9.31l-140.04-.97Z" fill="url(#A)"/><path d="m263.64,178.91l-133.36-.93c-1.5-.01-2.7-.77-2.7-1.69h0c0-.92,1.22-1.66,2.72-1.65l133.36.93c1.5.01,2.7.77,2.7,1.69h0c0,.92-1.22,1.66-2.72,1.65Z" opacity=".3" fill="#39f"/><circle cx="195.52" cy="99.11" r="39.29" fill="#e2f1ff"/><circle class="H" cx="124.19" cy="185.62" r="29.75" opacity=".5" fill="#d1d1d1"/><circle cx="122.33" cy="183.76" r="29.75" fill="#fff"/><circle cx="122.33" cy="183.76" r="29.75" fill="url(#B)" opacity=".5"/><circle cx="122.33" cy="183.76" r="27.37" transform="matrix(.211666 -.977342 .977342 .211666 -83.16 264.42)" fill="url(#C)"/><circle cx="122.33" cy="183.76" r="23.82" transform="matrix(.266902 -.963724 .963724 .266902 -87.41 252.6)" fill="#fff"/><g fill="#28a6d1"><circle cx="122.33" cy="172.08" r="3.85" transform="matrix(.973259 -.22971 .22971 .973259 -36.26 32.71)"/><circle cx="122.33" cy="190.28" r="2.07" transform="matrix(.973259 -.22971 .22971 .973259 -40.45 33.2)"/><path d="M118.48 172.08l1.83 18.6 4.07-.08 1.8-18.52h-7.7z"/><circle cx="122.33" cy="196.8" r="2.49" transform="matrix(.973259 -.22971 .22971 .973259 -41.94 33.37)"/></g><g fill="#39f"><path d="M215.92 118.26L215.88 87c0-.36-.24-.68-.59-.78l-8.8-2.59c-.13-.04-.27-.04-.4-.01l-3.8.82v-2.39c0-.36-.24-.68-.59-.78l-10.8-3.01c-.13-.04-.27-.04-.4-.01l-14.14 3.04c-.38.08-.68.41-.68.8l.05 36.23h-2.64v1.7l44.91-.06v-1.7h-2.08zm-26.61.04l-11.89.02-.05-35.57 11.88-2.55.05 38.1zm11.51-.02h-9.81l-.05-38.26v-.07l9.82 2.72.05 35.61zm4.72 0h-3.21l-.04-32.17 3.21-.69.04 32.87zm8.68-.01h-6.98l-.04-32.71 6.98 2.06.04 30.65zm-1.55-8.55v1.64l-3.35-.39v-1.73c.1-.04 3.35.48 3.35.48zm-.02-14.6v1.7s.05-.02 0-.04l-3.36-1.08V94c.16-.05 3.35 1.13 3.35 1.13zm-33.13-4.13l2.78-.63v1.67l-2.78.53v-1.55s-.03-.01 0-.02zm7.11-1.62v1.65l-3.2.74v-1.67l3.2-.72z"/><path d="M179.51 85.6l2.78-.76v1.68l-2.78.8v-1.71s-.02 0 0-.01zm7.11-1.92v1.66l-3.2.87v-1.69l3.2-.85zm-7.09 13l2.78-.55v1.66l-2.78.46V96.7s-.03-.02 0-.02zm7.11-1.42v1.65l-3.2.65V95.9l3.2-.64zm26.01-4.94v1.72c-.06 0-3.35-1.32-3.35-1.32v-1.79l3.35 1.39zm.01 9.79v1.69s.05-.02 0-.03l-3.36-.99v-1.74c.15-.05 3.35 1.07 3.35 1.07zm-17.33 1.83v1.64l-2.25-.3v-1.57c.1-.03 2.25.23 2.25.23zm3.21.42V104l-2.07-.27v-1.64l2.07.27zm-3.19 11.04v1.63l-2.25-.12v-1.56c.08-.02 2.25.06 2.25.06zm3.21.14v1.63l-2.08-.09v-1.63l2.08.09zm14.28-8.25v1.6l-3.53-.74v-1.72c.13-.05 3.53.86 3.53.86zm-.16 9.24v1.63l-3.35-.23v-1.55c.09-.03 3.35.15 3.35.15zm-17.36-24.66v1.69l-2.25-.62h0V89.3c.14-.04 2.25.58 2.25.58zm3.21.88v1.69l-2.08-.57v-1.69l2.08.57zm-3.22-6.55v1.7l-2.25-.67v-1.71c.14-.04 2.25.69 2.25.69zm3.21.96v1.69l-2.08-.62v-1.69l2.08.62zm-3.2 10.69v1.66l-2.25-.45c-.02 0 .02 0 0-.01V95.3c.12-.03 2.25.56 2.25.56zm3.21.65l.01 1.66-2.08-.42v-1.66l2.07.42zm-3.19 11.06v1.63l-2.25-.21v-1.56c.09-.03 2.25.14 2.25.14zm3.21.28v1.63l-2.08-.18v-1.63l2.08.18zm-16.23-.12v1.63l-2.78.16v-1.55c.06-.02 2.78-.25 2.78-.25zm4.33-.34v1.63l-3.2.25v-1.63l3.2-.25zm-4.34-5.19v1.64l-2.78.31v-1.55l2.78-.41zm4.34-.6v1.64l-3.2.45v-1.64l3.2-.44c.02 0-.02 0 0 0zm-7.1 11.96l2.78-.11v1.75l-2.78.13h0c-.09 0 .08-.02 0-.05v-1.68c.07-.03-.08-.04 0-.05zm7.11-.29v1.71l-3.2.17v-1.74l3.2-.14z"/></g><path d="M164.25 149.56c.1.01.19.04.26.07s.15.09.23.16c.07.07.16.16.25.28l9.33 11.88-.07-.84-.02-.77v-10.8h2.91v17.77h-1.71a1.54 1.54 0 0 1-.65-.12c-.17-.08-.34-.23-.5-.44l-9.29-11.84.05.78.02.71v10.91h-2.91v-17.77h1.73c.15 0 .27 0 .37.02zm32.1 17.76h-2.56c-.29 0-.52-.07-.71-.22-.18-.14-.32-.32-.4-.53l-1.33-3.63h-7.36l-1.33 3.63c-.07.19-.19.36-.39.52-.19.16-.43.23-.71.23h-2.57l6.98-17.77h3.38l6.98 17.77zm-11.5-6.71h5.67l-2.16-5.91-.33-.93-.35-1.16-.34 1.17-.33.95-2.16 5.89zm22.64.15l.35.85.36-.87c.12-.29.25-.56.39-.82l5.26-9.84c.07-.12.13-.22.2-.29s.15-.13.23-.16a1.24 1.24 0 0 1 .29-.06l.38-.01h2.5v17.77h-2.91v-11.48l.02-.7.06-.77-5.37 10.08c-.12.23-.28.41-.48.53a1.32 1.32 0 0 1-.69.19h-.46c-.26 0-.49-.06-.69-.19a1.37 1.37 0 0 1-.48-.53L201 154.34l.07.79.02.72v11.48h-2.91v-17.77h2.49l.38.01a.88.88 0 0 1 .29.06c.09.03.17.09.24.16s.14.17.21.29l5.31 9.87c.14.26.27.54.39.82zm24.76-11.21v2.63h-7.88v4.93h6.21v2.54h-6.21v5.03h7.88v2.64h-11.21v-17.77h11.21z" fill="#e2f1ff"/></g></svg>