<svg xmlns="http://www.w3.org/2000/svg" xmlns:xlink="http://www.w3.org/1999/xlink" viewBox="0 0 400 250" xmlns:v="https://vecta.io/nano"><style>.A{isolation:isolate}.Ad{mix-blend-mode:multiply}</style><defs><linearGradient id="A" x1="-4493.91" y1="-627.76" x2="-4488.03" y2="-627.76" gradientTransform="translate(-4383.01 -391.67) rotate(-166.77) scale(1 -1)" xlink:href="#Ag"><stop offset="0" stop-color="#e7ecff"/><stop offset="1" stop-color="#c2d5ff"/></linearGradient><linearGradient id="B" x1="-4493.18" y1="-629.55" x2="-4467.25" y2="-629.55" xlink:href="#A"/><linearGradient id="C" x1="85.45" y1="106.97" x2="160.8" y2="106.97" gradientTransform="matrix(1,0,0,1,0,0)" xlink:href="#A"/><linearGradient id="D" x1="116.86" y1="110.7" x2="139.84" y2="110.7" gradientTransform="matrix(1,0,0,1,0,0)" xlink:href="#A"/><linearGradient id="E" x1="112.95" y1="113.92" x2="143.75" y2="113.92" gradientTransform="matrix(1,0,0,1,0,0)" xlink:href="#A"/><linearGradient id="F" x1="112.95" y1="117.14" x2="143.75" y2="117.14" gradientTransform="matrix(1,0,0,1,0,0)" xlink:href="#A"/><linearGradient id="G" x1="95.37" y1="113.92" x2="108.03" y2="113.92" gradientTransform="matrix(1,0,0,1,0,0)" xlink:href="#A"/><linearGradient id="H" x1="116.86" y1="125.55" x2="139.84" y2="125.55" gradientTransform="matrix(1,0,0,1,0,0)" xlink:href="#A"/><linearGradient id="I" x1="112.95" y1="128.77" x2="143.75" y2="128.77" gradientTransform="matrix(1,0,0,1,0,0)" xlink:href="#A"/><linearGradient id="J" x1="112.95" y1="131.99" x2="143.75" y2="131.99" gradientTransform="matrix(1,0,0,1,0,0)" xlink:href="#A"/><linearGradient id="K" x1="95.37" y1="128.77" x2="108.03" y2="128.77" gradientTransform="matrix(1,0,0,1,0,0)" xlink:href="#A"/><linearGradient id="L" x1="100.8" y1="142.95" x2="108.32" y2="142.95" gradientTransform="matrix(1,0,0,1,0,0)" xlink:href="#A"/><linearGradient id="M" x1="110.08" y1="142.95" x2="117.6" y2="142.95" gradientTransform="matrix(1,0,0,1,0,0)" xlink:href="#A"/><linearGradient id="N" x1="119.36" y1="142.95" x2="126.88" y2="142.95" gradientTransform="matrix(1,0,0,1,0,0)" xlink:href="#A"/><linearGradient id="O" x1="128.64" y1="142.95" x2="136.16" y2="142.95" gradientTransform="matrix(1,0,0,1,0,0)" xlink:href="#A"/><linearGradient id="P" x1="137.92" y1="142.95" x2="145.44" y2="142.95" gradientTransform="matrix(1,0,0,1,0,0)" xlink:href="#A"/><linearGradient id="Q" x1="106.53" y1="84.27" x2="137.74" y2="84.27" gradientTransform="matrix(1,0,0,1,0,0)" xlink:href="#A"/><linearGradient id="R" x1="128.1" y1="92.7" x2="147.73" y2="89.28" xlink:href="#Ag"><stop offset="0" stop-color="#f88"/><stop offset="1" stop-color="#f24e4e"/></linearGradient><linearGradient id="S" x1="121.55" y1="89.02" x2="123.4" y2="105.21" xlink:href="#R"/><linearGradient id="T" x1="123.98" y1="80.08" x2="126.04" y2="80.08" xlink:href="#Ag"><stop offset="0" stop-color="#771e24"/><stop offset="1" stop-color="#47090e"/></linearGradient><linearGradient id="U" x1="117.1" y1="79.72" x2="126.97" y2="79.72" xlink:href="#T"/><linearGradient id="V" x1="115.38" y1="91" x2="117.67" y2="102.1" xlink:href="#R"/><linearGradient id="W" x1="-2731.44" y1="82.03" x2="-2729.35" y2="82.03" gradientTransform="translate(-2608.52) rotate(-180) scale(1 -1)" xlink:href="#T"/><linearGradient id="X" x1="-2734.24" y1="81.74" x2="-2732.16" y2="81.74" gradientTransform="translate(-2608.52) rotate(-180) scale(1 -1)" xlink:href="#T"/><linearGradient id="Y" x1="201.52" y1="96.81" x2="276.87" y2="96.81" gradientTransform="matrix(1,0,0,1,0,0)" xlink:href="#A"/><linearGradient id="Z" x1="232.93" y1="100.53" x2="255.91" y2="100.53" gradientTransform="matrix(1,0,0,1,0,0)" xlink:href="#A"/><linearGradient id="a" x1="229.02" y1="103.75" x2="259.82" y2="103.75" gradientTransform="matrix(1,0,0,1,0,0)" xlink:href="#A"/><linearGradient id="b" x1="229.02" y1="106.97" x2="259.82" y2="106.97" gradientTransform="matrix(1,0,0,1,0,0)" xlink:href="#A"/><linearGradient id="c" x1="232.93" y1="115.38" x2="255.91" y2="115.38" gradientTransform="matrix(1,0,0,1,0,0)" xlink:href="#A"/><linearGradient id="d" x1="229.02" y1="118.6" x2="259.82" y2="118.6" gradientTransform="matrix(1,0,0,1,0,0)" xlink:href="#A"/><linearGradient id="e" x1="229.02" y1="121.82" x2="259.82" y2="121.82" gradientTransform="matrix(1,0,0,1,0,0)" xlink:href="#A"/><linearGradient id="f" x1="226.15" y1="132.78" x2="233.67" y2="132.78" gradientTransform="matrix(1,0,0,1,0,0)" xlink:href="#A"/><linearGradient id="g" x1="235.43" y1="132.78" x2="242.95" y2="132.78" gradientTransform="matrix(1,0,0,1,0,0)" xlink:href="#A"/><linearGradient id="h" x1="244.71" y1="132.78" x2="252.23" y2="132.78" gradientTransform="matrix(1,0,0,1,0,0)" xlink:href="#A"/><linearGradient id="i" x1="253.99" y1="132.78" x2="261.51" y2="132.78" gradientTransform="matrix(1,0,0,1,0,0)" xlink:href="#A"/><linearGradient id="j" x1="222.6" y1="74.1" x2="253.81" y2="74.1" gradientTransform="matrix(1,0,0,1,0,0)" xlink:href="#A"/><linearGradient id="k" x1="128.1" y1="92.7" x2="147.73" y2="89.28" xlink:href="#Ag"><stop offset="0" stop-color="#78a7ff"/><stop offset="1" stop-color="#3d79f3"/></linearGradient><linearGradient id="l" x1="121.55" y1="89.03" x2="123.4" y2="105.21" xlink:href="#k"/><linearGradient id="m" x1="240.05" y1="69.91" x2="242.11" y2="69.91" xlink:href="#T"/><linearGradient id="n" x1="233.66" y1="72.61" x2="241.75" y2="72.61" xlink:href="#Ag"><stop offset="0" stop-color="#ffcec7"/><stop offset="1" stop-color="#f7b4ad"/></linearGradient><linearGradient id="o" x1="233.2" y1="69.22" x2="242.86" y2="69.22" gradientTransform="matrix(1,0,0,1,0,0)" xlink:href="#A"/><linearGradient id="p" x1="233.2" y1="69.22" x2="242.86" y2="69.22" xlink:href="#T"/><linearGradient id="q" x1="115.38" y1="90.99" x2="117.67" y2="102.09" xlink:href="#k"/><linearGradient id="r" x1="-2847.3" y1="71.38" x2="-2845.22" y2="71.38" gradientTransform="translate(-2608.52) rotate(-180) scale(1 -1)" xlink:href="#T"/><linearGradient id="s" x1="-2850.24" y1="71.08" x2="-2848.16" y2="71.08" gradientTransform="translate(-2608.52) rotate(-180) scale(1 -1)" xlink:href="#T"/><linearGradient id="t" x1="149.41" y1="138.32" x2="224.75" y2="138.32" xlink:href="#k"/><linearGradient id="u" x1="181.72" y1="142.04" x2="210.02" y2="142.04" gradientTransform="matrix(1,0,0,1,0,0)" xlink:href="#A"/><linearGradient id="v" x1="176.91" y1="145.26" x2="214.83" y2="145.26" gradientTransform="matrix(1,0,0,1,0,0)" xlink:href="#A"/><linearGradient id="w" x1="176.91" y1="148.48" x2="214.83" y2="148.48" gradientTransform="matrix(1,0,0,1,0,0)" xlink:href="#A"/><linearGradient id="x" x1="159.33" y1="145.26" x2="171.98" y2="145.26" gradientTransform="matrix(1,0,0,1,0,0)" xlink:href="#A"/><linearGradient id="y" x1="181.72" y1="156.89" x2="210.02" y2="156.89" gradientTransform="matrix(1,0,0,1,0,0)" xlink:href="#A"/><linearGradient id="z" x1="176.91" y1="160.11" x2="214.83" y2="160.11" gradientTransform="matrix(1,0,0,1,0,0)" xlink:href="#A"/><linearGradient id="AA" x1="176.91" y1="163.33" x2="214.83" y2="163.33" gradientTransform="matrix(1,0,0,1,0,0)" xlink:href="#A"/><linearGradient id="AB" x1="159.33" y1="160.11" x2="171.98" y2="160.11" gradientTransform="matrix(1,0,0,1,0,0)" xlink:href="#A"/><linearGradient id="AC" x1="164.76" y1="174.29" x2="172.28" y2="174.29" gradientTransform="matrix(1,0,0,1,0,0)" xlink:href="#A"/><linearGradient id="AD" x1="174.04" y1="174.29" x2="181.56" y2="174.29" gradientTransform="matrix(1,0,0,1,0,0)" xlink:href="#A"/><linearGradient id="AE" x1="183.32" y1="174.29" x2="190.84" y2="174.29" gradientTransform="matrix(1,0,0,1,0,0)" xlink:href="#A"/><linearGradient id="AF" x1="192.6" y1="174.29" x2="200.12" y2="174.29" gradientTransform="matrix(1,0,0,1,0,0)" xlink:href="#A"/><linearGradient id="AG" x1="201.88" y1="174.29" x2="209.4" y2="174.29" gradientTransform="matrix(1,0,0,1,0,0)" xlink:href="#A"/><linearGradient id="AH" x1="170.49" y1="115.61" x2="201.69" y2="115.61" xlink:href="#Ag"><stop offset="0" stop-color="#ffbb83"/><stop offset="1" stop-color="#ff9d45"/></linearGradient><linearGradient id="AI" x1="173.55" y1="115.61" x2="198.63" y2="115.61" gradientTransform="matrix(1,0,0,1,0,0)" xlink:href="#A"/><linearGradient id="AJ" x1="176.48" y1="117.66" x2="196.49" y2="117.66" xlink:href="#T"/><linearGradient id="AK" x1="-5801.38" y1="1155.19" x2="-5792.83" y2="1155.19" gradientTransform="translate(-5594.46 1350.22) rotate(156.68) scale(1 -1)" xlink:href="#n"/><linearGradient id="AL" x1="187.05" y1="127.97" x2="192.44" y2="160.38" xlink:href="#AH"/><linearGradient id="AM" x1="-4338.21" y1="120.34" x2="-4332.96" y2="120.34" gradientTransform="translate(-4150.14) rotate(-180) scale(1 -1)" xlink:href="#AH"/><linearGradient id="AN" x1="-2213.88" y1="303.08" x2="-2212.15" y2="303.08" gradientTransform="translate(-2044.97 24.06) rotate(174.49) scale(1 -1)" xlink:href="#T"/><linearGradient id="AO" x1="-2216.02" y1="302.89" x2="-2214.29" y2="302.89" gradientTransform="translate(-2044.97 24.06) rotate(174.49) scale(1 -1)" xlink:href="#T"/><linearGradient id="AP" x1="-6268.88" y1="205.66" x2="-6251.67" y2="205.66" gradientTransform="translate(-5951.76) rotate(-180) scale(1 -1)" xlink:href="#A"/><linearGradient id="AQ" x1="-6289.84" y1="207.8" x2="-6272.63" y2="207.8" gradientTransform="translate(-5951.76) rotate(-180) scale(1 -1)" xlink:href="#A"/><linearGradient id="AR" x1="-6280.77" y1="194.34" x2="-6264.54" y2="194.34" gradientTransform="translate(-5951.76) rotate(-180) scale(1 -1)" xlink:href="#A"/><linearGradient id="AS" x1="-6281.23" y1="227.31" x2="-6261.01" y2="227.31" gradientTransform="translate(-5951.76) rotate(-180) scale(1 -1)" xlink:href="#A"/><linearGradient id="AT" x1="260.59" y1="53.76" x2="320.08" y2="53.76" xlink:href="#Ag"><stop offset=".05" stop-color="#fff"/></linearGradient><linearGradient id="AU" x1="284.53" y1="27.021" x2="296.114" y2="80.511" xlink:href="#Ag"><stop offset=".36" stop-color="#78c7ee"/><stop offset=".97" stop-color="#009bdd"/></linearGradient><path id="AV" d="M97.33 160.3h-7.15c-4.52 0-8.2-3.68-8.2-8.2v-6.29h.55v6.29a7.66 7.66 0 0 0 7.65 7.65h7.15v.55z"/><path id="AW" d="M156.07 160.3h-7.15v-.55h7.15a7.66 7.66 0 0 0 7.65-7.65v-6.29h.55v6.29c0 4.52-3.68 8.2-8.2 8.2z"/><path id="AX" d="M131.7 92.37a12.35 12.35 0 0 1-2.25 2.08l-.91.6.19-4.88.07.03c.15.06.53.23 1.01.52.58.35 1.29.89 1.88 1.66z"/><path id="AY" d="M130.09 91.42a22.71 22.71 0 0 0-.64 3.02l-.91.6a12.45 12.45 0 0 1-6.41 1.76 12.52 12.52 0 0 1-4.31-.76h0c-1.51-.56-2.89-1.39-4.06-2.45l.03-.65c-.07-.63.58-1.25 1.52-1.79 1.98-1.16 5.18-2.01 5.18-2.01s5.59.12 8.25 1.02c.03 0 .05.02.07.03.43.15.78.32 1.01.52.24.21.35.44.27.71z"/><path id="AZ" d="M117.83 96.04h0c-1.51-.56-2.89-1.39-4.06-2.45l-.64-.61a6.3 6.3 0 0 1 .57-.71c.32-.34.97-.81 1.61-1.12.51-.25 1.02-.41 1.38-.32.72.17 1.75 1.61 1.8 2.35.05.75-.23 1.75-.67 2.86z"/><path id="Aa" d="M122.09 82.94a.3.3 0 0 0 .6 0c0-.17-.13-.3-.3-.3s-.3.13-.3.3z"/><path id="Ab" d="M123.67 84.49c-.09 0-.19 0-.27-.02-.08 0-.13-.08-.12-.15 0-.08.08-.13.15-.12.11.01.23.02.34.01.1-.01.19-.04.22-.08.04-.05.02-.12 0-.15a1.05 1.05 0 0 0-.14-.2l-.05-.07c-.31-.41-.44-.87-.37-1.32a.13.13 0 0 1 .16-.11c.07.01.12.08.11.16-.06.37.05.76.31 1.1l.05.06c.06.08.13.16.17.26.08.17.06.34-.05.46s-.3.15-.39.16h-.13z"/><path id="Ac" d="M241.3 68.69s1.72 8.57-1.49 9.09c-3 .49-4.57-3.12-4.57-3.12s-1.56.24-1.58-1.6 1.44-1.15 1.44-1.15-.71-3.6 1.19-4.34 5 1.11 5 1.11z"/><path id="Ad" d="m233.66,73.06s-1.99-6.52,2.33-5.8c0,0,1.92-3.42,5.68-1.4,3.39,1.82-1.15,5.24-4.65,2.55,0,0,.74,1.13-1.24,1.41,0,0,.78.8-.08,1.53-.62.54.15,1.86.15,1.86-.78-1.92-2.1-1.87-2.18-.16Z"/><path id="Ae" d="M238.03 72.5a.3.3 0 1 0 .6 0c0-.17-.13-.3-.3-.3s-.3.13-.3.3z"/><path id="Af" d="M189.15 113.57c.01.11.11.19.22.18s.19-.11.18-.22-.11-.19-.22-.18-.19.11-.18.22z"/><linearGradient id="Ag" gradientUnits="userSpaceOnUse"/></defs><g class="A"><path d="M328.91 163.95c-1.05 21.18-14.61 40.44-32.34 52.08-17.74 11.63-39.18 16.45-60.35 17.84a210.53 210.53 0 0 1-76.13-9.05c-22.04-6.86-43.09-17.49-60.55-32.58-17.46-15.1-31.22-34.8-37.68-56.96-6.83-23.45-4.93-50.05 8.38-70.54 13.31-20.48 38.88-33.36 62.82-28.55 15.49 3.11 28.74 12.76 41.43 22.16 13.4 9.92 24.23 24.93 40.18 29.76 24.62 7.46 52.36 1.12 74.96 13.37 22.81 12.37 40.55 36.55 39.27 62.47z" fill="#f5f7ff"/><path d="M135.59 32.34c-.15 0-.27-.12-.28-.27l.04-1.95c0-.15.14-.27.29-.26.15 0 .27.14.26.29l-.04 1.91c0 .15-.12.28-.27.28h0zm92.19 86.12a.26.26 0 0 1-.27-.26c0-.15.11-.28.26-.29l3.87-.3c.15-.01.29.1.3.25.02.15-.09.29-.25.3l-3.9.3h-.02zm7.75-.79c-.13 0-.25-.1-.27-.23-.02-.15.08-.29.23-.31l3.82-.7c.15-.03.3.06.33.21s-.06.3-.21.33l-3.85.7h-.04zm7.62-1.61c-.12 0-.23-.08-.27-.2a.28.28 0 0 1 .19-.34l3.71-1.14a.28.28 0 0 1 .35.17.28.28 0 0 1-.17.35l-3.74 1.15h-.07zm7.36-2.53c-.11 0-.21-.06-.25-.17-.06-.14 0-.3.15-.36l1.57-.69 1.95-.94c.14-.07.3-.02.37.12s.02.3-.12.37l-1.97.95-1.58.69a.36.36 0 0 1-.11.02zm6.93-3.54c-.09 0-.18-.05-.24-.13-.08-.13-.04-.3.09-.38l3.22-2.15c.12-.09.3-.06.38.06.09.12.06.3-.06.38l-3.26 2.17a.23.23 0 0 1-.14.04zm6.3-4.57c-.08 0-.15-.03-.21-.1-.1-.12-.09-.29.03-.39l2.82-2.65c.11-.11.28-.11.39 0s.11.28 0 .39l-2.86 2.68c-.05.04-.12.07-.18.07zm5.41-5.59c-.06 0-.12-.02-.17-.06-.12-.09-.14-.27-.04-.39.82-1.03 1.57-2.09 2.23-3.15.08-.13.25-.17.38-.09s.17.25.09.38a34.71 34.71 0 0 1-2.26 3.21c-.05.07-.13.1-.22.1zm4.09-6.61s-.08 0-.11-.02c-.14-.06-.2-.23-.14-.36l.59-1.42c.28-.72.52-1.46.73-2.2.04-.15.19-.23.34-.19s.23.19.19.34l-.75 2.25-.6 1.45c-.05.1-.15.16-.25.16zm2.11-7.47h-.03a.28.28 0 0 1-.24-.31c.13-1.06.2-2.15.2-3.23v-.62c0-.15.12-.28.27-.28.14 0 .28.12.28.27v.63a27.97 27.97 0 0 1-.2 3.3c-.02.14-.14.24-.27.24zm-.17-7.76c-.13 0-.25-.1-.27-.23a30.36 30.36 0 0 0-.86-3.76c-.04-.15.04-.3.19-.34s.3.04.34.19a29.7 29.7 0 0 1 .87 3.83c.02.15-.08.29-.23.32h-.04zm-2.17-7.46c-.11 0-.21-.06-.25-.17l-1.67-3.49c-.07-.13-.02-.3.11-.37s.3-.02.37.11l1.7 3.54c.06.14 0 .3-.15.36a.36.36 0 0 1-.11.02zm-64.65-3.65c-.15 0-.27-.12-.28-.27 0-.15.12-.28.27-.28l3.35-.16.52-.05c.15-.01.29.1.3.25s-.1.29-.25.3l-.52.05-3.39.16h0zm-3.89-.18h-.03a33.79 33.79 0 0 1-3.88-.61c-.15-.03-.24-.18-.21-.33s.18-.24.33-.21c1.22.27 2.5.47 3.81.6.15.02.26.15.25.3-.01.14-.13.25-.27.25zm11.63-.55c-.13 0-.25-.09-.27-.23-.03-.15.07-.29.22-.32l3.8-.78c.15-.03.3.06.33.21s-.06.3-.21.33l-3.83.79h-.05zM196.88 65s-.06 0-.1-.02a23.38 23.38 0 0 1-3.56-1.69c-.13-.08-.17-.25-.1-.38.08-.13.25-.17.38-.1a21.8 21.8 0 0 0 3.47 1.65c.14.05.21.21.16.35a.28.28 0 0 1-.26.18zm26.8-.63c-.12 0-.23-.08-.26-.2-.04-.15.04-.3.19-.34l3.71-1.15a.28.28 0 0 1 .35.17.28.28 0 0 1-.17.35l-3.73 1.16c-.03 0-.05.01-.08.01zm45.63-.69c-.09 0-.18-.04-.23-.12-.76-1.13-1.55-2.16-2.35-3.06-.1-.11-.09-.29.02-.39s.29-.09.39.02c.82.92 1.62 1.97 2.39 3.12.08.13.05.3-.08.38-.05.03-.1.05-.15.05zm-99.52-.73h-.54c-.15 0-.27-.13-.27-.28s.12-.27.28-.27h0 .58l3.29-.11c.16 0 .28.1.29.26a.27.27 0 0 1-.26.29l-3.37.11zm-4.42-.22h-.03c-1.32-.13-2.62-.33-3.88-.58-.15-.03-.25-.17-.22-.32s.18-.25.32-.22c1.24.25 2.53.44 3.83.57.15.02.26.15.25.3-.01.14-.13.25-.27.25zm11.65-.31c-.13 0-.25-.1-.27-.24-.02-.15.08-.29.23-.31l3.81-.7c.15-.03.3.06.33.21s-.06.3-.21.33l-3.85.7h-.04zm54.06-.49a.28.28 0 0 1-.26-.18c-.05-.14.02-.3.16-.35l3.64-1.37c.14-.06.3.01.36.16.06.14-.02.3-.16.36l-3.65 1.38c-.03.01-.06.02-.09.02zm-73.34-.73s-.05 0-.08-.01l-.37-.12a34.51 34.51 0 0 1-3.3-1.26c-.14-.06-.2-.22-.14-.36s.22-.2.36-.14l3.25 1.24.37.12c.15.05.23.2.18.35-.04.12-.15.19-.26.19zm32.52-.2c-.07 0-.14-.03-.19-.08-.54-.51-1.04-1.06-1.5-1.63-.02.09-.08.16-.17.2l-3.71 1.24c-.15.04-.3-.04-.34-.19s.04-.3.19-.34l3.67-1.23c.04-.01.07-.02.11-.02l-.22-.3-.53-.8c-.08-.13-.04-.3.09-.38s.3-.04.38.09l.51.77c.55.77 1.19 1.51 1.9 2.18.11.1.12.28.01.39-.05.06-.13.09-.2.09zm48.08-1.88c-.11 0-.21-.07-.26-.17-.06-.14.01-.3.15-.36l1.03-.42 2.58-1.04c.14-.06.3.01.36.16.06.14-.01.3-.16.36l-2.58 1.03-1.04.42s-.07.02-.1.02zm-87.71-1.07s-.1-.01-.14-.04a33.06 33.06 0 0 1-3.25-2.2c-.12-.09-.14-.27-.05-.39s.27-.14.39-.05a31.32 31.32 0 0 0 3.19 2.16c.13.08.17.25.1.38a.27.27 0 0 1-.24.14zm41.27-.03c-.1 0-.2-.06-.25-.16-.06-.14 0-.3.14-.37l3.47-1.73c.13-.07.3-.02.37.11s.02.3-.11.37l-3.5 1.75c-.04.02-.08.02-.11.02zm72.21-.1c-.06 0-.12-.02-.17-.06-1.04-.81-2.14-1.48-3.26-1.99-.14-.06-.2-.23-.14-.36.06-.14.23-.2.36-.14 1.16.53 2.3 1.22 3.37 2.05.12.09.14.27.05.39a.28.28 0 0 1-.22.11zm-18.5-1.6c-.12 0-.22-.07-.26-.19a.28.28 0 0 1 .17-.35l3.77-1.09c.15-.03.3.06.33.21s-.06.3-.21.33l-3.72 1.07c-.03 0-.06.01-.09.01zm11.47-1.54h-.04l-.8-.11c-.95-.1-1.96-.11-3.02-.04a.275.275 0 0 1-.03-.55c1.09-.08 2.13-.07 3.11.04l.83.11c.15.02.25.17.23.32-.02.14-.14.23-.27.23zm-70.88-.32a.27.27 0 0 1-.26-.19c-.38-1.21-.63-2.52-.75-3.87-.01-.15.1-.29.25-.3s.29.1.3.25c.12 1.32.37 2.58.73 3.76.05.15-.04.3-.18.34-.03 0-.05.01-.08.01zm12.54-.16c-.09 0-.18-.04-.23-.13-.08-.13-.05-.3.08-.38l3.17-2.22c.12-.09.29-.07.39.05.09.12.07.29-.05.39l-3.21 2.24c-.05.03-.1.04-.15.04zm-54.26-.99c-.07 0-.14-.03-.19-.08-.93-.92-1.81-1.91-2.61-2.93-.09-.12-.07-.29.05-.39.12-.09.29-.07.39.05.79 1.01 1.65 1.98 2.56 2.88.11.11.11.28 0 .39a.28.28 0 0 1-.2.08zm60.45-3.73c-.07 0-.15-.03-.2-.09-.1-.11-.09-.29.02-.39.98-.89 1.9-1.81 2.73-2.74.1-.11.28-.12.39-.02s.12.28.02.39l-2.77 2.78c-.05.05-.12.07-.19.07zm-65.22-2.39c-.09 0-.19-.05-.24-.14a29.44 29.44 0 0 1-1.77-3.5c-.06-.14 0-.3.15-.36.14-.06.3 0 .36.15a29.18 29.18 0 0 0 1.74 3.44c.08.13.03.3-.1.38a.23.23 0 0 1-.14.04zm45.74-.44h-.02c-.15-.01-.27-.14-.25-.3a30.5 30.5 0 0 1 .58-3.89c.03-.15.18-.24.33-.21s.24.18.21.33a29.27 29.27 0 0 0-.57 3.81c-.01.14-.13.25-.27.25zm24.65-2.98c-.05 0-.11-.02-.16-.05-.13-.09-.16-.26-.07-.38a22.86 22.86 0 0 0 1.94-3.32c.07-.14.23-.2.37-.13s.2.23.13.37c-.54 1.13-1.2 2.27-1.99 3.4-.05.08-.14.12-.23.12zm-73.44-3.73c-.12 0-.23-.08-.27-.2-.35-1.26-.62-2.55-.8-3.85-.02-.15.08-.29.23-.31s.29.08.31.23a28.84 28.84 0 0 0 .79 3.78.28.28 0 0 1-.19.34h-.07zm50.42-.89s-.06 0-.09-.01a.28.28 0 0 1-.17-.35l1.01-2.62.46-1.02a.277.277 0 1 1 .5.24l-.45 1-.99 2.58a.29.29 0 0 1-.26.19zm26.28-2.4h-.06c-.15-.03-.24-.18-.21-.33.18-.8.29-1.59.32-2.37v-.43c0-.32-.02-.65-.05-.98-.02-.15.09-.29.25-.3a.26.26 0 0 1 .3.25 8.88 8.88 0 0 1 .05 1.03l-.01.46a14.23 14.23 0 0 1-.34 2.47c-.03.13-.14.21-.27.21zm-22.94-4.62c-.05 0-.1-.01-.15-.04-.13-.08-.16-.25-.08-.38.74-1.14 1.54-2.2 2.38-3.13.1-.11.28-.12.39-.02s.12.28.02.39c-.82.91-1.61 1.94-2.33 3.06-.05.08-.14.13-.23.13zm22.08-2.94a.27.27 0 0 1-.24-.14c-.6-1.11-1.41-2.1-2.38-2.92-.12-.1-.13-.27-.03-.39s.27-.13.39-.03c1.03.87 1.88 1.91 2.51 3.08.07.13.02.3-.11.37-.04.02-.09.03-.13.03zm-16.84-2.77c-.09 0-.17-.04-.22-.11-.09-.12-.06-.3.06-.38 1.1-.8 2.27-1.45 3.47-1.91a.29.29 0 0 1 .36.16.29.29 0 0 1-.16.36c-1.15.44-2.27 1.06-3.34 1.84-.05.04-.11.05-.16.05zm11.03-2.14s-.06 0-.09-.01a9.96 9.96 0 0 0-3.73-.53c-.14.01-.28-.11-.29-.26 0-.15.11-.28.26-.29 1.35-.06 2.68.13 3.93.56a.28.28 0 0 1 .17.35.29.29 0 0 1-.26.19zm16.33 94.3h-1.15c-.15 0-.27-.13-.27-.28s.1-.28.28-.27h1.92 0c.15 0 .27.12.28.27 0 .15-.12.28-.27.28h-.78z" fill="#5c5ca0"/><path d="m129.54,25.55c-.02.05,0,.11.05.14l5.14,2.89s.02,0,.03.01c.04,0,.08,0,.1-.03.04-.04.04-.09.02-.13l-3.78-6.48s-.06-.06-.11-.06c-.04,0-.08.03-.1.07l-1.35,3.58Z" fill="url(#A)"/><path d="M111.28 12.44s-.01.09.02.13l16.39 18.09s.04.03.06.03h.05c.04 0 .07-.03.08-.07l4.2-11.14 4.96-3.41s.06-.07.05-.12c-.01-.04-.05-.08-.1-.08l-25.59-3.49s-.09.02-.12.06z" fill="url(#B)"/><path d="M117.37 14.71c-.02.05 0 .11.05.14l13.5 7.24 3.77 6.45s.04.04.07.05h.07c.05-.02.08-.08.06-.14l-2.81-9.07s-.04-.06-.07-.07l-14.5-4.66c-.06-.02-.12 0-.14.06z" fill="#c2d5ff"/><g fill="#adc8f7"><path d="M82.53 68.12h-.55v-6.28c0-4.52 3.68-8.2 8.2-8.2h7.15v.55h-7.15a7.66 7.66 0 0 0-7.65 7.65v6.28zm81.74 0h-.55v-6.28a7.66 7.66 0 0 0-7.65-7.65h-7.15v-.55h7.15c4.52 0 8.2 3.68 8.2 8.2v6.28z"/><use xlink:href="#AV"/><use xlink:href="#AW"/><path d="M198.6 57.96h-.55v-6.29c0-4.52 3.68-8.2 8.2-8.2h7.15v.55h-7.15a7.66 7.66 0 0 0-7.65 7.65v6.29zm81.74 0h-.55v-6.29a7.66 7.66 0 0 0-7.65-7.65h-7.15v-.55h7.15c4.52 0 8.2 3.68 8.2 8.2v6.29z"/><use xlink:href="#AV" x="116.07" y="-10.16"/><use xlink:href="#AW" x="116.07" y="-10.16"/></g><rect x="85.45" y="57.11" width="75.35" height="99.72" rx="4.73" fill="url(#C)"/><rect x="88.87" y="60.53" width="68.51" height="92.89" rx="1.31" fill="#fff"/><path d="M116.86 109.93h22.98v1.54h-22.98z" fill="url(#D)"/><path d="M112.95 113.15h30.8v1.54h-30.8z" fill="url(#E)"/><path d="M112.95 116.37h14.92v1.54h-14.92z" fill="url(#F)"/><rect x="95.37" y="108.42" width="12.66" height="11" rx="1.25" fill="url(#G)"/><path d="M116.86 124.77h22.98v1.54h-22.98z" fill="url(#H)"/><path d="M112.95 128h30.8v1.54h-30.8z" fill="url(#I)"/><path d="M112.95 131.22h14.92v1.54h-14.92z" fill="url(#J)"/><rect x="95.37" y="123.27" width="12.66" height="11" rx="1.25" fill="url(#K)"/><path d="m104.78,139.5l1.03,2.08,2.3.33c.2.03.28.28.14.42l-1.66,1.62.39,2.29c.03.2-.18.35-.36.26l-2.06-1.08-2.06,1.08c-.18.09-.39-.06-.36-.26l.39-2.29-1.66-1.62c-.15-.14-.07-.39.14-.42l2.3-.33,1.03-2.08c.09-.18.35-.18.44,0Z" fill="url(#L)"/><path d="m114.06,139.5l1.03,2.08,2.3.33c.2.03.28.28.14.42l-1.66,1.62.39,2.29c.03.2-.18.35-.36.26l-2.06-1.08-2.06,1.08c-.18.09-.39-.06-.36-.26l.39-2.29-1.66-1.62c-.15-.14-.07-.39.14-.42l2.3-.33,1.03-2.08c.09-.18.35-.18.44,0Z" fill="url(#M)"/><path d="m123.34,139.5l1.03,2.08,2.3.33c.2.03.28.28.14.42l-1.66,1.62.39,2.29c.03.2-.18.35-.36.26l-2.06-1.08-2.06,1.08c-.18.09-.39-.06-.36-.26l.39-2.29-1.66-1.62c-.15-.14-.07-.39.14-.42l2.3-.33,1.03-2.08c.09-.18.35-.18.44,0Z" fill="url(#N)"/><path d="m132.62,139.5l1.03,2.08,2.3.33c.2.03.28.28.14.42l-1.66,1.62.39,2.29c.03.2-.18.35-.36.26l-2.06-1.08-2.06,1.08c-.18.09-.39-.06-.36-.26l.39-2.29-1.66-1.62c-.15-.14-.07-.39.14-.42l2.3-.33,1.03-2.08c.09-.18.35-.18.44,0Z" fill="url(#O)"/><path d="m141.9,139.5l1.03,2.08,2.3.33c.2.03.28.28.14.42l-1.66,1.62.39,2.29c.03.2-.18.35-.36.26l-2.06-1.08-2.06,1.08c-.18.09-.39-.06-.36-.26l.39-2.29-1.66-1.62c-.15-.14-.07-.39.14-.42l2.3-.33,1.03-2.08c.09-.18.35-.18.44,0Z" fill="url(#P)"/><path d="m137.74,84.27c0,8.61-6.98,15.6-15.6,15.6s-15.6-6.98-15.6-15.6,6.98-15.6,15.6-15.6,15.6,6.98,15.6,15.6Z" fill="url(#Q)"/><path d="m134.67,84.27c0,6.92-5.61,12.54-12.54,12.54s-12.54-5.61-12.54-12.54,5.61-12.54,12.54-12.54,12.54,5.61,12.54,12.54Z" fill="#fff"/><use xlink:href="#AX" fill="url(#R)"/><use xlink:href="#AY" fill="url(#S)"/><path d="M119.02 84.84v4.73l3.73 2.81.6-3.09v-4.45h-4.33z" fill="#fdccc5"/><path d="m125.68,78.66s.86,1.52-.09,2.85l-1.61-2.85h1.7Z" fill="url(#T)"/><path d="M125.23 78.85s1.55 7.62-1.66 8.14c-3 .49-4.4-2.17-4.4-2.17s-1.56.24-1.58-1.6 1.44-1.15 1.44-1.15-.71-3.6 1.19-4.34c1.91-.73 5 1.11 5 1.11z" fill="#fdccc5"/><path d="m117.59,83.23s-2.09-6.88,2.33-5.8c1.65.4,5.85-2.8,6.79-.57,1.99,4.75-7.88,4.2-7.08,4.67.71.42.15,1.86.15,1.86-.78-1.92-2.1-1.87-2.18-.16Z" fill="url(#U)"/><use xlink:href="#AZ" fill="url(#V)"/><g fill="#47090e"><use xlink:href="#Aa"/><use xlink:href="#Aa" x="2.56" y="-0.3"/></g><path d="M121.17 81.87c-.09.03-.19.07-.26.13-.07.07-.1.18-.06.27.03.06.09.09.15.11s.13.01.19.01l.51-.02c.2 0 .4-.01.6-.06.19-.05.38-.14.52-.28.05-.06.1-.13.09-.21 0-.11-.1-.13-.19-.13-.13 0-.25-.01-.38 0a3.29 3.29 0 0 0-.76.09l-.42.11z" fill="url(#W)"/><path d="M123.97 81.58c-.09.03-.19.07-.26.13-.07.07-.1.18-.06.27.03.06.09.09.15.11s.13.01.19.01l.51-.02c.2 0 .4-.01.6-.06.19-.05.38-.14.52-.28.05-.06.1-.13.09-.21 0-.11-.1-.13-.19-.13-.13 0-.25-.01-.38 0a3.29 3.29 0 0 0-.76.09l-.42.11z" fill="url(#X)"/><g fill="#ec8b73"><path d="M123.41 85.9c-.33 0-.6-.17-.79-.5-.04-.07-.01-.15.05-.19.07-.04.15-.01.19.05.14.26.34.37.6.35a.51.51 0 0 0 .22-.05c.07-.03.15 0 .18.07s0 .15-.07.18c-.09.04-.2.07-.31.07h-.07z"/><use xlink:href="#Ab"/></g><rect x="201.52" y="46.94" width="75.35" height="99.72" rx="4.73" fill="url(#Y)"/><rect x="204.94" y="50.36" width="68.51" height="92.89" rx="1.31" fill="#fff"/><path d="M232.93 99.76h22.98v1.54h-22.98z" fill="url(#Z)"/><path d="M229.02 102.98h30.8v1.54h-30.8z" fill="url(#a)"/><path d="M229.02 106.2h14.92v1.54h-14.92z" fill="url(#b)"/><path d="M232.93 114.61h22.98v1.54h-22.98z" fill="url(#c)"/><path d="M229.02 117.83h30.8v1.54h-30.8z" fill="url(#d)"/><path d="M229.02 121.05h14.92v1.54h-14.92z" fill="url(#e)"/><path d="m230.13,129.33l1.03,2.08,2.3.33c.2.03.28.28.14.42l-1.66,1.62.39,2.29c.03.2-.18.35-.36.26l-2.06-1.08-2.06,1.08c-.18.09-.39-.06-.36-.26l.39-2.29-1.66-1.62c-.15-.14-.07-.39.14-.42l2.3-.33,1.03-2.08c.09-.18.35-.18.44,0Z" fill="url(#f)"/><path d="m239.41,129.33l1.03,2.08,2.3.33c.2.03.28.28.14.42l-1.66,1.62.39,2.29c.03.2-.18.35-.36.26l-2.06-1.08-2.06,1.08c-.18.09-.39-.06-.36-.26l.39-2.29-1.66-1.62c-.15-.14-.07-.39.14-.42l2.3-.33,1.03-2.08c.09-.18.35-.18.44,0Z" fill="url(#g)"/><path d="m248.69,129.33l1.03,2.08,2.3.33c.2.03.28.28.14.42l-1.66,1.62.39,2.29c.03.2-.18.35-.36.26l-2.06-1.08-2.06,1.08c-.18.09-.39-.06-.36-.26l.39-2.29-1.66-1.62c-.15-.14-.07-.39.14-.42l2.3-.33,1.03-2.08c.09-.18.35-.18.44,0Z" fill="url(#h)"/><path d="m257.97,129.33l1.03,2.08,2.3.33c.2.03.28.28.14.42l-1.66,1.62.39,2.29c.03.2-.18.35-.36.26l-2.06-1.08-2.06,1.08c-.18.09-.39-.06-.36-.26l.39-2.29-1.66-1.62c-.15-.14-.07-.39.14-.42l2.3-.33,1.03-2.08c.09-.18.35-.18.44,0Z" fill="url(#i)"/><path d="m253.81,74.1c0,8.61-6.98,15.6-15.6,15.6s-15.6-6.98-15.6-15.6,6.98-15.6,15.6-15.6,15.6,6.98,15.6,15.6Z" fill="url(#j)"/><path d="m250.74,74.1c0,6.92-5.61,12.54-12.54,12.54s-12.54-5.61-12.54-12.54,5.61-12.54,12.54-12.54,12.54,5.61,12.54,12.54Z" fill="#fff"/><use xlink:href="#AX" x="116.07" y="-10.17" fill="url(#k)"/><use xlink:href="#AY" x="116.07" y="-10.17" fill="url(#l)"/><path d="M235.09 74.67v4.74l3.73 2.8.6-3.08v-4.46h-4.33z" fill="#fdccc5"/><path d="m241.75,68.49s.86,1.52-.09,2.85l-1.61-2.85h1.7Z" fill="url(#m)"/><use xlink:href="#Ac" fill="url(#n)"/><use xlink:href="#Ad" fill="url(#o)"/><use xlink:href="#Ac" fill="#fdccc5"/><use xlink:href="#Ad" fill="url(#p)"/><use xlink:href="#AZ" x="116.07" y="-10.16" fill="url(#q)"/><g fill="#47090e"><use xlink:href="#Ae"/><use xlink:href="#Ae" x="2.65" y="-0.25"/></g><path d="M237.03 71.22c-.09.03-.19.07-.26.13s-.1.18-.06.27c.03.06.09.09.15.11s.13.01.19.01l.51-.02c.2 0 .4-.01.6-.06.19-.05.38-.14.52-.28.05-.06.1-.13.09-.21 0-.11-.1-.13-.19-.13-.13 0-.25-.01-.38 0a3.29 3.29 0 0 0-.76.09l-.42.11z" fill="url(#r)"/><path d="M239.98 70.92c-.09.03-.19.07-.26.13-.07.07-.1.18-.06.27.03.06.09.09.15.11s.13.01.19.01l.51-.02c.2 0 .4-.01.6-.06.19-.05.38-.14.52-.28.05-.06.1-.13.09-.21 0-.11-.1-.13-.19-.13-.13 0-.25-.01-.38 0a3.29 3.29 0 0 0-.76.09l-.42.11z" fill="url(#s)"/><g fill="#ec8b73"><path d="M239.55 76.37c-.51 0-.93-.27-1.21-.76-.07-.13-.03-.3.11-.37.13-.07.3-.03.37.11.19.34.44.49.79.47.11 0 .21-.03.3-.07.14-.06.3 0 .36.15.06.14 0 .3-.15.36-.14.06-.31.1-.48.11h-.11z"/><use xlink:href="#Ab" x="116.07" y="-10.16"/></g><path d="M146.47 98.5h-.55v-5.32c0-4.53 3.69-8.22 8.22-8.22h6.08v.55h-6.08a7.68 7.68 0 0 0-7.67 7.67v5.32zm81.77 0h-.55v-5.32a7.68 7.68 0 0 0-7.67-7.67h-6.08v-.55h6.08c4.53 0 8.22 3.69 8.22 8.22v5.32zm-68.02 93.17h-6.08c-4.53 0-8.22-3.69-8.22-8.22v-5.32h.55v5.32a7.68 7.68 0 0 0 7.67 7.67h6.08v.55zm59.81 0h-6.08v-.55h6.08a7.68 7.68 0 0 0 7.67-7.67v-5.32h.55v5.32c0 4.53-3.69 8.22-8.22 8.22z" fill="#adc8f7"/><rect x="149.41" y="88.45" width="75.35" height="99.72" rx="4.73" fill="url(#t)"/><rect x="152.82" y="91.87" width="68.51" height="92.89" rx="1.31" fill="#fff"/><path d="M181.72 141.27h28.3v1.54h-28.3z" fill="url(#u)"/><path d="M176.91 144.49h37.92v1.54h-37.92z" fill="url(#v)"/><path d="M176.91 147.71h18.37v1.54h-18.37z" fill="url(#w)"/><rect x="159.33" y="139.76" width="12.66" height="11" rx="1.25" fill="url(#x)"/><path d="M181.72 156.12h28.3v1.54h-28.3z" fill="url(#y)"/><path d="M176.91 159.34h37.92v1.54h-37.92z" fill="url(#z)"/><path d="M176.91 162.56h18.37v1.54h-18.37z" fill="url(#AA)"/><rect x="159.33" y="154.61" width="12.66" height="11" rx="1.25" fill="url(#AB)"/><path d="m168.74,170.84l1.03,2.08,2.3.33c.2.03.28.28.14.42l-1.66,1.62.39,2.29c.03.2-.18.35-.36.26l-2.06-1.08-2.06,1.08c-.18.09-.39-.06-.36-.26l.39-2.29-1.66-1.62c-.15-.14-.07-.39.14-.42l2.3-.33,1.03-2.08c.09-.18.35-.18.44,0Z" fill="url(#AC)"/><path d="m178.02,170.84l1.03,2.08,2.3.33c.2.03.28.28.14.42l-1.66,1.62.39,2.29c.03.2-.18.35-.36.26l-2.06-1.08-2.06,1.08c-.18.09-.39-.06-.36-.26l.39-2.29-1.66-1.62c-.15-.14-.07-.39.14-.42l2.3-.33,1.03-2.08c.09-.18.35-.18.44,0Z" fill="url(#AD)"/><path d="m187.3,170.84l1.03,2.08,2.3.33c.2.03.28.28.14.42l-1.66,1.62.39,2.29c.03.2-.18.35-.36.26l-2.06-1.08-2.06,1.08c-.18.09-.39-.06-.36-.26l.39-2.29-1.66-1.62c-.15-.14-.07-.39.14-.42l2.3-.33,1.03-2.08c.09-.18.35-.18.44,0Z" fill="url(#AE)"/><path d="m196.58,170.84l1.03,2.08,2.3.33c.2.03.28.28.14.42l-1.66,1.62.39,2.29c.03.2-.18.35-.36.26l-2.06-1.08-2.06,1.08c-.18.09-.39-.06-.36-.26l.39-2.29-1.66-1.62c-.15-.14-.07-.39.14-.42l2.3-.33,1.03-2.08c.09-.18.35-.18.44,0Z" fill="url(#AF)"/><path d="m205.86,170.84l1.03,2.08,2.3.33c.2.03.28.28.14.42l-1.66,1.62.39,2.29c.03.2-.18.35-.36.26l-2.06-1.08-2.06,1.08c-.18.09-.39-.06-.36-.26l.39-2.29-1.66-1.62c-.15-.14-.07-.39.14-.42l2.3-.33,1.03-2.08c.09-.18.35-.18.44,0Z" fill="url(#AG)"/><path d="m201.69,115.61c0,8.61-6.98,15.6-15.6,15.6s-15.6-6.98-15.6-15.6,6.98-15.6,15.6-15.6,15.6,6.98,15.6,15.6Z" fill="url(#AH)"/><path d="m198.63,115.61c0,6.92-5.61,12.54-12.54,12.54s-12.54-5.61-12.54-12.54,5.61-12.54,12.54-12.54,12.54,5.61,12.54,12.54Z" fill="url(#AI)"/><path d="M196.49 120.46c.02.96-.7 2.45-1.83 2.46-.37 0-.72-.11-1.08-.18a2.15 2.15 0 0 0-.67-.06c-.61.04-1.22.2-1.78.45-1.14.51-2.11 1.32-3.1 2.08-1.23.94-2.53 1.83-3.99 2.36h-1.72c-1.72-.54-3.28-1.45-4.59-2.62a11.55 11.55 0 0 1-1.24-1.28c.06-1.35.83-2.61 1.63-3.73.88-1.23 1.87-2.48 2.13-3.97.24-1.4-.2-2.85.02-4.26.26-1.73 1.58-3.26 3.26-3.77s3.63.03 4.8 1.34c.79.87 1.22 2 1.79 3.03.61 1.1 1.4 2.09 2.32 2.94l2.58 2.22c.8.81 1.44 1.85 1.46 2.99z" fill="url(#AJ)"/><path d="M187.54 120.87l-.48-2.97s.86.12 1.14.08c2.5-.36 1.54-4.5 1.14-5.91 0 0-1.68-.22-2.48-1.73 0 0 .15 1.64-.75 2.49-.86.8-1.18 2.04-1.22 2.2 0 .01-.04-.08-.12-.2-.25-.39-.88-1.15-1.68-.66-.05.03-.43.35-.45.46 0 0 0 .02-.01.03-.16.8 1.15 1.99 1.28 2.1l-.07 4.15 3.7-.06z" fill="url(#AK)"/><path d="M195.24 124.18a12.48 12.48 0 0 1-9.15 3.97c-1.32 0-2.59-.2-3.78-.58-1.72-.54-3.28-1.45-4.59-2.62l.06-.85c.63-2.58 3.9-3.16 5.09-3.28l.44-.03.53-.02c.67-.03 1.9-.03 3.35.12h0l.8.09c1.84.25 3.91.76 5.57 1.77a7.68 7.68 0 0 1 .99.7c.21.18.44.43.68.74z" fill="url(#AL)"/><path d="m187.8,119.7c.36.12.37,1.47,0,1.5-.83.06-3.67-.15-4.7-.14-.34,0-.39-1.23-.07-1.36.82-.34,3.93-.27,4.77,0Z" fill="url(#AM)"/><path d="m187.03,117.99c-.45-.06-.91-.3-1.38-.62,0,0,.1.89,1.45,1.57l-.06-.95Z" fill="#ec8b73"/><path d="M186.4 113c-.07.03-.15.07-.2.13s-.07.16-.03.23c.03.04.08.07.13.08h.16l.42-.06c.16-.02.33-.04.49-.1.16-.05.31-.14.41-.27.04-.05.07-.12.06-.18-.02-.09-.09-.1-.17-.09-.11 0-.21.01-.32.02-.21.03-.42.07-.62.13l-.34.12z" fill="url(#AN)"/><use xlink:href="#Af" fill="#47090e"/><path d="M188.51 112.6c-.07.03-.15.07-.2.13s-.07.16-.03.23c.03.04.08.07.13.08s.11 0 .16 0l.42-.06c.16-.02.33-.04.49-.1.16-.05.31-.14.41-.27.04-.05.07-.12.06-.18-.02-.09-.09-.1-.17-.09-.11 0-.21.01-.32.02-.21.03-.42.07-.62.13l-.34.12z" fill="url(#AO)"/><g fill="#ec8b73"><path d="M188.6 115.23c-.05 0-.11 0-.16-.01-.04 0-.06-.04-.06-.08s.04-.06.08-.06a.81.81 0 0 0 .38-.03c.06-.02.1-.04.13-.07s.05-.08.04-.11c-.01-.07-.11-.11-.13-.12-.03 0-.05-.02-.08-.02-.06-.02-.12-.03-.18-.07-.17-.11-.22-.32-.22-.48v-.14c0-.11 0-.22-.04-.32-.01-.04 0-.08.04-.09s.08 0 .09.04c.04.12.04.24.04.36v.14c0 .1.04.29.16.37.04.03.09.04.14.05.03 0 .06.02.09.03.13.04.21.13.23.23.01.08-.02.17-.08.23-.04.05-.1.08-.18.11a.93.93 0 0 1-.29.05zm.51.8s-.84.33-1.29.05c0 0 .76.7.93.66.17-.05.36-.71.36-.71z"/><path d="M188.74 116.81c-.21 0-.74-.47-.97-.68-.03-.02-.03-.06 0-.09.02-.03.06-.04.09-.02.41.25 1.22-.05 1.23-.06a.17.17 0 0 1 .07.01c.02.02.03.04.02.07-.05.16-.21.7-.41.76h-.03zm-.63-.56c.28.24.55.44.62.42s.19-.27.27-.53c-.19.06-.56.15-.89.11z"/></g><use xlink:href="#Af" x="-2.03" y="0.42" fill="#47090e"/><path d="m342,235.87c0,.97-9.83,1.75-21.96,1.75s-21.96-.78-21.96-1.75,9.83-1.75,21.96-1.75,21.96.78,21.96,1.75Z" fill="#f5f7ff"/><path d="M317.11 214.08c.13-2.23-.86-5.91-1.81-7.93s-2.32-3.83-3.88-5.42c-1.07-1.09-2.26-2.1-3.63-2.76-1.38-.66-2.97-.95-4.46-.58-1.48.37-2.82 1.48-3.25 2.94-.27.91-.19 1.9.09 2.82.66 2.16 2.34 3.89 4.27 5.06s4.11 1.85 6.26 2.52 4.48 2.18 6.41 3.35z" fill="url(#AP)"/><path d="M320.88 216.23c-.13-2.23.86-5.91 1.81-7.93s2.32-3.83 3.88-5.42c1.07-1.09 2.26-2.1 3.63-2.76 1.38-.66 2.97-.95 4.46-.58 1.48.37 2.82 1.48 3.25 2.94.27.91.19 1.9-.09 2.82-.66 2.16-2.34 3.89-4.27 5.06s-4.11 1.85-6.26 2.52-4.48 2.18-6.41 3.35z" fill="url(#AQ)"/><path d="m320.17,210.63s19.33-28.8.82-32.35c-18-3.46-.82,32.35-.82,32.35Z" fill="url(#AR)"/><g fill="#adc8f7"><path d="M318.81 219.91c.09 0 .17-.08.17-.17 0-8.37-12.84-17.91-13.38-18.31-.08-.06-.18-.04-.24.04s-.04.18.04.24c.13.1 13.25 9.84 13.25 18.03 0 .09.08.17.17.17h0zm1.15-.21c.09 0 .17-.07.17-.16.33-7.15 14.01-16.21 14.15-16.3.08-.05.1-.16.05-.24s-.16-.1-.24-.05c-.57.37-13.96 9.25-14.3 16.57 0 .09.07.17.16.18h0z"/><path d="M318.58 219.91c.08 0 .15-.05.17-.13 3.3-12.69 2.08-35.24 2.07-35.47 0-.09-.08-.17-.18-.16a.17.17 0 0 0-.16.18c.01.23 1.23 22.72-2.06 35.36-.02.09.03.18.12.21h.04z"/></g><path d="m310.26,218.36c-.56,0-1.02.45-1.02,1.02v7.49c0,4.21,2.59,7.79,6.24,9.3.13.06.28.08.43.08h6.89c.15,0,.29-.03.43-.08,3.65-1.51,6.24-5.09,6.24-9.3v-7.49c0-.56-.45-1.02-1.02-1.02h-18.19Z" fill="url(#AS)"/><path d="M309.25 222.25v-2.87a1.02 1.02 0 0 1 1.02-1.02h18.19a1.02 1.02 0 0 1 1.02 1.02v2.87h-20.22zm6.44 5.81c0 2.03 1.64 3.67 3.67 3.67s3.67-1.64 3.67-3.67-1.64-3.68-3.67-3.68a3.67 3.67 0 0 0-3.67 3.68z" fill="#78a7ff"/><circle class="Ad" cx="292.19" cy="55.62" r="29.75" opacity=".5" fill="#d1d1d1"/><circle cx="290.33" cy="53.76" r="29.75" fill="#fff"/><circle cx="290.33" cy="53.76" r="29.75" fill="url(#AT)" opacity=".5"/><circle cx="290.33" cy="53.76" r="27.37" transform="matrix(.211666 -.977342 .977342 .211666 176.33 326.13)" fill="url(#AU)"/><circle cx="290.33" cy="53.76" r="23.82" transform="matrix(.266902 -.963724 .963724 .266902 161.02 319.21)" fill="#fff"/><g fill="#28a6d1"><circle cx="290.33" cy="42.08" r="3.85" transform="matrix(.973259 -.22971 .22971 .973259 -1.9 67.83)"/><circle cx="290.33" cy="60.28" r="2.07" transform="matrix(.973259 -.22971 .22971 .973259 -6.08 68.32)"/><path d="M286.48 42.08l1.83 18.6 4.07-.08 1.8-18.52h-7.7z"/><circle cx="290.33" cy="66.8" r="2.49" transform="matrix(.973259 -.22971 .22971 .973259 -7.58 68.49)"/></g></g></svg>