<svg xmlns="http://www.w3.org/2000/svg" xmlns:xlink="http://www.w3.org/1999/xlink" viewBox="0 0 400 250" xmlns:v="https://vecta.io/nano"><style>.A{isolation:isolate}.Q{mix-blend-mode:multiply}</style><defs><linearGradient id="A" x1="200" y1="250" x2="200" y2="191.63" gradientUnits="userSpaceOnUse"><stop offset="0" stop-color="#dfeffb"/><stop offset="1" stop-color="#edf5fc"/></linearGradient><linearGradient id="B" x1="150.59" y1="145.59" x2="161.52" y2="145.59" gradientUnits="userSpaceOnUse"><stop offset=".05" stop-color="#fff"/></linearGradient><linearGradient id="C" x1="154.987" y1="140.674" x2="157.114" y2="150.497" gradientUnits="userSpaceOnUse"><stop offset=".36" stop-color="#78c7ee"/><stop offset=".97" stop-color="#009bdd"/></linearGradient><linearGradient id="D" y1="162.75" y2="162.75" xlink:href="#B"/><linearGradient id="E" y1="157.837" y2="167.659" xlink:href="#C" x1="154.985" x2="157.113"/><path id="F" d="m151.53,74.81c0,.76-.62,1.38-1.38,1.38s-1.38-.62-1.38-1.38.62-1.38,1.38-1.38,1.38.62,1.38,1.38Z"/><path id="G" d="M164.34 146.19h35.36v.5h-35.36z"/></defs><g class="A"><path d="M0 191.63h400V250H0z" fill="url(#A)"/><path d="M104.65 181.08c1.26 3.63.47 8.08-1.92 10.91h216.32c-1.51-6.75.11-13.95 1.81-20.74 3.17-12.7 6.59-25.69 5.26-38.71s-8.52-26.33-20.76-30.97c-15.18-5.75-33.97 2.85-47.7-5.81-13.47-8.5-14.02-28.52-25.21-39.86-7.87-7.98-19.72-10.37-30.89-11.3-27.35-2.27-55.23 2.04-80.62 12.46-6.43 2.64-13.75 7.37-13.11 14.28.84 9.13 14.11 11.3 18.37 19.41 3.27 6.21-.02 14.25-5.57 18.54-5.54 4.29-12.73 5.73-19.64 6.9s-14.09 2.29-19.95 6.14c-6.27 4.12-10.44 11.27-10.93 18.76-.48 7.49 2.73 15.12 8.41 20.01 4.25 3.65 9.59 5.71 14.52 8.38s9.76 6.32 11.61 11.61z" fill="#edf5fc"/><path d="M139.42 144.05h-.04l-1.62-.55c-.07-.03-.11-.11-.09-.18.03-.07.11-.11.18-.09l1.61.55c.07.02.12.1.09.18a.15.15 0 0 1-.14.1zm-3.2-1.16s-.04 0-.05-.01l-1.57-.67c-.07-.03-.1-.12-.07-.19s.12-.1.19-.07l1.56.67c.07.03.11.11.08.18-.02.06-.08.09-.13.09zm-3.11-1.39s-.04 0-.06-.01l-1.52-.78c-.07-.04-.09-.12-.06-.19.04-.07.12-.09.19-.06l1.51.78c.07.03.1.12.06.19-.02.05-.08.08-.13.08zm-3-1.62s-.05 0-.07-.02l-1.46-.89c-.07-.04-.09-.13-.04-.2.04-.07.13-.09.2-.04l1.45.88c.07.04.09.13.05.19a.13.13 0 0 1-.12.07zm-2.87-1.83s-.06 0-.08-.02l-1.39-.99c-.06-.05-.08-.14-.03-.2s.14-.08.2-.03l1.38.98c.06.04.08.13.04.2-.03.04-.07.06-.12.06zm-2.74-2.02s-.06 0-.09-.03l-1.32-1.08c-.06-.05-.07-.14-.02-.2s.14-.07.2-.02l1.31 1.08c.06.05.07.14.02.2-.03.04-.07.05-.11.05zm-2.59-2.21s-.07-.01-.1-.04l-1.24-1.17c-.06-.05-.06-.14 0-.2.05-.06.15-.06.2 0l1.23 1.17c.06.05.06.14 0 .2-.03.03-.07.05-.1.05zm-2.43-2.38s-.07-.01-.1-.04l-1.16-1.26c-.05-.06-.05-.15.01-.2s.15-.05.2.01l1.15 1.25c.05.06.05.15 0 .2-.03.03-.06.04-.1.04zm-2.26-2.54s-.08-.02-.11-.05l-1.07-1.33c-.05-.06-.04-.15.03-.2.06-.05.15-.04.2.03l1.06 1.33c.05.06.04.15-.02.2-.03.02-.06.03-.09.03zm-2.08-2.69s-.09-.02-.12-.06l-.97-1.4c-.04-.07-.03-.15.04-.2.07-.04.15-.03.2.04l.97 1.4c.05.06.03.15-.03.2-.02.02-.05.03-.08.03zm-1.89-2.83s-.09-.02-.12-.07l-.87-1.47c-.04-.07-.01-.15.05-.19.07-.04.15-.01.19.05l.86 1.46c.04.07.02.15-.05.2-.02.01-.05.02-.07.02zm-1.68-2.96c-.05 0-.1-.03-.13-.08l-.76-1.53c-.03-.07 0-.16.07-.19s.16 0 .19.07l.76 1.52c.04.07 0 .16-.06.19-.02.01-.04.02-.07.02zm-1.46-3.07c-.05 0-.11-.03-.13-.09l-.65-1.58c-.03-.07 0-.16.08-.18.07-.03.16 0 .18.08l.64 1.57c.03.07 0 .16-.07.19-.02 0-.04.01-.06.01zm-1.23-3.17c-.06 0-.11-.04-.13-.1l-.15-.43-.38-1.19a.15.15 0 0 1 .09-.18c.07-.02.15.02.18.09l.38 1.18.15.43c.03.07-.01.15-.09.18h-.05zm-.98-3.26c-.06 0-.12-.04-.14-.11l-.4-1.66c-.02-.08.03-.15.11-.17s.15.03.17.11l.4 1.65a.14.14 0 0 1-.1.17h-.04zm-.74-3.32a.14.14 0 0 1-.14-.12l-.28-1.68c-.01-.08.04-.15.12-.16s.15.04.16.12l.28 1.67c.01.08-.04.15-.11.17h-.03zM275 106.02c-.08 0-.14-.06-.14-.14s.06-.14.14-.14l1.7-.02c.08 0 .14.06.15.14 0 .08-.06.14-.14.15l-1.71.02zm-1.7-.02h0l-1.7-.07c-.08 0-.14-.07-.13-.15 0-.08.07-.14.15-.13l1.7.07c.08 0 .14.07.14.15s-.07.14-.14.14zm5.1-.07c-.07 0-.14-.06-.14-.13 0-.08.06-.15.13-.15l1.69-.12c.08 0 .15.05.15.13s-.05.15-.13.15l-1.7.12zm-8.5-.12l-1.71-.17c-.08 0-.13-.08-.12-.16 0-.08.08-.13.16-.12l1.69.17c.08 0 .14.08.13.15 0 .07-.07.13-.14.13zm11.89-.16c-.07 0-.13-.05-.14-.13 0-.08.05-.15.13-.16l1.68-.21c.08-.01.15.04.16.12s-.04.15-.12.16l-1.69.21zm-15.27-.23l-1.7-.27a.13.13 0 0 1 .05-.27l1.68.27c.08.01.13.08.12.16a.14.14 0 0 1-.14.12zm18.64-.24a.14.14 0 0 1-.14-.12c-.01-.08.04-.15.12-.16l1.67-.3c.08-.01.15.04.17.11.01.08-.04.15-.11.17l-1.68.3zm-22-.35h-.03l-1.66-.37c-.08-.02-.12-.09-.1-.17s.1-.12.17-.1l1.66.37c.08.02.13.09.11.17-.01.07-.07.11-.14.11zm25.34-.3c-.07 0-.12-.04-.14-.11-.02-.08.03-.15.11-.17l1.65-.39c.07-.02.15.03.17.1a.14.14 0 0 1-.1.17l-1.66.39h-.03zm-181.83-.29c-.07 0-.13-.05-.14-.13l-.16-1.7c0-.08.05-.15.13-.15s.15.05.15.13l.15 1.69c0 .08-.05.15-.13.16zm153.19-.21h-.04l-1.64-.48c-.07-.02-.12-.1-.09-.18.02-.07.1-.12.18-.09l1.63.47c.08.02.12.1.1.17-.02.06-.07.1-.14.1zm31.95-.33a.15.15 0 0 1-.14-.1c-.02-.08.02-.15.1-.17l1.63-.48a.15.15 0 0 1 .18.09c.02.07-.02.15-.09.18l-1.64.48h-.04zm-35.2-.68h-.05l-1.61-.58c-.07-.03-.11-.11-.08-.18s.11-.11.18-.08l1.6.57c.07.03.11.11.09.18-.02.06-.08.1-.13.1zm38.45-.32c-.06 0-.11-.04-.13-.1-.02-.07.01-.15.09-.18l1.6-.56c.07-.03.15.01.18.08s-.01.16-.08.18l-1.61.57h-.05zm-41.64-.86s-.04 0-.05-.01l-1.57-.66c-.07-.03-.1-.11-.07-.19.03-.07.12-.1.19-.07l1.57.66c.07.03.11.11.08.18-.02.06-.08.09-.13.09zm44.83-.31c-.06 0-.11-.03-.13-.09-.03-.07 0-.16.08-.18l1.57-.65c.07-.03.16 0 .19.07s0 .16-.07.19l-1.58.65h-.05zm-191.83-.69c-.08 0-.14-.06-.14-.14l-.04-1.71c0-.08.08-.14.14-.14.08 0 .14.06.14.14l.04 1.7c0 .08-.06.14-.14.15zm143.88-.36s-.04 0-.06-.01l-1.53-.74c-.07-.03-.1-.12-.06-.19.03-.07.12-.1.19-.06l1.53.73c.07.03.1.12.07.19-.02.05-.08.08-.13.08zm51.08-.29c-.05 0-.1-.03-.13-.08-.03-.07 0-.16.07-.19l1.53-.73c.07-.03.16 0 .19.06.03.07 0 .16-.06.19l-1.54.73c-.02 0-.04.01-.06.01zm-54.13-1.21s-.04 0-.07-.02l-1.5-.81c-.07-.04-.09-.12-.06-.19.04-.07.12-.09.19-.06l1.5.8c.07.04.1.12.06.19-.03.05-.07.08-.13.08zm57.18-.29c-.05 0-.1-.03-.13-.08-.04-.07 0-.16.06-.19l1.49-.81c.07-.04.15-.01.19.05.04.07.01.15-.05.19l-1.5.81c-.02.01-.04.02-.07.02zM106.4 97.44c-.08 0-.14-.07-.14-.15l.08-1.7c0-.08.07-.14.15-.13.08 0 .14.07.13.15l-.08 1.7c0 .08-.07.14-.14.14zm137.87-.1s-.05 0-.07-.02l-1.47-.87c-.07-.04-.09-.13-.05-.19.04-.07.13-.09.19-.05l1.46.86c.07.04.09.13.05.19a.13.13 0 0 1-.12.07zm63.13-.31s-.1-.02-.12-.07c-.04-.07-.02-.15.05-.19l1.45-.89c.07-.04.15-.02.2.04.04.07.02.15-.04.2l-1.45.89c-.02.01-.05.02-.07.02zm-66.05-1.45s-.05 0-.08-.02l-1.44-.92c-.07-.04-.08-.13-.04-.2s.13-.08.2-.04l1.43.92c.07.04.09.13.04.2-.03.04-.07.07-.12.07zm68.93-.37s-.09-.02-.12-.06c-.04-.06-.03-.15.04-.2l1.4-.97c.06-.05.15-.03.2.03s.03.15-.03.2l-1.4.97c-.02.02-.05.02-.08.02zm-203.65-1.16c-.09 0-.14-.08-.14-.16l.2-1.7c.01-.08.08-.13.16-.12s.13.08.12.16l-.2 1.69c0 .07-.07.13-.14.13zm131.87-.33s-.06 0-.08-.02l-1.41-.97c-.06-.04-.08-.13-.04-.2.05-.06.13-.08.2-.03l1.4.97c.06.04.08.13.04.2-.03.04-.07.06-.12.06zm74.55-.49s-.09-.02-.11-.06c-.05-.06-.03-.15.03-.2l1.34-1.04c.06-.05.15-.04.2.02s.04.15-.02.2l-1.35 1.05c-.03.02-.06.03-.09.03zm-77.35-1.47s-.06 0-.08-.03l-1.38-1.01c-.06-.05-.08-.14-.03-.2s.14-.08.2-.03l1.38 1c.06.05.08.13.03.2-.03.04-.07.06-.12.06zm80-.66s-.08-.02-.11-.05c-.05-.06-.04-.15.02-.2l1.28-1.12c.06-.05.15-.05.2.01s.05.15-.01.2l-1.28 1.12c-.03.02-.06.03-.09.03zm-208.62-.43c-.1-.01-.15-.09-.14-.16l.32-1.68c.02-.08.09-.13.17-.11s.13.09.11.17l-.32 1.67a.14.14 0 0 1-.14.12zm125.88-.94s-.06 0-.09-.03l-1.36-1.04c-.06-.05-.07-.14-.03-.2.05-.06.14-.07.2-.03l1.35 1.04c.06.05.07.14.03.2-.03.04-.07.06-.11.06zm85.27-.91s-.07-.01-.1-.04c-.05-.06-.05-.15 0-.2l1.21-1.19c.05-.06.14-.06.2 0 .06.05.06.14 0 .2l-1.22 1.2c-.03.03-.06.04-.1.04zm-87.97-1.17s-.06 0-.09-.03l-1.34-1.06c-.06-.05-.07-.14-.02-.2s.14-.07.2-.02l1.33 1.06c.06.05.07.14.02.2-.03.04-.07.05-.11.05zm-122.49-.31h-.03c-.08-.02-.12-.1-.1-.17l.43-1.65c.02-.08.1-.12.18-.1s.12.1.1.17l-.43 1.64c-.02.06-.07.11-.14.11zm212.85-.94s-.07-.01-.1-.04c-.06-.05-.06-.14 0-.2l1.14-1.26c.05-.06.14-.06.2-.01s.06.14.01.2l-1.14 1.27c-.03.03-.07.05-.1.05zm-93.02-.89s-.06-.01-.09-.03l-1.32-1.08c-.06-.05-.07-.14-.02-.2s.14-.07.2-.02l1.32 1.08c.06.05.07.14.02.2-.03.03-.07.05-.11.05zm-118.91-1.45h-.04c-.07-.02-.12-.1-.09-.18l.55-1.62c.03-.07.11-.11.18-.09.07.03.11.11.09.18l-.54 1.61a.15.15 0 0 1-.14.1zm214.18-.22s-.06-.01-.09-.03c-.06-.05-.07-.14-.02-.2l1.06-1.33c.05-.06.14-.07.2-.03.06.05.07.14.03.2l-1.06 1.33c-.03.03-.07.05-.11.05zm-97.9-.5s-.06-.01-.09-.03l-1.31-1.09c-.06-.05-.07-.14-.02-.2s.14-.07.2-.02l1.31 1.09c.06.05.07.14.02.2-.03.03-.07.05-.11.05zm99.98-2.19s-.06 0-.08-.03c-.06-.05-.08-.13-.03-.2l.97-1.39c.04-.06.13-.08.2-.04.06.04.08.13.04.2l-.98 1.4c-.03.04-.07.06-.11.06zm-102.59 0s-.06-.01-.09-.03l-1.3-1.1c-.06-.05-.07-.14-.02-.2s.14-.07.2-.02l1.3 1.1c.06.05.07.14.02.2-.03.03-.07.05-.11.05zm-112.52-.29s-.04 0-.05-.01c-.07-.03-.11-.11-.08-.18l.66-1.57c.03-.07.12-.1.19-.07s.1.12.07.19l-.66 1.56c-.02.06-.08.09-.13.09zm109.92-1.91s-.07-.01-.09-.03l-1.3-1.1c-.06-.05-.07-.14-.02-.2s.14-.07.2-.02l1.3 1.1c.06.05.07.14.02.2-.03.03-.07.05-.11.05zm-108.55-1.2s-.04 0-.06-.01c-.07-.03-.1-.12-.07-.19l.77-1.52c.04-.07.12-.1.19-.06s.1.12.06.19l-.77 1.51c-.02.05-.08.08-.13.08zm105.96-1s-.07-.01-.09-.03l-1.3-1.1c-.06-.05-.07-.14-.02-.2s.14-.07.2-.02l1.3 1.1c.06.05.07.14.02.2-.03.03-.07.05-.11.05zm-104.36-2s-.05 0-.07-.02c-.07-.04-.09-.13-.05-.19l.88-1.46c.04-.07.13-.09.2-.04.07.04.09.13.04.2l-.88 1.45a.13.13 0 0 1-.12.07zm101.76-.2s-.06-.01-.09-.03l-1.3-1.09c-.06-.05-.07-.14-.02-.2s.14-.07.2-.02l1.31 1.09c.06.05.07.14.02.2-.03.03-.07.05-.11.05zm-2.61-2.18s-.06-.01-.09-.03l-1.31-1.08c-.06-.05-.07-.14-.02-.2s.14-.07.2-.02l1.32 1.08c.06.05.07.14.02.2-.03.03-.07.05-.11.05zm-97.34-.5s-.06 0-.08-.02c-.06-.04-.08-.13-.04-.2l.52-.75.47-.64c.05-.06.14-.08.2-.03s.08.14.03.2l-.46.64-.52.75c-.03.04-.07.06-.12.06zm94.7-1.65s-.06-.01-.09-.03l-1.33-1.06c-.06-.05-.07-.14-.02-.2s.14-.07.2-.02l1.33 1.06c.06.05.07.14.02.2-.03.03-.07.05-.11.05zm-92.68-1.09s-.06-.01-.09-.03c-.06-.05-.07-.14-.02-.2l1.09-1.32c.05-.06.14-.07.2-.02s.07.14.01.2l-1.08 1.31c-.03.04-.07.05-.11.05zm90.01-1.02s-.06 0-.09-.03l-1.35-1.04c-.06-.05-.07-.14-.03-.2.05-.06.14-.07.2-.03l1.35 1.04c.06.05.07.14.02.2-.03.04-.07.05-.11.05zm-87.79-1.57s-.07-.01-.1-.04c-.06-.05-.06-.14 0-.2l1.18-1.23c.06-.06.14-.06.2 0s.06.14 0 .2l-1.17 1.23c-.03.03-.07.05-.1.05zm85.08-.49s-.06 0-.08-.03l-1.37-1c-.06-.05-.08-.13-.03-.2.05-.06.13-.08.2-.03l1.37 1.01c.06.05.08.14.03.2-.03.04-.07.06-.11.06zm-82.69-1.93s-.08-.01-.1-.04c-.05-.06-.05-.15 0-.2l1.26-1.15c.06-.05.15-.05.2.01s.05.15-.01.2l-1.25 1.14c-.03.03-.06.04-.1.04zm79.94-.07s-.06 0-.08-.03l-1.4-.97c-.06-.04-.08-.13-.04-.2.04-.06.13-.08.2-.04l1.4.97c.06.05.08.13.03.2-.03.04-.07.06-.12.06zm-2.81-1.92s-.05 0-.08-.02l-1.43-.92c-.07-.04-.09-.13-.04-.2.04-.07.13-.09.2-.04l1.43.93c.07.04.08.13.04.2-.03.04-.07.06-.12.06zm-74.57-.27s-.08-.02-.11-.05c-.05-.06-.04-.15.02-.2l1.34-1.06c.06-.05.15-.04.2.03.05.06.04.15-.03.2l-1.33 1.06c-.03.02-.06.03-.09.03zm71.7-1.56s-.05 0-.07-.02l-1.46-.87c-.07-.04-.09-.13-.05-.19.04-.07.13-.09.19-.05l1.46.88c.07.04.09.13.05.19-.03.04-.07.07-.12.07zm-69-.52s-.09-.02-.12-.06c-.05-.06-.03-.15.03-.2l1.4-.97c.07-.04.15-.03.2.04.04.07.03.15-.04.2l-1.4.97c-.02.02-.05.03-.08.03zm66.07-1.2s-.05 0-.07-.02l-1.49-.81c-.07-.04-.1-.12-.06-.19s.12-.09.19-.06l1.5.82c.07.04.09.12.05.19a.13.13 0 0 1-.12.07zm-63.24-.69s-.09-.02-.12-.07c-.04-.07-.02-.15.05-.2l1.46-.88c.07-.04.15-.02.19.05s.02.15-.05.19l-1.45.88c-.02.01-.05.02-.08.02zm60.23-.91s-.04 0-.06-.02l-.49-.25-1.03-.5c-.07-.03-.1-.12-.07-.19s.12-.1.19-.07l1.04.5.5.25c.07.04.1.12.06.19-.02.05-.07.08-.13.08zm-57.29-.8c-.05 0-.1-.03-.12-.07-.04-.07-.01-.16.06-.19l1.51-.79c.07-.04.16 0 .19.06.03.07 0 .16-.06.19l-1.51.78c-.02.01-.04.02-.07.02zm54.22-.66s-.04 0-.06-.01l-1.56-.67c-.07-.03-.11-.11-.08-.19.03-.07.11-.11.19-.08l1.57.68c.07.03.1.12.07.19-.02.05-.08.08-.13.08zm-51.17-.86c-.05 0-.1-.03-.13-.08-.03-.07 0-.16.07-.19l1.56-.69c.07-.03.16 0 .19.08.03.07 0 .16-.08.19l-1.55.69c-.02 0-.04.01-.06.01zm48.03-.46h-.05l-1.59-.6c-.07-.03-.11-.11-.08-.18s.11-.11.18-.08l1.6.6c.07.03.11.11.08.18-.02.06-.08.09-.13.09zm-44.9-.87c-.06 0-.11-.03-.13-.09-.03-.07 0-.16.08-.18l1.6-.59c.07-.03.15.01.18.09.03.07-.01.15-.09.18l-1.59.59h-.05zm41.7-.29h-.05l-1.62-.52c-.07-.02-.12-.1-.09-.18.02-.07.1-.12.18-.09l1.62.52c.07.02.11.11.09.18-.02.06-.08.1-.13.1zm-38.49-.85a.15.15 0 0 1-.14-.1c-.02-.07.02-.15.09-.18l1.63-.49c.08-.02.15.02.18.1.02.08-.02.15-.1.18l-1.62.49h-.04zm35.24-.16h-.04l-1.64-.44c-.08-.02-.12-.1-.1-.17.02-.08.1-.12.17-.1l1.65.44c.08.02.12.1.1.17-.02.06-.07.1-.14.1zm-31.96-.78c-.06 0-.12-.04-.14-.11a.14.14 0 0 1 .1-.17l1.66-.39c.08-.02.15.03.17.11s-.03.15-.11.17l-1.65.39h-.03zm28.67-.06h-.03l-1.66-.36c-.08-.02-.13-.09-.11-.17s.09-.13.17-.11l1.67.36c.08.02.12.09.11.17-.01.07-.07.11-.14.11zm-25.34-.67a.14.14 0 0 1-.14-.12c-.01-.08.04-.15.11-.17l1.01-.18.67-.11c.07-.01.15.04.16.12s-.04.15-.12.16l-.67.11-1.01.18h-.03zm22.01 0h-.02l-1.68-.27c-.08-.01-.13-.08-.12-.16s.08-.13.16-.12l1.68.28a.13.13 0 0 1 .11.16.14.14 0 0 1-.14.12zm-3.37-.51h-.02l-1.69-.19c-.08 0-.13-.08-.13-.15 0-.08.08-.13.16-.13l1.7.19c.08 0 .13.08.12.16 0 .07-.07.12-.14.12zm-15.28-.02a.14.14 0 0 1-.14-.12c0-.08.05-.15.12-.16l1.7-.19c.08 0 .15.05.16.13 0 .08-.05.15-.13.15l-1.69.19h-.02zm11.89-.31l-1.7-.1c-.08 0-.14-.07-.14-.15s.06-.14.15-.14l1.7.1c.08 0 .14.07.13.15 0 .07-.07.13-.14.13zm-8.5-.02c-.07 0-.14-.06-.14-.13 0-.08.05-.15.13-.15l1.7-.09c.06 0 .14.06.15.14 0 .08-.06.14-.14.15l-1.7.09zm5.1-.13h0c-.57 0-1.13-.01-1.7 0h0c-.08 0-.14-.06-.14-.14s.06-.14.14-.14h1.71c.08 0 .14.07.14.14 0 .08-.06.14-.14.14z" fill="#9bb2e1"/><g fill="#0039b2"><path d="M126.41 185.16v1.37a6.03 6.03 0 0 0 6.03 6.03h128.85a6.03 6.03 0 0 0 6.03-6.03v-1.37c0-1.03-.83-1.86-1.86-1.86H128.27c-1.03 0-1.86.83-1.86 1.86z"/><path d="M261.68 94.86v88.43H132.05V94.86c0-2.61 2.12-4.73 4.73-4.73h120.18c2.61 0 4.73 2.12 4.73 4.73z"/></g><path d="M259.64 183.29V94.86c0-1.49-1.2-2.69-2.69-2.69H136.77c-1.49 0-2.69 1.2-2.69 2.69v88.43h125.56z" fill="#fff"/><path d="m211.41,183.29l-1.86,3.15c-.27.45-.75.73-1.27.73h-22.82c-.52,0-1.01-.28-1.27-.73l-1.86-3.15h29.09Z" fill="#5388f2"/><rect x="144.4" y="68.16" width="104.94" height="108.75" rx="2.48" fill="#719bff"/><rect x="143.5" y="71.08" width="106.74" height="102.92" rx="1.89" transform="matrix(0 1 -1 0 319.41 -74.32)" fill="#fff"/><use xlink:href="#F" fill="#ffc837"/><use xlink:href="#F" x="3.66" fill="#3cd278"/><use xlink:href="#F" x="7.32" fill="#ff5252"/><g fill="#719bff"><circle cx="163.27" cy="94.6" r="11.74"/><rect x="180.26" y="84.56" width="16.6" height="6.73" rx="1.06"/></g><path d="M242.09 94.1c0 .14-.06.28-.16.38a.53.53 0 0 1-.38.16h-60.76a.54.54 0 0 1-.54-.54.53.53 0 0 1 .16-.38c.09-.1.23-.16.38-.16h60.76a.54.54 0 0 1 .54.54zm0 2.86c0 .14-.06.28-.16.38a.53.53 0 0 1-.38.16h-60.76a.54.54 0 0 1-.54-.54.53.53 0 0 1 .16-.38c.09-.1.23-.16.38-.16h60.76a.54.54 0 0 1 .54.54zm-22.47 2.87c0 .14-.06.28-.16.38a.53.53 0 0 1-.38.16H180.8a.54.54 0 0 1-.54-.54.53.53 0 0 1 .16-.38c.09-.1.23-.16.38-.16h38.28a.54.54 0 0 1 .54.54z" fill="#d7e7ff"/><path d="m242.92,133.46h-91.39c-.12,0-.21-.1-.21-.21v-21.42c0-.12.1-.21.21-.21s.21.1.21.21v21.21h91.17c.12,0,.21.1.21.21s-.1.21-.21.21Z" fill="#9bb2e1"/><g fill="#d7e7ff"><rect x="154.85" y="111.83" width="12.24" height="10.08" rx="2.48"/><path d="M242.09 113.1c0 .2-.16.37-.36.37h-71.99a.36.36 0 0 1-.36-.37c0-.21.16-.36.36-.36h71.99a.36.36 0 0 1 .36.36zm0 2.13c0 .2-.16.37-.36.37h-71.99a.36.36 0 0 1-.36-.37c0-.21.16-.36.36-.36h71.99a.36.36 0 0 1 .36.36zm0 2.13c0 .2-.16.37-.36.37h-71.99a.36.36 0 0 1-.36-.37c0-.21.16-.36.36-.36h71.99a.36.36 0 0 1 .36.36zm0 2.14c0 .2-.16.37-.36.37h-71.99a.36.36 0 0 1-.36-.37c0-.21.16-.36.36-.36h71.99a.36.36 0 0 1 .36.36zm0 2.13c0 .2-.16.37-.36.37h-71.99a.36.36 0 0 1-.36-.37c0-.21.16-.36.36-.36h71.99a.36.36 0 0 1 .36.36zm0 2.13c0 .2-.16.37-.36.37h-86.7a.36.36 0 0 1-.36-.37c0-.21.16-.36.36-.36h86.7a.36.36 0 0 1 .36.36zm0 2.14c0 .2-.16.37-.36.37h-86.7a.36.36 0 0 1-.36-.37c0-.21.16-.36.36-.36h86.7a.36.36 0 0 1 .36.36zm0 2.13c0 .2-.16.37-.36.37h-86.7a.36.36 0 0 1-.36-.37c0-.21.16-.36.36-.36h86.7a.36.36 0 0 1 .36.36zm0 2.13c0 .2-.16.37-.36.37h-86.7a.36.36 0 0 1-.36-.37c0-.21.16-.36.36-.36h86.7a.36.36 0 0 1 .36.36z"/></g><g fill="#dae3f7"><path d="m164.97,141.72h24.49c.35,0,.63.28.63.63v1.69c0,.35-.28.63-.63.63h-24.49c-.35,0-.63-.28-.63-.63v-1.69c0-.35.28-.63.63-.63Z"/><use xlink:href="#G"/><use xlink:href="#G" y="1.73"/><path d="M164.34 149.65h12.18v.5h-12.18zm.63 9.04h24.49c.35 0 .63.28.63.63v1.69c0 .35-.28.63-.63.63h-24.49c-.35 0-.63-.28-.63-.63v-1.69c0-.35.28-.63.63-.63z"/><use xlink:href="#G" y="16.97"/><use xlink:href="#G" y="18.7"/><path d="M164.34 166.63h12.18v.5h-12.18z"/></g><path d="M323.53 90.57l9.26-14.71-17.92 4.42s-.02.02 0 .03l8.64 10.26h.03z" fill="#719bff"/><g fill="#5388f2"><path d="M331.75 76.71l-11.6 9.87-1.83 2.21h-.03l-.39-4.86s0-.01.67-.38l13.18-6.84z"/><path d="M318.35 88.8l2.76-1.05s.01-.02 0-.03l-.95-1.13-1.83 2.18s0 .03.02.02zm-217.64-1.81a3.42 3.42 0 0 0 3.42 3.42h13.21c2.51 0 4.55-2.04 4.55-4.55s-2.04-4.55-4.55-4.55l-.45.02c.02-.19.03-.39.03-.59a5.42 5.42 0 0 0-5.42-5.42c-2.58 0-4.73 1.8-5.29 4.21h-.04a3.42 3.42 0 0 0-3.42 3.42c0 .3.04.59.11.87-1.27.5-2.17 1.74-2.17 3.18z"/></g><path d="M121.3 85.86c0 2.51-2.04 4.55-4.55 4.55h-13.21a3.42 3.42 0 0 1-3.42-3.42c0-1.45.9-2.68 2.17-3.18-.07-.28-.11-.57-.11-.87a3.42 3.42 0 0 1 3.42-3.42h.04a5.43 5.43 0 0 1 5.29-4.21 5.42 5.42 0 0 1 5.42 5.43c0 .2-.01.4-.03.59l.45-.02c2.51 0 4.55 2.04 4.55 4.55z" fill="#719bff"/><path d="M113.44 84.86h-1.27c-.11 0-.19.08-.19.19v3.04a.38.38 0 0 1-.38.38h-.83a.38.38 0 0 1-.38-.38v-3.04a.19.19 0 0 0-.19-.19h-1.27c-.31 0-.49-.35-.31-.6l2.25-3.18c.15-.22.47-.22.62 0l2.26 3.19a.38.38 0 0 1-.31.6z"/><path d="M112.95 84.65h-1.27c-.11 0-.19.08-.19.19v3.04a.38.38 0 0 1-.38.38h-.83a.38.38 0 0 1-.38-.38v-3.04a.19.19 0 0 0-.19-.19h-1.27a.38.38 0 0 1-.31-.6l2.25-3.18c.15-.22.47-.22.62 0l2.26 3.19a.38.38 0 0 1-.31.6z" fill="#fff"/><circle cx="286.17" cy="104.63" r="7.99" fill="#0faa43"/><circle cx="185.18" cy="54.29" r="7.57" fill="#ffc837"/><path d="M190.04 53.4a.45.45 0 0 0-.38-.43l-.42-.08c-.15-.03-.27-.12-.34-.26-.02-.05-.04-.1-.07-.14-.07-.14-.06-.3.01-.43l.21-.37c.11-.19.07-.43-.09-.57l-.98-.89c-.16-.15-.4-.16-.58-.04l-.35.24c-.12.08-.28.11-.42.05l-.15-.06a.47.47 0 0 1-.29-.31l-.11-.41c-.06-.21-.25-.35-.47-.34l-1.32.06c-.21 0-.39.17-.43.38l-.08.42c-.03.15-.12.27-.26.34a1.01 1.01 0 0 0-.15.07c-.13.07-.29.06-.42-.01l-.37-.21c-.19-.11-.42-.07-.57.09l-.89.98c-.15.16-.16.4-.04.57l.24.35c.09.12.11.28.05.42l-.06.15c-.04.14-.16.25-.31.29l-.41.11c-.21.06-.35.25-.34.47l.06 1.32a.44.44 0 0 0 .38.43l.42.07c.15.03.28.12.34.26.02.05.05.1.07.15.07.13.06.29-.02.42l-.21.37c-.11.19-.07.43.09.57l.98.89c.16.15.4.16.58.04l.35-.24c.12-.08.28-.11.42-.05l.15.06a.47.47 0 0 1 .29.31l.11.41c.06.21.25.35.47.34l1.32-.06a.45.45 0 0 0 .43-.38l.08-.42a.44.44 0 0 1 .26-.33c.05-.02.1-.05.15-.07.13-.07.3-.06.43.01l.37.21c.19.11.43.07.57-.09l.89-.98c.15-.16.16-.4.04-.58l-.25-.35c-.08-.12-.11-.28-.05-.42a.88.88 0 0 0 .05-.15.47.47 0 0 1 .31-.29l.41-.12c.21-.06.35-.25.34-.47l-.06-1.33zm-4.83 2.88a1.99 1.99 0 1 1-.04-3.98 1.99 1.99 0 1 1 .04 3.98z" fill="#fff"/><path d="M185.16 52.08c-1.22.01-2.2 1.01-2.18 2.23.01 1.22 1.01 2.2 2.23 2.18 1.22-.01 2.2-1.01 2.18-2.23-.01-1.22-1.01-2.2-2.23-2.18zm.05 4.2a1.99 1.99 0 1 1-.04-3.98 1.99 1.99 0 1 1 .04 3.98z" fill="#d7e7ff"/><g fill="#fff"><path d="M156.4 94.46c1.36.79 3.05 1.27 4.82 1.36a.75.75 0 0 1 .21.02h.21v1.25a.24.24 0 0 0 .23.23.24.24 0 0 0 .23-.23v-1.25h.21c.07 0 .14 0 .21-.02 1.8-.11 3.49-.56 4.84-1.36.07-.04.12-.11.12-.19V92.3a2.01 2.01 0 0 0-2.01-2.01h-1.36c0-.07 0-.14-.02-.21a.78.78 0 0 1-.04-.21c-.19-.63-.77-1.06-1.44-1.07h-1.51c-.67 0-1.25.44-1.43 1.07-.04.07-.04.14-.04.21-.02.07-.02.14-.02.21h-1.36c-1.11 0-2.01.88-2.01 1.99v2.01c0 .07.05.14.12.18zm3.7-4.38l.07-.21c.18-.39.56-.63.97-.62h1.5c.42 0 .79.25.97.62.04.07.05.14.07.21a.78.78 0 0 1 .04.21h-3.63c0-.07 0-.14.02-.21zm-3.36 2.22c0-.84.7-1.55 1.55-1.55h7.2c.86 0 1.55.7 1.55 1.57v1.87l-.11.05a10.25 10.25 0 0 1-4.44 1.16c-.07 0-.16 0-.23.02h-.76c-.07 0-.16 0-.23-.02a10.88 10.88 0 0 1-4.44-1.16l-.12-.05v-1.88h.02zm10.75 2.56a2.79 2.79 0 0 0-2.78 2.78c0 .67.23 1.27.62 1.74h-6.81a1.65 1.65 0 0 1-1.64-1.53l-.12-1.43c-.02-.12-.12-.21-.25-.21h-.02c-.05 0-.11.04-.14.07s-.05.11-.05.16l.12 1.44a2.11 2.11 0 0 0 2.09 1.94h6.74a2.52 2.52 0 0 0 .48-.05 2.78 2.78 0 0 0 1.76.63 2.79 2.79 0 0 0 2.78-2.78 2.77 2.77 0 0 0-2.78-2.76zm0 4.93a2.12 2.12 0 0 1-1.09-.3 5.51 5.51 0 0 1-.39-.28c-.42-.39-.67-.95-.67-1.57 0-1.2.97-2.15 2.15-2.15a2.16 2.16 0 0 1 2.15 2.15c0 1.18-.95 2.15-2.15 2.15zm.1-3.48c-.23-.09-.4.09-.4.35l.07 1.11c0 .09.02.16.05.25.04.05.09.09.16.11.05 0 .12-.05.16-.09.02-.04.04-.09.04-.12l.11-1.2c0-.09-.04-.18-.05-.26-.02-.05-.07-.11-.12-.14z"/><path d="M167.49 98.42h-.04c-.16 0-.26.14-.26.28 0 .16.14.26.28.26h.02c.16 0 .28-.12.28-.28v-.02a.29.29 0 0 0-.28-.25z"/></g><circle class="Q" cx="156.4" cy="145.93" r="5.46" opacity=".5" fill="#d1d1d1"/><circle cx="156.06" cy="145.59" r="5.46" fill="#fff"/><circle cx="156.06" cy="145.59" r="5.46" fill="url(#B)" opacity=".5"/><circle cx="156.06" cy="145.59" r="5.03" transform="matrix(.211666 -.977342 .977342 .211666 -19.27 267.29)" fill="url(#C)"/><circle cx="156.06" cy="145.59" r="4.37" transform="matrix(.266902 -.963724 .963724 .266902 -25.9 257.12)" fill="#fff"/><g fill="#28a6d1"><circle cx="156.06" cy="143.44" r=".71"/><circle cx="156.06" cy="146.78" r=".38"/><path d="M155.35 143.44l.33 3.42.75-.02.33-3.4h-1.41z"/><circle cx="156.06" cy="147.98" r=".46"/></g><circle class="Q" cx="156.4" cy="163.09" r="5.46" opacity=".5" fill="#d1d1d1"/><circle cx="156.06" cy="162.75" r="5.46" fill="#fff"/><circle cx="156.06" cy="162.75" r="5.46" opacity=".5" fill="url(#D)"/><circle cx="156.06" cy="162.75" r="5.03" transform="matrix(.211666 -.977342 .977342 .211666 -36.04 280.82)" fill="url(#E)"/><circle cx="156.06" cy="162.75" r="4.37" transform="matrix(.266902 -.963724 .963724 .266902 -42.45 269.7)" fill="#fff"/><g fill="#28a6d1"><circle cx="156.06" cy="160.61" r=".71"/><circle cx="156.06" cy="163.95" r=".38"/><path d="M155.35 160.61l.33 3.41.75-.01.33-3.4h-1.41z"/><circle cx="156.06" cy="165.15" r=".46"/></g><path d="M289.1 102.37h-.89v-.47c0-.66-.54-1.2-1.21-1.21h-1.67c-.66 0-1.2.54-1.21 1.21v.47h-.89c-.66 0-1.2.54-1.21 1.21v3.77c0 .66.54 1.2 1.21 1.21h5.86c.66 0 1.2-.54 1.21-1.21v-3.77c0-.66-.54-1.2-1.21-1.21zm-4.24-.47a.47.47 0 0 1 .47-.47H287a.47.47 0 0 1 .47.47v.47h-2.61v-.47zm-1.62 1.21h5.86a.47.47 0 0 1 .47.47h0v1.44a8.01 8.01 0 0 1-6.8 0v-1.44a.47.47 0 0 1 .47-.47zm5.86 4.71h-5.86a.47.47 0 0 1-.47-.47h0v-1.52a8.83 8.83 0 0 0 3.4.69c1.17 0 2.32-.23 3.4-.69v1.52a.47.47 0 0 1-.47.47z" fill="#fff"/></g></svg>