<svg width="68" height="80" viewBox="0 0 68 80" fill="none" xmlns="http://www.w3.org/2000/svg">
<path d="M20.3674 3.03418L11.6191 9.47504L12.289 9.62792L20.3674 10.697V3.03418Z" fill="#FFD9CE"/>
<path d="M57.8313 0H21.0037C19.6416 0.579389 9.61831 8.18124 8.58398 9.42643V67.9425C8.58398 68.8387 9.31737 69.5688 10.2179 69.5688H57.8313C58.7319 69.5688 59.4653 68.8398 59.4653 67.9425V1.62517C59.4653 0.728944 58.7319 0 57.8313 0ZM11.6201 9.47517L20.3683 3.03431V10.6971L12.2888 9.62805L11.5454 9.52945L11.6201 9.47517ZM57.1046 67.2224H10.9435V11.8171L21.3926 13.1997C21.445 13.2063 21.4963 13.2096 21.5487 13.2096C21.8329 13.2096 22.1093 13.1077 22.3267 12.9194C22.583 12.6967 22.729 12.3754 22.729 12.0364V2.34636H57.1046V67.2224Z" fill="#FF422E"/>
<path d="M27.1654 21.7899L25.5236 20.3143L27.1654 18.8387C27.4875 18.5495 27.5131 18.0543 27.2211 17.7342C26.9302 17.414 26.432 17.3885 26.1099 17.6788L24.35 19.2607L22.5901 17.6788C22.268 17.3896 21.7697 17.414 21.4788 17.7342C21.1879 18.0543 21.2125 18.5495 21.5346 18.8387L23.1763 20.3143L21.5346 21.7899C21.2125 22.079 21.1868 22.5742 21.4788 22.8944C21.6338 23.065 21.8478 23.1525 22.0629 23.1525C22.2512 23.1525 22.4396 23.086 22.5901 22.9509L24.35 21.3689L26.111 22.9509C26.2615 23.086 26.4498 23.1525 26.6382 23.1525C26.8533 23.1525 27.0673 23.0661 27.2222 22.8944C27.5131 22.5742 27.4886 22.079 27.1654 21.7899Z" fill="#FF422E"/>
<path d="M47.1048 21.16L45.4631 19.6844L47.1048 18.2088C47.4269 17.9196 47.4526 17.4244 47.1606 17.1043C46.8697 16.7841 46.3714 16.7586 46.0493 17.0489L44.2894 18.6309L42.5295 17.0489C42.2074 16.7598 41.7092 16.7841 41.4183 17.1043C41.1274 17.4244 41.1519 17.9196 41.474 18.2088L43.1158 19.6844L41.474 21.16C41.1519 21.4491 41.1263 21.9443 41.4183 22.2645C41.5732 22.4351 41.7872 22.5226 42.0023 22.5226C42.1907 22.5226 42.379 22.4562 42.5295 22.321L44.2905 20.739L46.0504 22.321C46.2009 22.4562 46.3893 22.5226 46.5776 22.5226C46.7928 22.5226 47.0068 22.4362 47.1617 22.2645C47.4526 21.9443 47.4269 21.4503 47.1048 21.16Z" fill="#FF422E"/>
<path d="M25.6585 42.506C26.1288 42.9945 26.6817 43.2316 27.3459 43.2316C28.6054 43.2316 29.2675 42.6799 29.7088 41.2619C30.1881 39.7198 30.304 37.3823 30.4523 34.4222C30.4846 33.7752 30.518 33.1139 30.5559 32.4248C30.2739 32.4957 29.9919 32.5744 29.7088 32.6619C29.078 32.8546 28.4795 33.0773 27.9177 33.3155C27.9434 33.3897 27.959 33.4684 27.9601 33.5515L28.1306 40.2006C28.1418 40.6326 27.7985 40.9916 27.3638 41.0026C27.3571 41.0026 27.3504 41.0026 27.3437 41.0026C26.9191 41.0026 26.568 40.6659 26.5579 40.2405L26.3986 34.0378C25.3776 34.5773 24.5339 35.1345 23.903 35.5943C23.8863 37.287 24.1627 40.955 25.6585 42.506Z" fill="#FFD9CE"/>
<path d="M47.0809 35.3434C43.9902 32.7744 40.7212 31.1803 37.3629 30.6064C34.6635 30.1456 31.9105 30.3405 29.182 31.1858C24.5621 32.6171 21.6375 35.3955 21.5149 35.5129C21.2028 35.8132 21.195 36.3072 21.4959 36.6174C21.6497 36.7758 21.8559 36.8556 22.0621 36.8556C22.1635 36.8556 22.2638 36.8357 22.3597 36.798C22.3842 37.26 22.4266 37.7917 22.499 38.3578C22.8066 40.7529 23.4865 42.5121 24.5209 43.5856C25.2933 44.3877 26.244 44.7942 27.3463 44.7942C29.3057 44.7942 30.5696 43.7894 31.2127 41.7223C31.75 39.9918 31.8715 37.5679 32.0241 34.4982C32.062 33.726 32.1022 32.9328 32.1512 32.0997C36.9617 31.3642 41.6351 32.8519 46.0733 36.5421C46.4066 36.819 46.9026 36.7758 47.1812 36.4435C47.4587 36.1145 47.4142 35.6215 47.0809 35.3434ZM30.4515 34.4228C30.3044 37.3829 30.1873 39.7204 29.7081 41.2625C29.2678 42.6794 28.6058 43.2322 27.3452 43.2322C26.6798 43.2322 26.1281 42.9951 25.6577 42.5066C24.162 40.9556 23.8855 37.2865 23.9012 35.5938C24.532 35.1341 25.3757 34.5768 26.3967 34.0373L26.5561 40.24C26.5672 40.6654 26.9172 41.0022 27.3418 41.0022C27.3485 41.0022 27.3552 41.0022 27.3619 41.0022C27.7966 40.9911 28.1399 40.6322 28.1287 40.2001L27.9582 33.551C27.956 33.469 27.9415 33.3892 27.9158 33.315C28.4776 33.0768 29.0761 32.8542 29.707 32.6614C29.9901 32.575 30.272 32.4963 30.554 32.4243C30.5173 33.1134 30.4838 33.7759 30.4515 34.4228Z" fill="#FF422E"/>
<path d="M61.6975 79.9999L4.44531 74.062L7.75559 46.8418L65.0078 52.7808L61.6975 79.9999Z" fill="#FFD9CE"/>
<path d="M10.3488 34.3211C10.0913 33.9732 9.59864 33.8979 9.24867 34.1538C9.16396 34.2158 7.15662 35.6926 5.01887 38.2372C3.76052 39.735 2.71728 41.2948 1.92036 42.8734C0.913903 44.8631 0.296431 46.8893 0.0846625 48.8944C-0.362281 53.1174 0.96183 57.2407 4.02244 61.1757C4.01798 61.24 4.01464 61.3053 4.01464 61.3707C4.01464 62.8762 5.2429 64.097 6.7576 64.097C8.2723 64.097 9.50056 62.8762 9.50056 61.3707C9.50056 59.8652 8.2723 58.6443 6.7576 58.6443C5.9618 58.6443 5.24624 58.9811 4.74469 59.5195C2.31603 56.1307 1.27502 52.6245 1.64841 49.0684C2.08197 44.9473 4.36127 41.4676 6.19809 39.2741C8.21658 36.8635 10.1604 35.4289 10.1804 35.4145C10.5304 35.1575 10.6051 34.6689 10.3488 34.3211Z" fill="#FF422E"/>
<path d="M67.9149 48.8946C67.7031 46.8894 67.0857 44.8632 66.0792 42.8725C65.2812 41.2938 64.2391 39.734 62.9807 38.2362C60.843 35.6916 58.8356 34.2149 58.7509 34.1528C58.4009 33.8969 57.9083 33.9723 57.6508 34.3201C57.3934 34.668 57.4691 35.1576 57.8191 35.4135C57.8381 35.4279 59.7562 36.8382 61.7725 39.2388C63.6194 41.4367 65.9131 44.9253 66.3501 49.0574C66.7011 52.3753 65.8206 55.6489 63.7319 58.8239C63.4265 58.7076 63.0955 58.6434 62.7489 58.6434C61.2342 58.6434 60.0059 59.8642 60.0059 61.3697C60.0059 62.8752 61.2342 64.0961 62.7489 64.0961C64.2636 64.0961 65.4918 62.8752 65.4918 61.3697C65.4918 60.7792 65.3024 60.232 64.9802 59.7855C67.3231 56.2737 68.3095 52.6235 67.9149 48.8946Z" fill="#FF422E"/>
<path d="M18.6476 66.3609L14.6519 65.9156C13.9129 65.8336 13.2787 65.5046 13.3701 64.6959L14.322 56.2588C14.381 55.7348 14.9394 55.2506 15.6026 55.3238L19.6886 55.7791C20.2615 55.8433 20.6929 56.3463 20.6338 56.8703C20.5725 57.4098 20.0464 57.7454 19.4735 57.6823L16.3371 57.3333L16.0652 59.7462L18.9151 60.0641C19.4423 60.1228 19.9093 60.5848 19.8491 61.1243C19.7878 61.6638 19.2885 62.0327 18.7011 61.9673L15.8512 61.6494L15.5759 64.0921L18.8627 64.4577C19.4211 64.5198 19.8703 64.995 19.8135 65.5046C19.7522 66.0441 19.2205 66.4241 18.6476 66.3609Z" fill="#FF422E"/>
<path d="M26.9212 62.7153L28.6388 66.0321C29.0523 66.8364 28.2231 67.5487 27.5454 67.4734C27.1687 67.4313 26.87 67.2308 26.7084 66.9095L24.6196 62.6865L23.5942 62.5724L23.2075 66.0044C23.1484 66.5284 22.5989 66.9383 22.026 66.8741C21.4687 66.812 21.0363 66.3091 21.0976 65.7696L22.0706 57.1375C22.1364 56.5525 22.7204 56.1172 23.3379 56.1858L25.9616 56.4783C28.7959 56.794 29.5204 58.4979 29.3421 60.0721C29.1738 61.5543 28.2654 62.4395 26.9212 62.7153ZM25.6852 58.3738L24.0869 58.1954L23.806 60.6836L25.4946 60.8719C26.5345 60.9882 27.1419 60.6149 27.23 59.8361C27.3013 59.2069 27.0572 58.5267 25.6852 58.3738Z" fill="#FF422E"/>
<path d="M36.0435 63.731L37.761 67.0478C38.1745 67.852 37.3453 68.5644 36.6676 68.489C36.2909 68.4469 35.9922 68.2464 35.8306 67.9252L33.7419 63.7021L32.7165 63.588L32.3297 67.0201C32.2706 67.5441 31.72 67.954 31.1471 67.8897C30.5887 67.8277 30.1574 67.3247 30.2187 66.7852L31.1917 58.1531C31.2575 57.5682 31.8415 57.1328 32.459 57.2015L35.0827 57.4939C37.917 57.8097 38.6415 59.5135 38.4632 61.0877C38.296 62.5711 37.3876 63.4551 36.0435 63.731ZM34.8074 59.3894L33.2091 59.211L32.9282 61.6992L34.6168 61.8875C35.6567 62.0039 36.2641 61.6305 36.3522 60.8517C36.4235 60.2225 36.1794 59.5423 34.8074 59.3894Z" fill="#FF422E"/>
<path d="M39.477 64.8263L39.8113 61.8595C40.051 59.7314 41.355 58.0564 44.1738 58.3699C46.9936 58.6834 47.8909 60.6044 47.6512 62.7325L47.3169 65.6992C47.0705 67.8872 45.5603 69.4946 42.9522 69.2032C40.3441 68.913 39.2295 67.0142 39.477 64.8263ZM41.9223 62.0944L41.588 65.0611C41.4531 66.2598 41.9313 67.1626 43.1673 67.3011C44.4034 67.4385 45.071 66.663 45.207 65.4644L45.5414 62.4976C45.6785 61.2835 45.2872 60.4205 43.9598 60.2731C42.6323 60.1247 42.0583 60.8802 41.9223 62.0944Z" fill="#FF422E"/>
<path d="M54.4369 65.7798L56.1544 69.0966C56.5679 69.9009 55.7387 70.6132 55.061 70.5379C54.6843 70.4958 54.3856 70.2952 54.224 69.974L52.1353 65.751L51.1099 65.6369L50.7231 69.0689C50.664 69.5929 50.1145 70.0028 49.5417 69.9385C48.9844 69.8765 48.5519 69.3735 48.6132 68.834L49.5862 60.2019C49.652 59.617 50.236 59.1816 50.8535 59.2503L53.4772 59.5428C56.3116 59.8585 57.036 61.5623 56.8577 63.1365C56.6905 64.6199 55.781 65.505 54.4369 65.7798ZM53.2019 61.4394L51.6036 61.261L51.3227 63.7491L53.0113 63.9375C54.0512 64.0538 54.6587 63.6805 54.7467 62.9017C54.818 62.2713 54.5739 61.5922 53.2019 61.4394Z" fill="#FF422E"/>
</svg>
