<svg width="28" height="28" viewBox="0 0 28 28" fill="none" xmlns="http://www.w3.org/2000/svg">
<g clip-path="url(#clip0_2562_2162)">
<path d="M2.03975 4.01914C1.07178 4.23242 0.262402 5.0418 0.0600586 6.0043C-0.0219727 6.41445 -0.0219727 21.5848 0.0600586 21.9949C0.262402 22.9684 1.07178 23.7723 2.06162 23.9801C2.61943 24.1004 25.3804 24.1004 25.9382 23.9801C26.8132 23.7941 27.5351 23.1707 27.8577 22.323L27.9726 22.0113L27.989 14.191C27.9999 8.54726 27.989 6.27773 27.9452 6.04258C27.7538 5.04726 26.9444 4.23242 25.9382 4.01914C25.4022 3.90429 2.55928 3.90429 2.03975 4.01914ZM25.8507 5.69805C25.9491 5.75273 26.0968 5.88945 26.1788 5.99883L26.3319 6.1957V13.9996V21.8035L26.1788 22.0004C26.0968 22.1098 25.9491 22.2465 25.8507 22.3012C25.6866 22.3887 25.014 22.3941 13.9999 22.3941C2.98584 22.3941 2.31318 22.3887 2.14912 22.3012C2.05068 22.2465 1.90303 22.1098 1.821 22.0004L1.66787 21.8035L1.65146 14.1418C1.646 9.92539 1.65146 6.40351 1.66787 6.31054C1.71162 6.07539 2.00693 5.75273 2.26943 5.65977C2.45537 5.59414 4.22725 5.5832 14.0819 5.59414C25.003 5.60508 25.6866 5.61055 25.8507 5.69805Z" fill="#03A9F4"/>
<path d="M4.75235 7.61758C4.63751 7.69414 4.52813 7.8418 4.46251 7.99492C4.36954 8.22461 4.36407 8.2793 4.42423 8.48164C4.51173 8.77148 4.73048 8.9957 5.00938 9.07227C5.31016 9.1543 22.6898 9.1543 22.9906 9.07227C23.2695 8.9957 23.4883 8.77148 23.5758 8.48164C23.6359 8.2793 23.6305 8.22461 23.5375 7.99492C23.4719 7.8418 23.3625 7.69414 23.2477 7.61758L23.0617 7.4918H14H4.93829L4.75235 7.61758Z" fill="#03A9F4"/>
<path d="M7.98432 11.0797C5.97182 11.6102 5.07495 13.9727 6.23979 15.6844L6.45307 15.9961L6.2726 16.1328C5.95542 16.3789 5.40854 16.9203 5.2226 17.1719C4.7851 17.7734 4.48432 18.5828 4.40229 19.3922C4.35854 19.8789 4.47885 20.2234 4.7687 20.3984C4.9437 20.5023 5.0312 20.5078 8.72807 20.5078H12.507L12.6874 20.382C13.0484 20.1414 13.1304 19.8133 13.0156 19.0859C12.8406 17.9758 12.239 16.9477 11.3859 16.2969L11.0031 16.0016L11.1617 15.7664C11.8289 14.7984 11.9218 13.7266 11.4296 12.693C10.8171 11.4187 9.3351 10.7242 7.98432 11.0797ZM9.19292 12.7094C9.96948 12.9828 10.3249 13.918 9.92573 14.6453C9.4937 15.4437 8.49839 15.6133 7.82026 15.0008C7.50854 14.7219 7.37182 14.4156 7.37182 14C7.37182 13.8359 7.41557 13.5953 7.46479 13.4641C7.57417 13.1961 8.00073 12.7859 8.2687 12.7039C8.52026 12.6219 8.95776 12.6219 9.19292 12.7094ZM9.22026 17.068C9.67964 17.15 10.1773 17.407 10.5382 17.7406C10.839 18.0195 11.1562 18.4789 11.2382 18.7414L11.271 18.8672H8.72807C7.32807 18.8672 6.17964 18.8508 6.17964 18.8344C6.17964 18.7195 6.51323 18.1617 6.73745 17.9156C7.36089 17.2156 8.29057 16.8984 9.22026 17.068Z" fill="#03A9F4"/>
<path d="M16.2255 11.9875C15.963 12.1461 15.7771 12.5016 15.8263 12.7859C15.8591 13.0102 15.9849 13.2016 16.2091 13.3656C16.3567 13.4805 16.4114 13.4805 19.7146 13.4805C23.0177 13.4805 23.0724 13.4805 23.22 13.3656C23.4935 13.1633 23.5919 12.9828 23.5919 12.6875C23.5919 12.3813 23.4825 12.1898 23.1872 11.9875L23.0067 11.8672H19.72C16.4442 11.8672 16.4333 11.8727 16.2255 11.9875Z" fill="#03A9F4"/>
<path d="M16.3242 15.4437C16.0344 15.575 15.8047 15.9086 15.8047 16.1984C15.8047 16.4336 16.0289 16.7891 16.2477 16.8984C16.45 17.0023 16.5813 17.0078 19.7313 17.0078H23.007L23.1875 16.882C23.4828 16.6852 23.5922 16.4937 23.5922 16.193C23.5922 15.8703 23.3898 15.5641 23.1 15.4437C22.8375 15.3344 16.5703 15.3344 16.3242 15.4437Z" fill="#03A9F4"/>
<path d="M16.3788 18.9492C16.1163 19.0422 15.8702 19.3156 15.8264 19.5672C15.7772 19.8297 15.9467 20.2234 16.1819 20.382L16.3678 20.5078H18.8288C21.1639 20.5078 21.2952 20.5023 21.4592 20.4039C21.9678 20.0867 21.9514 19.3102 21.4373 19.0039C21.2514 18.9 21.1475 18.8945 18.9217 18.8836C17.0241 18.8727 16.5592 18.8836 16.3788 18.9492Z" fill="#03A9F4"/>
</g>
<defs>
<clipPath id="clip0_2562_2162">
<rect width="28" height="28" fill="white"/>
</clipPath>
</defs>
</svg>
