<svg width="58" height="58" viewBox="0 0 58 58" fill="none" xmlns="http://www.w3.org/2000/svg">
<path d="M15.7884 0.437305C13.8134 0.874805 11.9259 2.2248 10.7634 4.06231C10.3509 4.7123 9.75092 6.4123 9.75092 6.93731V7.2248L7.10092 7.2748C4.75092 7.31231 4.35092 7.3498 3.70092 7.5998C2.28842 8.12481 1.16342 9.2248 0.575923 10.6748C0.225923 11.5623 0.200923 14.2373 0.538423 15.2123C0.838423 16.0623 1.68842 17.2123 2.35092 17.6748L2.87592 18.0373V34.6123C2.87592 52.6748 2.85092 51.9623 3.57592 53.1998C4.06342 54.0248 4.95092 54.8373 5.86342 55.2873L6.68842 55.6873L22.3759 55.7498L38.0634 55.8123L39.2759 56.4123C39.9509 56.7373 41.0509 57.1623 41.7134 57.3373C42.7759 57.6248 43.1884 57.6623 44.8759 57.6748C46.5009 57.6748 46.9884 57.6373 47.9009 57.3998C50.4884 56.7248 52.0509 55.8248 53.9384 53.9373C55.8009 52.0748 56.6884 50.5248 57.4009 47.8998C57.7884 46.4623 57.7884 43.4873 57.4009 41.9498C57.0509 40.5623 56.4509 39.1623 55.7009 38.0123L55.1259 37.1123V27.5748V18.0373L55.6509 17.6748C56.3134 17.2123 57.1634 16.0623 57.4634 15.2123C57.7759 14.2998 57.7884 11.7123 57.4634 10.7873C56.9634 9.37481 55.7259 8.12481 54.2884 7.5873C53.6509 7.3623 53.2384 7.31231 50.9759 7.2748L48.3884 7.2248L48.3009 6.7748C48.0009 4.9498 46.8759 2.9873 45.5134 1.93731C42.4009 -0.500195 38.0259 -0.225197 35.2009 2.56231C34.0384 3.7123 33.3509 5.0498 32.9509 6.8998L32.8759 7.24981H29.0259H25.1634L24.9634 6.2748C24.7134 5.1623 24.2134 4.12481 23.4634 3.1373C21.7509 0.924805 18.6259 -0.175198 15.7884 0.437305ZM18.6384 1.87481C19.4759 2.0373 20.7384 2.6123 21.4134 3.1498C22.4134 3.9498 23.3134 5.4623 23.5509 6.7748L23.6384 7.24981H22.8134C22.1384 7.24981 21.9759 7.2123 21.9259 7.0248C21.5634 5.8498 20.6884 4.7998 19.6384 4.2873C19.0259 3.9873 18.7884 3.93731 17.8134 3.93731C16.4759 3.93731 15.7759 4.2248 14.9009 5.0998C14.0634 5.9248 13.8134 6.5873 13.8134 7.93731C13.8134 9.2373 14.0384 9.7873 14.8884 10.6373C15.5384 11.2873 16.3259 11.6373 17.4134 11.7498C18.1134 11.8248 18.3384 11.9123 18.6384 12.1998C19.1009 12.6373 19.2259 13.2623 18.9634 13.8248C18.6509 14.4623 18.2384 14.6748 17.3134 14.6498C14.4009 14.5623 11.7509 12.1998 11.2509 9.2248C10.9009 7.1623 11.5259 5.18731 12.9884 3.6998C14.5009 2.1498 16.5634 1.4873 18.6384 1.87481ZM42.1009 1.93731C44.4884 2.49981 46.3384 4.4248 46.7884 6.8373L46.8759 7.24981H46.0509C45.3884 7.24981 45.2259 7.2123 45.1634 7.0248C44.9259 6.31231 44.5009 5.6123 44.0009 5.12481C42.5009 3.62481 40.1509 3.4623 38.5134 4.74981C36.2759 6.5248 36.5259 9.9498 38.9884 11.2998C39.4134 11.5248 39.9134 11.6748 40.5009 11.7373C41.5384 11.8498 41.9884 12.1248 42.2384 12.8248C42.3884 13.2498 42.3759 13.3748 42.2134 13.7748C41.9384 14.4373 41.4884 14.6873 40.6009 14.6623C39.1134 14.6123 37.6259 13.9873 36.5259 12.9498C35.2384 11.7498 34.5384 10.2873 34.4134 8.56231C34.1259 4.31231 38.0009 0.974804 42.1009 1.93731ZM18.8509 5.5748C19.3884 5.7998 19.9509 6.2998 20.2009 6.7748C20.3009 6.9623 20.3759 7.1373 20.3759 7.18731C20.3759 7.2248 19.2509 7.24981 17.8759 7.24981C15.0759 7.24981 15.1259 7.2623 15.7384 6.4123C16.4134 5.4873 17.7634 5.1123 18.8509 5.5748ZM42.4384 5.74981C42.8759 6.0123 43.6259 6.8998 43.6259 7.1498C43.6259 7.1998 42.4759 7.24981 41.0634 7.24981H38.5009L38.7509 6.7623C39.0009 6.2623 39.5634 5.74981 40.1259 5.5123C40.6384 5.2873 41.9259 5.4248 42.4384 5.74981ZM53.6259 27.0248C53.6259 31.6248 53.6009 35.3748 53.5634 35.3748C53.5259 35.3748 53.1509 35.0873 52.7259 34.7373C51.7384 33.9498 49.5259 32.8498 48.1259 32.4748C47.2134 32.2248 46.7634 32.1873 44.9384 32.1873C43.1009 32.1873 42.6634 32.2248 41.7509 32.4748C40.5634 32.7998 38.7009 33.6373 37.8134 34.2498L37.2259 34.6498L36.7259 34.1248C35.4009 32.7498 33.4884 32.6748 32.1134 33.9623C30.7384 35.2498 30.7134 37.3248 32.0509 38.6498C32.3134 38.8998 32.6884 39.1748 32.9009 39.2623C33.1509 39.3623 33.2509 39.4748 33.2134 39.6123C33.1759 39.7248 33.0009 40.2248 32.8134 40.7248C32.3634 41.9873 32.1259 43.3123 32.1259 44.6123C32.1259 45.5748 32.0884 45.7373 31.8634 45.9498C31.1009 46.6248 30.8509 48.2873 31.3384 49.3873C31.6759 50.1373 32.3884 50.8123 33.1384 51.0998C33.6259 51.2748 33.8384 51.4623 34.2634 52.0623C34.5509 52.4748 35.0634 53.1373 35.4009 53.5373L36.0259 54.2498H21.6009H7.18842L6.56342 53.9498C5.71342 53.5498 4.92592 52.7248 4.62592 51.9123C4.37592 51.2498 4.37592 50.9248 4.37592 34.9623V18.6873H29.0009H53.6259V27.0248ZM47.6884 33.9748C49.8634 34.5623 51.6634 35.6498 53.2134 37.2998C59.0384 43.5373 56.0509 53.6498 47.7009 55.8998C46.2384 56.2998 43.6134 56.2998 42.1509 55.8998C38.6509 54.9498 35.7759 52.4123 34.4634 49.1123C33.8759 47.6498 33.7134 46.6998 33.7009 44.8748C33.7009 43.4998 33.7509 42.9998 33.9759 42.1498C34.5634 39.9873 35.6134 38.2498 37.3134 36.6498C38.8759 35.1748 40.7134 34.2373 42.9384 33.7998C44.1009 33.5748 46.5134 33.6623 47.6884 33.9748Z" fill="#F55858"/>
<path d="M12.3637 21.3376C11.6762 21.4376 10.7137 22.1626 10.2887 22.8626C9.58867 24.0251 9.58867 25.1001 10.2887 26.2751C11.3262 28.0001 13.7137 28.3501 15.1887 26.9876C15.9637 26.2751 16.2637 25.5876 16.2637 24.5626C16.2637 22.4751 14.4887 21.0126 12.3637 21.3376Z" fill="#F55858"/>
<path d="M22.9894 21.3372C22.3144 21.4372 21.3394 22.1622 20.9269 22.8497C19.7144 24.8747 20.7894 27.2747 23.1269 27.7747C24.1144 27.9747 25.0644 27.6747 25.8894 26.9122C27.2894 25.5997 27.3019 23.5247 25.8894 22.2122C25.0644 21.4372 24.1394 21.1622 22.9894 21.3372Z" fill="#F55858"/>
<path d="M33.2762 21.4877C31.9762 21.9502 31.0762 23.2002 31.0762 24.5627C31.0762 25.9627 32.0512 27.2877 33.3887 27.6752C34.2012 27.9252 34.4137 27.9252 35.2012 27.6877C36.0637 27.4377 36.7637 26.8752 37.1887 26.1002C37.5012 25.5502 37.5512 25.3002 37.5512 24.5627C37.5512 22.2752 35.3887 20.7252 33.2762 21.4877Z" fill="#F55858"/>
<path d="M43.9016 21.4746C42.5766 21.9496 41.7266 23.1746 41.7266 24.5621C41.7266 26.4996 43.4766 28.0746 45.3641 27.8121C47.0891 27.5746 48.4141 25.9121 48.2141 24.2246C47.9641 22.1371 45.8391 20.7871 43.9016 21.4746Z" fill="#F55858"/>
<path d="M12.3637 33.0876C11.6762 33.1876 10.7137 33.9126 10.2887 34.6126C9.58867 35.7751 9.58867 36.8501 10.2887 38.0251C11.3262 39.7501 13.7137 40.1001 15.1887 38.7376C15.9637 38.0251 16.2762 37.3126 16.2762 36.3001C16.2637 34.2251 14.4887 32.7626 12.3637 33.0876Z" fill="#F55858"/>
<path d="M22.6891 33.2252C21.8266 33.5252 21.3141 33.9127 20.9266 34.5752C20.2516 35.7377 20.2391 36.9002 20.9141 38.0252C21.9766 39.7877 24.3516 40.1002 25.8891 38.6627C26.8891 37.7377 27.2016 36.3752 26.7141 35.1002C26.4016 34.3002 25.4641 33.4502 24.6141 33.2002C23.7891 32.9502 23.4766 32.9502 22.6891 33.2252Z" fill="#F55858"/>
<path d="M12.3637 44.837C11.6762 44.9495 10.7012 45.662 10.2887 46.362C9.58867 47.5245 9.58867 48.5995 10.2887 49.7745C10.7637 50.562 11.7012 51.187 12.6262 51.312C13.9512 51.4995 15.4012 50.687 16.0137 49.4245C16.3262 48.7495 16.3637 47.5245 16.0887 46.8495C15.8262 46.212 15.0262 45.3745 14.4387 45.112C13.9012 44.8745 12.9012 44.737 12.3637 44.837Z" fill="#F55858"/>
<path d="M22.6887 44.9751C21.8137 45.2751 21.2262 45.7626 20.8012 46.5251C20.5137 47.0751 20.4512 47.3376 20.4512 48.0626C20.4512 49.3751 21.0137 50.3126 22.1387 50.9376C23.3887 51.6126 24.9762 51.3751 25.9887 50.3626C26.8762 49.4626 27.1637 48.0501 26.7137 46.8501C26.4012 46.0501 25.4762 45.2001 24.6137 44.9501C23.7887 44.7001 23.4762 44.7001 22.6887 44.9751Z" fill="#F55858"/>
<path d="M42.7751 35.9877C40.8126 36.4877 38.8251 37.7627 37.6876 39.2752C35.4626 42.2002 35.1376 46.0252 36.8376 49.2627C37.9376 51.3752 40.2501 53.2252 42.5626 53.8252C45.0376 54.4627 47.8126 54.0127 49.9501 52.6252C50.8501 52.0377 52.1501 50.7127 52.7251 49.8002C54.3751 47.1752 54.5626 43.7252 53.1751 40.9002C52.0626 38.6127 50.0626 36.9127 47.5626 36.1252C46.3126 35.7252 44.0376 35.6627 42.7751 35.9877ZM43.2251 40.2377C43.4751 40.3752 43.9626 40.7627 44.3001 41.1127L44.9126 41.7377L45.7626 40.9377C46.3626 40.3752 46.7501 40.1127 47.0626 40.0502C48.1751 39.8502 49.2001 40.3377 49.6376 41.3002C50.1001 42.3252 49.8876 43.1127 48.8251 44.2377L48.1376 44.9502L48.7626 45.5752C49.8001 46.5752 50.0876 47.4877 49.6876 48.4627C49.4251 49.0877 49.1626 49.3627 48.5626 49.6377C47.5501 50.1127 46.6001 49.8377 45.5751 48.7627L44.9501 48.1377L44.2376 48.8252C43.1126 49.8877 42.3251 50.1002 41.3001 49.6377C40.3376 49.2002 39.8501 48.1752 40.0501 47.0627C40.1126 46.7502 40.3751 46.3627 40.9376 45.7627L41.7376 44.9127L41.1126 44.3002C40.3501 43.5502 40.0001 42.9252 40.0001 42.2627C40.0001 41.6252 40.1876 41.1502 40.6001 40.7002C41.2751 39.9877 42.3626 39.8002 43.2251 40.2377Z" fill="#F55858"/>
</svg>
