<svg width="54" height="64" viewBox="0 0 54 64" fill="none" xmlns="http://www.w3.org/2000/svg">
<path d="M7.95032 0.274891C7.21282 0.82489 7.25032 -0.150108 7.25032 18.4874V35.5999L8.35032 35.2499C10.4378 34.5749 11.3628 34.4374 13.8503 34.4374H16.1253V33.8749C16.1253 33.2374 16.4128 32.7249 16.9503 32.3624C17.3003 32.1374 17.7628 32.1249 29.3128 32.1249C41.0628 32.1249 41.3253 32.1249 41.7253 32.3749C42.9753 33.1374 42.8878 34.9874 41.5628 35.6249C41.0628 35.8624 40.7878 35.8749 30.8003 35.8749H20.5628L21.5753 36.4249C25.9128 38.7499 28.9253 42.8999 30.0253 48.0624C30.2253 49.0624 30.2378 52.6874 30.0253 53.8124C29.8128 54.9249 29.3628 56.4749 28.9628 57.4374L28.6503 58.1874L40.3503 58.2249C53.6003 58.2499 52.6503 58.3249 53.2128 57.2499L53.5003 56.7124V34.6624V12.6249H47.8503C42.2253 12.6249 42.1878 12.6249 41.7003 12.3374C40.7378 11.7874 40.7503 11.8999 40.7503 5.59989V-0.000110626H24.5378L8.31282 0.0123901L7.95032 0.274891ZM33.0003 17.4624C34.2003 18.2124 34.2003 19.9749 33.0003 20.6874C32.5753 20.9374 32.3753 20.9374 25.0003 20.9374C17.6628 20.9374 17.4253 20.9249 17.0253 20.6874C16.4253 20.3249 16.1253 19.7749 16.1253 19.0499C16.1253 18.1624 16.6128 17.5124 17.4753 17.2499C17.6628 17.1874 21.1378 17.1499 25.1878 17.1624C32.5253 17.1874 32.5628 17.1874 33.0003 17.4624ZM41.6253 24.8624C42.3128 25.2249 42.5628 25.6624 42.5628 26.4999C42.5628 27.3499 42.3003 27.8124 41.6128 28.1499C41.2128 28.3624 40.3753 28.3749 29.3128 28.3749C17.6878 28.3749 17.4253 28.3749 17.0253 28.1249C15.7753 27.3624 15.8378 25.4874 17.1253 24.8499C17.5378 24.6374 18.3753 24.6249 29.3753 24.6249C40.6378 24.6249 41.2128 24.6374 41.6253 24.8624Z" fill="#F55858"/>
<path d="M44.5 4.9125V8.875H48.375C50.5125 8.875 52.25 8.8375 52.25 8.775C52.25 8.725 50.5125 6.9375 48.375 4.8125L44.5 0.9375V4.9125Z" fill="#F55858"/>
<path d="M11.9504 38.2621C6.81289 38.9246 2.52539 42.7246 1.16289 47.8121C0.875391 48.9121 0.837891 49.2996 0.837891 50.9996C0.837891 52.6871 0.875391 53.0871 1.15039 54.1371C2.40039 58.7621 5.85039 62.2246 10.4504 63.4621C11.5379 63.7496 11.9254 63.7871 13.6254 63.7871C15.3254 63.7871 15.7129 63.7496 16.8129 63.4621C23.0379 61.7996 27.1254 55.8621 26.3754 49.5621C25.8004 44.6121 22.3629 40.3871 17.6629 38.8371C15.6879 38.1871 13.9254 38.0121 11.9504 38.2621ZM10.2254 45.3121C10.4879 45.4246 11.3004 46.1246 12.1504 46.9746L13.6254 48.4246L15.1504 46.9121C16.9504 45.1371 17.3504 44.9371 18.3129 45.2996C19.2629 45.6746 19.7504 46.5871 19.4879 47.5621C19.3754 47.9496 19.0254 48.3996 17.8379 49.5871L16.3254 51.1246L17.8379 52.6496C19.0004 53.8371 19.3754 54.2996 19.4879 54.6871C19.8879 56.1621 18.4254 57.5121 17.0504 56.9371C16.7504 56.8246 15.9879 56.1621 15.1004 55.2746L13.6254 53.8246L12.1004 55.3371C10.3754 57.0371 9.96289 57.2621 9.03789 57.0121C8.41289 56.8371 7.80039 56.1871 7.68789 55.5746C7.52539 54.7621 7.81289 54.2871 9.41289 52.6621L10.9254 51.1246L9.35039 49.5246C7.91289 48.0621 7.76289 47.8746 7.68789 47.3621C7.57539 46.6371 7.82539 46.0121 8.38789 45.5871C9.05039 45.0996 9.52539 45.0246 10.2254 45.3121Z" fill="#F55858"/>
</svg>
