<?xml version="1.0" encoding="utf-8"?>
<!-- Generator: Adobe Illustrator 25.0.0, SVG Export Plug-In . SVG Version: 6.00 Build 0)  -->
<svg version="1.1" id="Layer_1" xmlns="http://www.w3.org/2000/svg" xmlns:xlink="http://www.w3.org/1999/xlink" x="0px" y="0px"
	 viewBox="0 0 151 150" enable-background="new 0 0 151 150" xml:space="preserve">
<path fill="#9ED6FF" d="M149.68,0H1.78C1.2,0,0.73,0.48,0.73,1.05v47.46c0,0.58,0.48,1.05,1.05,1.05c0.58,0,1.05-0.48,1.05-1.05
	V2.11h145.79v46.4c0,0.58,0.48,1.05,1.05,1.05s1.05-0.48,1.05-1.05V1.05C150.73,0.48,150.25,0,149.68,0z"/>
<path fill="#9ED6FF" d="M149.68,150H1.78c-0.58,0-1.05-0.48-1.05-1.05v-47.46c0-0.58,0.48-1.05,1.05-1.05
	c0.58,0,1.05,0.48,1.05,1.05v46.4h145.79v-46.4c0-0.58,0.48-1.05,1.05-1.05s1.05,0.48,1.05,1.05v47.46
	C150.73,149.52,150.25,150,149.68,150z"/>
<g>
	<path fill="#5D586C" d="M75.48,52.27c-19.33-0.24-35.35,13.22-37.53,31.72c-0.84,7.12,0.51,14.05,2.9,20.78
		c0.54,1.53,1.49,2.53,3.19,1.9c1.72-0.64,1.7-2.03,1.1-3.52c-0.34-0.87-0.63-1.77-0.88-2.68c-1.9-6.6-2.71-13.28-1.1-20.06
		c3.53-14.91,18.24-24.62,35.47-23.5c15.44,1,28.08,13.07,29.68,28.33c0.65,6.17-2.71,10.54-8.55,11.13
		c-5.48,0.55-9.89-3.26-10.38-9.21c-0.28-3.34-1.41-6.2-3.76-8.6c-4.24-4.32-11.05-5.48-16.62-2.85c-5.6,2.64-8.51,8.08-7.67,14.74
		c1.87,14.82,10.15,24.55,24.32,29.47c1.73,0.6,4.33,1.69,5.09-0.74c0.66-2.11-1.94-2.92-3.71-3.49
		c-12.48-4.06-21.09-15.05-21.27-27.23c-0.08-5.5,3.85-9.5,9.39-9.55c5.58-0.06,8.98,3.21,9.67,9.28
		c0.86,7.58,6.65,12.8,14.16,12.77c7.29-0.04,13.36-5.27,13.92-12.35c0.2-2.49-0.12-5.1-0.63-7.56
		C108.81,64.23,93.74,52.51,75.48,52.27z"/>
	<path fill="#5D586C" d="M64.35,113.43c-6.59-7.29-10.32-15.69-10.2-25.6c0.12-10.59,8.12-18.91,19.35-20.04
		C84.18,66.71,94.42,73.93,96.43,84c0.24,1.19,0.08,2.47,0.44,3.61c0.1,0.32,0.38,0.56,0.66,0.81c1.08,0.93,2.78,0.68,3.47-0.57
		c0.09-0.16,0.16-0.33,0.19-0.51c0.23-1.35-0.01-2.82-0.29-4.19C98.3,70.63,85.93,61.86,72.96,63.3c-3.61,0.4-7.14,1.43-10.34,3.12
		c-3.74,1.98-6.96,4.85-9.28,8.36c-2.65,4.03-3.99,8.74-3.98,13.54c0,0.19,0,0.38,0.01,0.57c0.09,3.95,1.01,7.83,2.13,11.61
		c2.11,7.09,6.22,13.1,11.68,18.1c0.91,0.84,2.62,0.91,3.38,0.44c1.53-0.97,0.92-2.42-0.24-3.56
		C65.65,114.8,64.98,114.13,64.35,113.43z"/>
	<path fill="#5D586C" d="M116.12,61.61c-0.34-0.54-0.67-1.03-1.03-1.49c-0.91-1.17-1.87-2.3-2.89-3.38c-2.28-2.42-4.82-4.6-7.56-6.5
		c-2.69-1.86-5.58-3.44-8.6-4.72c-2.99-1.28-6.11-2.26-9.3-2.95c-3.18-0.69-6.42-1.08-9.67-1.18c-3.25-0.09-6.51,0.1-9.73,0.59
		c-3.22,0.49-6.39,1.28-9.45,2.37c-3.08,1.09-6.05,2.47-8.85,4.14c-2.84,1.69-5.51,3.67-7.93,5.91c-1.24,1.14-2.41,2.35-3.52,3.62
		c-0.95,1.09-2.1,2.27-2.74,3.57c-0.78,1.61,0.01,3.89,2.19,3.32c0.85-0.22,1.52-0.85,2.07-1.52c2.72-3.36,5.67-6.39,9.2-8.93
		c2.71-1.95,5.64-3.59,8.72-4.9c3.04-1.29,6.22-2.25,9.47-2.87c3.24-0.61,6.54-0.9,9.84-0.83c3.3,0.06,6.59,0.46,9.8,1.2
		c3.23,0.74,6.39,1.82,9.38,3.23c3.04,1.43,5.93,3.2,8.57,5.27c2.72,2.13,5.18,4.57,7.33,7.26c0.47,0.59,0.89,1.22,1.47,1.69
		c0.6,0.48,1.71,0.48,2.39,0.22c0.24-0.09,0.44-0.28,0.64-0.5C116.58,63.49,116.65,62.43,116.12,61.61z"/>
	<path fill="#5D586C" d="M50.75,40.9c16.36-8.04,32.76-8.11,49.17-0.12c1.46,0.71,3,1.36,3.98-0.39c1.05-1.88-0.3-2.9-1.9-3.68
		c-1.04-0.51-2.09-1-3.16-1.46c-5.92-2.57-12.27-4.13-18.71-4.62c-2.18-0.17-4.38-0.21-6.57-0.13c-8.61,0.32-17.25,2.42-24.91,6.34
		c-1.56,0.8-2.59,1.87-1.65,3.56C47.9,41.99,49.33,41.6,50.75,40.9z"/>
	<path fill="#5D586C" d="M103.13,106.86c-0.19-0.09-0.39-0.17-0.6-0.22c-1.05-0.26-2.25,0.12-3.39,0.18
		c-11.66,0.63-20.37-6.69-21.57-18.18c-0.18-1.7-0.44-3.43-2.64-3.22c-2,0.19-2.02,1.88-1.95,3.47
		c0.51,12.58,11.35,22.41,25.57,22.51c0.06,0,0.11,0,0.18-0.01c0.96-0.06,2.72,0.06,4.25-0.46c0.3-0.1,0.56-0.3,0.81-0.56
		C104.81,109.29,104.48,107.52,103.13,106.86z"/>
</g>
</svg>
