<?xml version="1.0" encoding="utf-8"?>
<!-- Generator: Adobe Illustrator 25.0.0, SVG Export Plug-In . SVG Version: 6.00 Build 0)  -->
<svg version="1.1" id="Layer_1" xmlns="http://www.w3.org/2000/svg" xmlns:xlink="http://www.w3.org/1999/xlink" x="0px" y="0px"
	 viewBox="0 0 300 200" enable-background="new 0 0 300 200" xml:space="preserve">
<path fill="#F8F7FA" d="M300,12v159.61c-25.58,10.61-78.36,27.96-150,27.96c-71.11,0-124-17.1-150-27.73V12C0,5.38,4.51,0,10.06,0
	h279.89C295.5,0,300,5.38,300,12z"/>
<rect x="100" y="50" fill="none" width="100" height="100"/>
<g>
	<path fill="#EDFBFA" d="M165.24,100.03v10.16v25.41c0,3.73-3.05,6.78-6.78,6.78h-30.49V57.69h30.49c3.73,0,6.78,3.05,6.78,6.78
		V100.03z"/>
	<path fill="#9ED6FF" d="M127.98,57.69v84.69v1.69c0,3.73-2.71,5.93-5.93,4.74l-16.09-6.44c-3.9-1.36-5.08-3.05-5.08-6.78V64.46
		c0-3.73,1.36-5.42,5.08-6.78l16.09-6.44c3.22-1.19,5.93,1.02,5.93,4.74V57.69z"/>
	<path fill="#51565F" d="M123.75,150c-0.68,0-1.36-0.17-2.03-0.34l-16.09-6.44c-4.07-1.52-5.59-3.56-5.59-7.62V64.46
		c0-4.06,1.52-6.1,5.59-7.62l16.09-6.44c1.69-0.68,3.39-0.51,4.74,0.51c1.53,1.02,2.37,2.88,2.37,5.08v88.08
		c0,2.2-0.85,4.06-2.37,5.08C125.78,149.66,124.76,150,123.75,150z M123.75,51.76c-0.51,0-1.02,0.17-1.52,0.34l-16.09,6.44
		c-3.56,1.36-4.57,2.71-4.57,5.93v71.14c0,3.39,1.02,4.74,4.57,5.93l16.09,6.44c1.19,0.51,2.37,0.34,3.22-0.17
		c1.02-0.68,1.52-2.03,1.52-3.73V56c0-1.69-0.51-3.05-1.52-3.73C125.1,51.93,124.42,51.76,123.75,51.76z M158.47,143.23h-23.71
		c-0.51,0-0.85-0.34-0.85-0.85c0-0.51,0.34-0.85,0.85-0.85h23.71c3.22,0,5.93-2.71,5.93-5.93V110.2c0-0.51,0.34-0.85,0.85-0.85
		c0.51,0,0.85,0.34,0.85,0.85v25.41C166.09,139.84,162.7,143.23,158.47,143.23z M182.18,117.82c-0.17,0-0.51,0-0.68-0.17
		c-0.34-0.34-0.34-0.85,0-1.19l15.41-15.41h-58.77c-0.51,0-0.85-0.34-0.85-0.85c0-0.51,0.34-0.85,0.85-0.85h58.94l-15.41-15.41
		c-0.34-0.34-0.34-0.85,0-1.19c0.34-0.34,0.85-0.34,1.18,0L199.8,99.7c0,0,0.17,0.17,0.17,0.34c0,0.17,0,0.17,0,0.34
		c0,0.17,0,0.17,0,0.34c0,0.17-0.17,0.17-0.17,0.17l-16.94,16.94C182.69,117.65,182.35,117.82,182.18,117.82z M121.21,105.96
		c-0.51,0-0.85-0.34-0.85-0.85V94.95c0-0.51,0.34-0.85,0.85-0.85c0.51,0,0.85,0.34,0.85,0.85v10.16
		C122.05,105.62,121.71,105.96,121.21,105.96z M165.24,90.72c-0.51,0-0.85-0.34-0.85-0.85V64.46c0-3.22-2.71-5.93-5.93-5.93h-23.88
		c-0.51,0-0.85-0.34-0.85-0.85s0.34-0.85,0.85-0.85h23.88c4.23,0,7.62,3.39,7.62,7.62v25.41C166.09,90.38,165.75,90.72,165.24,90.72
		z"/>
</g>
</svg>
