<?xml version="1.0" encoding="utf-8"?>
<!-- Generator: Adobe Illustrator 25.0.0, SVG Export Plug-In . SVG Version: 6.00 Build 0)  -->
<svg version="1.1" id="Layer_1" xmlns="http://www.w3.org/2000/svg" xmlns:xlink="http://www.w3.org/1999/xlink" x="0px" y="0px"
	 viewBox="0 0 100 100" enable-background="new 0 0 100 100" xml:space="preserve">
<path fill="#FDF1F1" d="M50,100C22.47,100,0,77.53,0,50C0,22.47,22.47,0,50,0c27.53,0,50,22.47,50,50C99.99,77.53,77.52,100,50,100z
	"/>
<path fill="#FBDDDD" d="M85.31,85.31c19.59-19.59,19.59-51.03,0-70.62C75.84,5.22,63.3,0,50,0V100C63.3,100,75.84,94.78,85.31,85.31
	z"/>
<path fill="#EA5455" d="M49.99,71.68c-11.95,0-21.68-9.72-21.68-21.68c0-6.25,2.7-12.2,7.41-16.32c1.22-1.06,3.07-0.94,4.13,0.28
	c1.06,1.22,0.94,3.07-0.28,4.13c-3.44,3.01-5.41,7.35-5.41,11.91c0,8.72,7.1,15.82,15.82,15.82c8.72,0,15.82-7.1,15.82-15.82
	c0-4.52-1.94-8.83-5.32-11.84c-1.21-1.07-1.32-2.93-0.25-4.14c1.07-1.21,2.93-1.32,4.14-0.25c4.64,4.11,7.29,10.02,7.29,16.22
	C71.67,61.95,61.95,71.68,49.99,71.68z"/>
<path fill="#D34C4C" d="M71.67,50c0-6.19-2.66-12.1-7.29-16.22c-1.21-1.07-3.06-0.96-4.14,0.25c-1.07,1.21-0.96,3.06,0.25,4.14
	c3.38,3,5.32,7.32,5.32,11.84c0,8.72-7.1,15.82-15.82,15.82v5.86C61.95,71.68,71.67,61.95,71.67,50z"/>
<path fill="#EA5455" d="M49.99,45.12c-1.62,0-2.93-1.31-2.93-2.93V26.56c0-1.62,1.31-2.93,2.93-2.93c1.62,0,2.93,1.31,2.93,2.93
	v15.62C52.92,43.81,51.61,45.12,49.99,45.12z"/>
<path fill="#D34C4C" d="M52.92,42.19V26.56c0-1.62-1.31-2.93-2.93-2.93v21.48C51.61,45.12,52.92,43.81,52.92,42.19z"/>
</svg>
