<?xml version="1.0" encoding="utf-8"?>
<!-- Generator: Adobe Illustrator 25.0.0, SVG Export Plug-In . SVG Version: 6.00 Build 0)  -->
<svg version="1.1" id="Layer_1" xmlns="http://www.w3.org/2000/svg" xmlns:xlink="http://www.w3.org/1999/xlink" x="0px" y="0px"
	 viewBox="0 0 151 150" enable-background="new 0 0 151 150" xml:space="preserve">
<path fill="#6EC2FF" d="M61.61,50.8v-9.84c0-7.44,6.08-11.45,13.54-11.45c7.44,0,13.54,4.01,13.54,11.45v9.84h8.5v-9.84
	c0-12.13-9.89-19.98-22.05-19.98c-12.18,0-22.04,7.85-22.04,19.98v9.84H61.61z"/>
<path fill="#0C8AE5" d="M105.92,78.72H44.37V59.59c0-5.88,4.77-10.66,10.66-10.66h40.24c5.88,0,10.66,4.77,10.66,10.66v19.13H105.92
	z"/>
<path fill="#0A7ACC" d="M75.15,73.6c2.62,0,4.74-2.12,4.74-4.74s-2.12-4.74-4.74-4.74c-2.62,0-4.74,2.12-4.74,4.74
	S72.53,73.6,75.15,73.6z"/>
<path fill="#0A7ACC" d="M77.74,70.83h-5.18l-0.97,5.93h7.12L77.74,70.83z"/>
<path fill="#9ED6FF" d="M41.48,115.83h12.51v14.74l19.42-14.74h35.51c10.72,0,19.45-8.74,19.45-19.5l-0.07-0.43
	c0-10.72-8.72-19.45-19.46-19.45l-67.45,0.07c-10.72,0-19.45,8.72-19.45,19.45l0.07,0.48C22,107.19,30.73,115.83,41.48,115.83z
	 M97.9,93.84l2.08-3.61l4,2.31v-4.62h4.16v4.62l4-2.31l2.08,3.61l-4,2.31l4,2.31l-2.08,3.61l-4-2.31v4.62h-4.16v-4.62l-4,2.31
	l-2.08-3.61l4-2.31L97.9,93.84z M77.29,93.84l2.08-3.61l4,2.31v-4.62h4.16v4.62l4-2.31l2.08,3.61l-4,2.31l4,2.31l-2.08,3.61l-4-2.31
	v4.62h-4.16v-4.62l-4,2.31l-2.08-3.61l4-2.31L77.29,93.84z M56.68,93.84l2.08-3.61l4,2.31v-4.62h4.16v4.62l4-2.31L73,93.84l-4,2.31
	l4,2.31l-2.08,3.61l-4-2.31v4.62h-4.16v-4.62l-4,2.31l-2.08-3.61l4-2.31L56.68,93.84z M36.07,93.84l2.08-3.61l4,2.31v-4.62h4.16
	v4.62l4-2.31l2.08,3.61l-4,2.31l4,2.31l-2.08,3.61l-4-2.31v4.62h-4.16v-4.62l-4,2.31l-2.08-3.61l4-2.31L36.07,93.84z"/>
<path fill="#0D99FF" d="M74.99,150c-5.72,0-11.44-0.66-16.99-1.95c-5.68-1.32-11.21-3.32-16.43-5.93c-0.92-0.47-1.89-0.98-2.88-1.53
	c-4.19-2.35-8.21-5.14-11.96-8.32l0.34,6.56l-5.18,0.26l-0.78-15.3l15.3-0.78l0.27,5.18l-6.35,0.32c3.43,2.88,7.08,5.41,10.89,7.54
	c0.91,0.5,1.81,0.98,2.69,1.43c9.58,4.79,20.33,7.32,31.09,7.32c19.83,0,38.79-8.39,51.99-23.02c20.96-23.22,23.89-57.87,7.13-84.26
	l-0.28-0.43l4.38-2.78l0.28,0.43c18.01,28.35,14.86,65.57-7.66,90.52c-6.71,7.44-14.73,13.37-23.83,17.62
	c-8.88,4.15-18.36,6.51-28.16,7.01C77.57,149.97,76.27,150,74.99,150z"/>
<path fill="#0D99FF" d="M11.8,115.25C-6.21,86.9-3.06,49.67,19.46,24.73C33.64,9.01,53.99,0,75.28,0C81,0,86.72,0.66,92.27,1.95
	c5.68,1.32,11.21,3.32,16.43,5.94c0.88,0.42,1.83,0.93,2.92,1.53c4.18,2.34,8.19,5.13,11.93,8.3l-0.33-6.54l5.18-0.26l0.78,15.3
	L113.88,27l-0.27-5.18l6.37-0.33c-3.43-2.88-7.09-5.41-10.9-7.55c-0.99-0.55-1.87-1.02-2.68-1.41c-9.61-4.81-20.38-7.35-31.15-7.35
	c-19.82,0-38.76,8.39-51.97,23.02C2.34,51.43-0.59,86.08,16.17,112.47l0.28,0.43l-4.38,2.78L11.8,115.25z"/>
</svg>
