<svg width="140" height="140" viewBox="0 0 140 140" fill="none" xmlns="http://www.w3.org/2000/svg">
<path fill-rule="evenodd" clip-rule="evenodd" d="M65.24 14.9794C65.1245 15.054 64.4196 15.1163 63.6734 15.1173C62.9223 15.1184 62.278 15.1821 62.23 15.2594C62.1824 15.3364 61.7099 15.3994 61.18 15.3994C60.6501 15.3994 60.1776 15.4624 60.13 15.5394C60.0824 15.6164 59.7321 15.6794 59.3516 15.6794C58.9712 15.6794 58.66 15.7424 58.66 15.8194C58.66 15.8964 58.3489 15.9594 57.9684 15.9594C57.588 15.9594 57.2376 16.0224 57.19 16.0994C57.1424 16.1764 56.8551 16.2394 56.5516 16.2394C56.2482 16.2394 56 16.3024 56 16.3794C56 16.4564 55.748 16.5194 55.44 16.5194C55.132 16.5194 54.88 16.5824 54.88 16.6594C54.88 16.7364 54.6634 16.7994 54.3984 16.7994C54.1335 16.7994 53.8776 16.8624 53.83 16.9394C53.7824 17.0164 53.5581 17.0794 53.3316 17.0794C53.1052 17.0794 52.92 17.1424 52.92 17.2194C52.92 17.2964 52.731 17.3594 52.5 17.3594C52.269 17.3594 52.08 17.4224 52.08 17.4994C52.08 17.5764 51.891 17.6394 51.66 17.6394C51.429 17.6394 51.24 17.7024 51.24 17.7794C51.24 17.8564 51.051 17.9194 50.82 17.9194C50.589 17.9194 50.4 17.9824 50.4 18.0594C50.4 18.1364 50.2425 18.1994 50.05 18.1994C49.8575 18.1994 49.7 18.2624 49.7 18.3394C49.7 18.4164 49.5464 18.4794 49.3584 18.4794C49.1705 18.4794 48.9776 18.5424 48.93 18.6194C48.8824 18.6964 48.7211 18.7594 48.5716 18.7594C48.4222 18.7594 48.3 18.8224 48.3 18.8994C48.3 18.9764 48.111 19.0394 47.88 19.0394C47.649 19.0394 47.46 19.1024 47.46 19.1794C47.46 19.2564 47.334 19.3194 47.18 19.3194C47.026 19.3194 46.9 19.3824 46.9 19.4594C46.9 19.5364 46.774 19.5994 46.62 19.5994C46.466 19.5994 46.34 19.6624 46.34 19.7394C46.34 19.8164 46.214 19.8794 46.06 19.8794C45.906 19.8794 45.78 19.9424 45.78 20.0194C45.78 20.0964 45.6582 20.1594 45.5095 20.1594C45.2092 20.1594 42.657 21.4019 42.5835 21.5843C42.5576 21.6476 42.4158 21.6994 42.2685 21.6994C42.1208 21.6994 42 21.7624 42 21.8394C42 21.9164 41.874 21.9794 41.72 21.9794C41.566 21.9794 41.44 22.0424 41.44 22.1194C41.44 22.1964 41.3574 22.2594 41.2563 22.2594C41.1555 22.2594 40.9374 22.3854 40.7722 22.5394C40.607 22.6934 40.3746 22.8194 40.256 22.8194C40.1373 22.8194 40.04 22.8824 40.04 22.9594C40.04 23.0364 39.9455 23.0994 39.83 23.0994C39.7145 23.0994 39.62 23.1624 39.62 23.2394C39.62 23.3164 39.5255 23.3794 39.41 23.3794C39.2945 23.3794 39.2 23.4424 39.2 23.5194C39.2 23.5964 39.1055 23.6594 38.99 23.6594C38.8745 23.6594 38.78 23.7224 38.78 23.7994C38.78 23.8764 38.6855 23.9394 38.57 23.9394C38.4545 23.9394 38.36 24.0024 38.36 24.0794C38.36 24.1564 38.2795 24.2194 38.1808 24.2194C38.0825 24.2194 37.911 24.3454 37.8 24.4994C37.6891 24.6534 37.5113 24.7794 37.4052 24.7794C37.2992 24.7794 37.036 24.9684 36.82 25.1994C36.6041 25.4304 36.35 25.6194 36.2551 25.6194C36.1606 25.6194 35.9811 25.736 35.8565 25.8788C35.7319 26.0212 35.441 26.2354 35.21 26.3544C34.979 26.4738 34.586 26.7664 34.3364 27.0054C34.0869 27.2441 33.8335 27.4394 33.7736 27.4394C33.6301 27.4394 32.2 28.8496 32.2 28.991C32.2 29.0512 32.0758 29.1401 31.9235 29.1884C31.4577 29.3361 27.5114 33.3866 26.628 34.6235C26.3431 35.0225 25.9368 35.5318 25.725 35.7551C25.5133 35.9784 25.34 36.2209 25.34 36.2941C25.34 36.3672 25.151 36.6035 24.92 36.8194C24.689 37.0354 24.5 37.2986 24.5 37.4046C24.5 37.5107 24.374 37.6885 24.22 37.7994C24.066 37.9104 23.94 38.0588 23.94 38.1288C23.94 38.1991 23.8294 38.3584 23.694 38.483C23.5589 38.6076 23.359 38.8827 23.2505 39.0944C23.1417 39.3062 23.0003 39.4794 22.9362 39.4794C22.8725 39.4794 22.82 39.5914 22.82 39.7286C22.82 39.8655 22.694 40.0685 22.54 40.1794C22.386 40.2904 22.26 40.4643 22.26 40.5662C22.26 40.668 22.134 40.8864 21.98 41.0516C21.826 41.2168 21.7 41.4349 21.7 41.5357C21.7 41.6368 21.637 41.7194 21.56 41.7194C21.483 41.7194 21.42 41.8454 21.42 41.9994C21.42 42.1534 21.3686 42.2794 21.3059 42.2794C21.2429 42.2794 21.0067 42.6732 20.7809 43.1544C20.5548 43.6357 20.3228 44.0504 20.265 44.076C20.2073 44.1019 20.16 44.2436 20.16 44.391C20.16 44.5387 20.097 44.6594 20.02 44.6594C19.943 44.6594 19.88 44.7854 19.88 44.9394C19.88 45.0934 19.817 45.2194 19.74 45.2194C19.663 45.2194 19.6 45.3454 19.6 45.4994C19.6 45.6534 19.537 45.7794 19.46 45.7794C19.383 45.7794 19.32 45.9054 19.32 46.0594C19.32 46.2134 19.257 46.3394 19.18 46.3394C19.103 46.3394 19.04 46.4654 19.04 46.6194C19.04 46.7734 18.977 46.8994 18.9 46.8994C18.823 46.8994 18.76 47.0254 18.76 47.1794C18.76 47.3334 18.697 47.4594 18.62 47.4594C18.543 47.4594 18.48 47.6131 18.48 47.801C18.48 47.989 18.417 48.1818 18.34 48.2294C18.263 48.277 18.2 48.4384 18.2 48.5878C18.2 48.7373 18.137 48.8594 18.06 48.8594C17.983 48.8594 17.92 48.9546 17.92 49.0712C17.92 49.1877 17.857 49.4082 17.78 49.5612C17.703 49.7141 17.577 49.9647 17.5 50.1177C17.423 50.2706 17.36 50.5226 17.36 50.6777C17.36 50.8327 17.297 50.9594 17.22 50.9594C17.143 50.9594 17.08 51.1484 17.08 51.3794C17.08 51.6104 17.017 51.7994 16.94 51.7994C16.863 51.7994 16.8 51.9531 16.8 52.141C16.8 52.329 16.737 52.5218 16.66 52.5694C16.583 52.617 16.52 52.806 16.52 52.9894C16.52 53.1728 16.457 53.3618 16.38 53.4094C16.303 53.457 16.24 53.6814 16.24 53.9078C16.24 54.1343 16.184 54.3194 16.1154 54.3194C16.0468 54.3194 15.9523 54.5399 15.9054 54.8094C15.8585 55.0789 15.7815 55.5206 15.7346 55.7908C15.6874 56.061 15.5929 56.3165 15.5246 56.3589C15.456 56.4012 15.4 56.6805 15.4 56.9794C15.4 57.2783 15.3437 57.5576 15.2747 57.6003C15.2058 57.6427 15.1155 57.9143 15.0738 58.2034C15.0318 58.4928 14.8964 59.3594 14.7721 60.1294C14.6479 60.8994 14.511 62.0649 14.468 62.7194C14.4249 63.3739 14.3332 63.9693 14.2646 64.0424C14.196 64.1156 14.14 65.2615 14.14 66.589C14.14 68.0475 14.0847 69.0373 14 69.0894C13.8177 69.2021 13.8177 70.5167 14 70.6294C14.0847 70.6816 14.14 71.678 14.14 73.1494C14.14 74.6208 14.1953 75.6173 14.28 75.6694C14.357 75.717 14.42 76.1587 14.42 76.6508C14.42 77.1429 14.4855 77.851 14.5656 78.2241C14.6454 78.5972 14.7742 79.3721 14.8512 79.9457C15.1008 81.7993 15.1477 82.0398 15.2747 82.1185C15.3437 82.1612 15.4 82.4405 15.4 82.7394C15.4 83.0383 15.456 83.3176 15.5246 83.36C15.5929 83.4023 15.6895 83.6736 15.7385 83.963C15.9562 85.2416 15.9975 85.3994 16.1154 85.3994C16.184 85.3994 16.24 85.5846 16.24 85.811C16.24 86.0375 16.303 86.2618 16.38 86.3094C16.457 86.357 16.52 86.546 16.52 86.7294C16.52 86.9128 16.583 87.1018 16.66 87.1494C16.737 87.197 16.8 87.3899 16.8 87.5778C16.8 87.7658 16.863 87.9194 16.94 87.9194C17.017 87.9194 17.08 88.1084 17.08 88.3394C17.08 88.5704 17.143 88.7594 17.22 88.7594C17.297 88.7594 17.36 88.9131 17.36 89.101C17.36 89.289 17.423 89.4818 17.5 89.5294C17.577 89.577 17.64 89.7384 17.64 89.8878C17.64 90.0373 17.703 90.1594 17.78 90.1594C17.857 90.1594 17.92 90.3169 17.92 90.5094C17.92 90.7019 17.983 90.8594 18.06 90.8594C18.137 90.8594 18.2 90.9816 18.2 91.131C18.2 91.2805 18.263 91.4418 18.34 91.4894C18.417 91.537 18.48 91.7299 18.48 91.9178C18.48 92.1058 18.543 92.2594 18.62 92.2594C18.697 92.2594 18.76 92.3854 18.76 92.5394C18.76 92.6934 18.823 92.8194 18.9 92.8194C18.977 92.8194 19.04 92.9454 19.04 93.0994C19.04 93.2534 19.103 93.3794 19.18 93.3794C19.257 93.3794 19.32 93.5054 19.32 93.6594C19.32 93.8134 19.383 93.9394 19.46 93.9394C19.537 93.9394 19.6 94.0654 19.6 94.2194C19.6 94.3734 19.663 94.4994 19.74 94.4994C19.817 94.4994 19.88 94.6254 19.88 94.7794C19.88 94.9334 19.943 95.0594 20.02 95.0594C20.097 95.0594 20.16 95.1854 20.16 95.3394C20.16 95.4934 20.223 95.6194 20.3 95.6194C20.377 95.6194 20.44 95.7059 20.44 95.8119C20.44 96.0415 21.1477 97.3495 21.308 97.416C21.3696 97.4419 21.42 97.5836 21.42 97.731C21.42 97.8787 21.483 97.9994 21.56 97.9994C21.637 97.9994 21.7 98.082 21.7 98.1832C21.7 98.284 21.826 98.502 21.98 98.6672C22.134 98.8324 22.26 99.0508 22.26 99.1527C22.26 99.2545 22.386 99.4285 22.54 99.5394C22.694 99.6504 22.82 99.8534 22.82 99.9902C22.82 100.127 22.8725 100.239 22.9362 100.239C23.0003 100.239 23.1417 100.413 23.2505 100.624C23.359 100.836 23.5589 101.111 23.694 101.236C23.8294 101.36 23.94 101.52 23.94 101.59C23.94 101.66 24.066 101.808 24.22 101.919C24.374 102.03 24.5 102.208 24.5 102.314C24.5 102.42 24.689 102.683 24.92 102.899C25.151 103.115 25.34 103.352 25.34 103.425C25.34 103.498 25.5133 103.74 25.725 103.964C25.9368 104.187 26.3368 104.688 26.6144 105.076C27.5293 106.357 31.6712 110.599 32.0075 110.599C32.1132 110.599 32.2 110.662 32.2 110.738C32.2 110.894 33.6126 112.276 33.7747 112.278C33.8324 112.279 34.1131 112.5 34.3987 112.769C34.6847 113.039 34.9587 113.259 35.0077 113.259C35.0861 113.259 35.3171 113.432 35.9391 113.957C36.0322 114.035 36.1743 114.099 36.2555 114.099C36.3363 114.099 36.6002 114.288 36.8421 114.519C37.0839 114.75 37.3527 114.939 37.4399 114.939C37.527 114.939 37.6891 115.065 37.8 115.219C37.911 115.373 38.0825 115.499 38.1808 115.499C38.2795 115.499 38.36 115.562 38.36 115.639C38.36 115.716 38.4545 115.779 38.57 115.779C38.6855 115.779 38.78 115.842 38.78 115.919C38.78 115.996 38.8745 116.059 38.99 116.059C39.1055 116.059 39.2 116.122 39.2 116.199C39.2 116.276 39.2826 116.339 39.3838 116.339C39.4846 116.339 39.7026 116.465 39.8678 116.619C40.033 116.773 40.2367 116.899 40.32 116.899C40.4033 116.899 40.607 117.025 40.7722 117.179C40.9374 117.333 41.1555 117.459 41.2563 117.459C41.3574 117.459 41.44 117.522 41.44 117.599C41.44 117.676 41.566 117.739 41.72 117.739C41.874 117.739 42 117.802 42 117.879C42 117.956 42.1208 118.019 42.2685 118.019C42.4158 118.019 42.5576 118.069 42.5835 118.131C42.6633 118.322 45.1787 119.559 45.4874 119.559C45.6484 119.559 45.78 119.622 45.78 119.699C45.78 119.776 45.906 119.839 46.06 119.839C46.214 119.839 46.34 119.902 46.34 119.979C46.34 120.056 46.466 120.119 46.62 120.119C46.774 120.119 46.9 120.182 46.9 120.259C46.9 120.336 47.026 120.399 47.18 120.399C47.334 120.399 47.46 120.462 47.46 120.539C47.46 120.616 47.649 120.679 47.88 120.679C48.111 120.679 48.3 120.742 48.3 120.819C48.3 120.896 48.4222 120.959 48.5716 120.959C48.7211 120.959 48.8824 121.022 48.93 121.099C48.9776 121.176 49.1705 121.239 49.3584 121.239C49.5464 121.239 49.7 121.302 49.7 121.379C49.7 121.456 49.8575 121.519 50.05 121.519C50.2425 121.519 50.4 121.582 50.4 121.659C50.4 121.736 50.589 121.799 50.82 121.799C51.051 121.799 51.24 121.862 51.24 121.939C51.24 122.016 51.429 122.079 51.66 122.079C51.891 122.079 52.08 122.142 52.08 122.219C52.08 122.296 52.269 122.359 52.5 122.359C52.731 122.359 52.92 122.415 52.92 122.484C52.92 122.553 53.1405 122.647 53.41 122.694C53.6795 122.741 54.1205 122.818 54.39 122.865C54.6595 122.912 54.88 123.006 54.88 123.075C54.88 123.143 55.132 123.199 55.44 123.199C55.748 123.199 56 123.262 56 123.339C56 123.416 56.2482 123.479 56.5516 123.479C56.8551 123.479 57.1424 123.542 57.19 123.619C57.2376 123.696 57.588 123.759 57.9684 123.759C58.3489 123.759 58.66 123.822 58.66 123.899C58.66 123.976 58.9712 124.039 59.3516 124.039C59.7321 124.039 60.0824 124.102 60.13 124.179C60.1776 124.256 60.6501 124.319 61.18 124.319C61.7099 124.319 62.1824 124.382 62.23 124.459C62.2787 124.538 62.9521 124.599 63.77 124.599C64.588 124.599 65.2614 124.661 65.31 124.739C65.3639 124.827 66.7086 124.879 68.88 124.879C71.0514 124.879 72.3961 124.827 72.45 124.739C72.4987 124.661 73.1721 124.599 73.99 124.599C74.808 124.599 75.4814 124.538 75.53 124.459C75.5776 124.382 76.0501 124.319 76.58 124.319C77.1099 124.319 77.5824 124.256 77.63 124.179C77.6776 124.102 78.028 124.039 78.4084 124.039C78.7889 124.039 79.1 123.976 79.1 123.899C79.1 123.822 79.415 123.759 79.8 123.759C80.185 123.759 80.5 123.696 80.5 123.619C80.5 123.542 80.7797 123.479 81.1216 123.479C81.4636 123.479 81.7824 123.416 81.83 123.339C81.8776 123.262 82.1296 123.199 82.39 123.199C82.6504 123.199 82.9024 123.136 82.95 123.059C82.9976 122.982 83.222 122.919 83.4484 122.919C83.6749 122.919 83.86 122.856 83.86 122.779C83.86 122.702 84.0805 122.639 84.35 122.639C84.6195 122.639 84.84 122.576 84.84 122.499C84.84 122.422 85.029 122.359 85.26 122.359C85.491 122.359 85.68 122.296 85.68 122.219C85.68 122.142 85.869 122.079 86.1 122.079C86.331 122.079 86.52 122.016 86.52 121.939C86.52 121.862 86.709 121.799 86.94 121.799C87.171 121.799 87.36 121.736 87.36 121.659C87.36 121.582 87.549 121.519 87.78 121.519C88.011 121.519 88.2 121.456 88.2 121.379C88.2 121.302 88.3222 121.239 88.4716 121.239C88.6211 121.239 88.7824 121.176 88.83 121.099C88.8776 121.022 89.0705 120.959 89.2584 120.959C89.4464 120.959 89.6 120.896 89.6 120.819C89.6 120.742 89.7575 120.679 89.95 120.679C90.1425 120.679 90.3 120.616 90.3 120.539C90.3 120.462 90.426 120.399 90.58 120.399C90.734 120.399 90.86 120.336 90.86 120.259C90.86 120.182 90.986 120.119 91.14 120.119C91.294 120.119 91.42 120.056 91.42 119.979C91.42 119.902 91.546 119.839 91.7 119.839C91.854 119.839 91.98 119.782 91.98 119.712C91.98 119.641 92.232 119.542 92.54 119.489C92.848 119.437 93.1 119.338 93.1 119.267C93.1 119.197 93.226 119.139 93.38 119.139C93.534 119.139 93.66 119.076 93.66 118.999C93.66 118.922 93.786 118.859 93.94 118.859C94.094 118.859 94.22 118.796 94.22 118.719C94.22 118.642 94.346 118.579 94.5 118.579C94.654 118.579 94.78 118.516 94.78 118.439C94.78 118.362 94.906 118.299 95.06 118.299C95.214 118.299 95.34 118.252 95.34 118.194C95.34 118.135 95.5448 117.997 95.795 117.886C96.0453 117.775 96.3722 117.571 96.5213 117.432C96.6707 117.293 96.8755 117.179 96.9763 117.179C97.0774 117.179 97.16 117.116 97.16 117.039C97.16 116.962 97.272 116.899 97.4092 116.899C97.5461 116.899 97.7491 116.773 97.86 116.619C97.971 116.465 98.174 116.339 98.3108 116.339C98.448 116.339 98.56 116.276 98.56 116.199C98.56 116.122 98.6426 116.059 98.7438 116.059C98.8446 116.059 99.0626 115.933 99.2278 115.779C99.393 115.625 99.5845 115.499 99.6534 115.499C99.7224 115.499 99.9761 115.31 100.218 115.079C100.46 114.848 100.739 114.659 100.838 114.659C100.937 114.659 101.109 114.533 101.22 114.379C101.331 114.225 101.476 114.099 101.541 114.099C101.606 114.099 101.748 114.021 101.855 113.924C102.16 113.651 102.373 113.488 102.9 113.122C103.17 112.936 103.485 112.682 103.6 112.559C103.716 112.437 104.031 112.182 104.3 111.994C104.57 111.806 105.177 111.274 105.65 110.811C106.123 110.348 106.987 109.528 107.569 108.989C108.152 108.45 108.631 107.959 108.634 107.898C108.637 107.837 109.144 107.289 109.76 106.679C110.376 106.07 110.88 105.517 110.88 105.45C110.88 105.383 111.195 104.992 111.58 104.579C111.965 104.167 112.28 103.778 112.28 103.714C112.28 103.649 112.469 103.399 112.7 103.157C112.931 102.916 113.12 102.661 113.12 102.592C113.12 102.523 113.278 102.309 113.47 102.117C113.663 101.924 113.82 101.689 113.82 101.594C113.82 101.499 113.946 101.33 114.1 101.219C114.254 101.108 114.38 100.919 114.38 100.799C114.38 100.679 114.506 100.49 114.66 100.379C114.814 100.268 114.94 100.079 114.94 99.9594C114.94 99.8394 115.066 99.6504 115.22 99.5394C115.374 99.4285 115.5 99.2545 115.5 99.1527C115.5 99.0508 115.626 98.8324 115.78 98.6672C115.934 98.502 116.06 98.284 116.06 98.1832C116.06 98.082 116.123 97.9994 116.2 97.9994C116.277 97.9994 116.34 97.8734 116.34 97.7194C116.34 97.5654 116.403 97.4394 116.48 97.4394C116.557 97.4394 116.62 97.3134 116.62 97.1594C116.62 97.0054 116.673 96.8794 116.736 96.8794C116.8 96.8794 116.942 96.7062 117.051 96.4944C117.16 96.2827 117.283 96.0779 117.324 96.0394C117.364 96.0009 117.733 95.2764 118.143 94.4294C118.553 93.5824 118.945 92.7799 119.014 92.6462C119.083 92.5125 119.14 92.3077 119.14 92.1912C119.14 92.0746 119.197 91.9794 119.268 91.9794C119.338 91.9794 119.438 91.7274 119.49 91.4194C119.542 91.1114 119.642 90.8594 119.712 90.8594C119.783 90.8594 119.84 90.7019 119.84 90.5094C119.84 90.3169 119.903 90.1594 119.98 90.1594C120.057 90.1594 120.12 90.0019 120.12 89.8094C120.12 89.6169 120.183 89.4594 120.26 89.4594C120.337 89.4594 120.4 89.3019 120.4 89.1094C120.4 88.9169 120.463 88.7594 120.54 88.7594C120.617 88.7594 120.68 88.5704 120.68 88.3394C120.68 88.1084 120.743 87.9194 120.82 87.9194C120.897 87.9194 120.96 87.7304 120.96 87.4994C120.96 87.2684 121.023 87.0794 121.1 87.0794C121.177 87.0794 121.24 86.8904 121.24 86.6594C121.24 86.4284 121.303 86.2394 121.38 86.2394C121.457 86.2394 121.52 86.0543 121.52 85.8278C121.52 85.6014 121.583 85.377 121.66 85.3294C121.737 85.2818 121.8 85.026 121.8 84.761C121.8 84.4961 121.863 84.2794 121.94 84.2794C122.017 84.2794 122.08 84.0589 122.08 83.7894C122.08 83.5199 122.143 83.2994 122.22 83.2994C122.297 83.2994 122.36 83.0513 122.36 82.7478C122.36 82.4444 122.423 82.157 122.5 82.1094C122.577 82.0618 122.64 81.743 122.64 81.401C122.64 81.0591 122.703 80.7794 122.78 80.7794C122.857 80.7794 122.92 80.4683 122.92 80.0878C122.92 79.7074 122.983 79.357 123.06 79.3094C123.137 79.2618 123.2 78.8611 123.2 78.419C123.2 77.977 123.258 77.5556 123.33 77.4824C123.56 77.2458 123.643 75.2165 123.643 69.8594C123.643 64.5023 123.56 62.473 123.33 62.2364C123.258 62.1633 123.2 61.7419 123.2 61.2998C123.2 60.8578 123.137 60.457 123.06 60.4094C122.983 60.3618 122.92 60.0115 122.92 59.631C122.92 59.2506 122.857 58.9394 122.78 58.9394C122.703 58.9394 122.64 58.6598 122.64 58.3178C122.64 57.9759 122.577 57.657 122.5 57.6094C122.423 57.5618 122.36 57.2745 122.36 56.971C122.36 56.6676 122.297 56.4194 122.22 56.4194C122.143 56.4194 122.08 56.1989 122.08 55.9294C122.08 55.6599 122.017 55.4394 121.94 55.4394C121.863 55.4394 121.8 55.2228 121.8 54.9578C121.8 54.6929 121.737 54.437 121.66 54.3894C121.583 54.3418 121.52 54.1175 121.52 53.891C121.52 53.6646 121.457 53.4794 121.38 53.4794C121.303 53.4794 121.24 53.2904 121.24 53.0594C121.24 52.8284 121.177 52.6394 121.1 52.6394C121.023 52.6394 120.96 52.4504 120.96 52.2194C120.96 51.9884 120.897 51.7994 120.82 51.7994C120.743 51.7994 120.68 51.6104 120.68 51.3794C120.68 51.1484 120.617 50.9594 120.54 50.9594C120.463 50.9594 120.4 50.8019 120.4 50.6094C120.4 50.4169 120.337 50.2594 120.26 50.2594C120.183 50.2594 120.12 50.1334 120.12 49.9794C120.12 49.8254 120.057 49.6994 119.98 49.6994C119.903 49.6994 119.84 49.5104 119.84 49.2794C119.84 49.0484 119.783 48.8594 119.712 48.8594C119.642 48.8594 119.542 48.6074 119.49 48.2994C119.438 47.9914 119.338 47.7394 119.268 47.7394C119.197 47.7394 119.14 47.6372 119.14 47.5123C119.14 47.2442 117.734 44.3308 117.571 44.2629C117.51 44.237 117.46 44.0952 117.46 43.9479C117.46 43.8002 117.397 43.6794 117.32 43.6794C117.243 43.6794 117.18 43.5968 117.18 43.4957C117.18 43.3949 117.054 43.1768 116.9 43.0116C116.746 42.8464 116.62 42.614 116.62 42.4954C116.62 42.3767 116.557 42.2794 116.48 42.2794C116.403 42.2794 116.34 42.1821 116.34 42.0635C116.34 41.9448 116.214 41.7124 116.06 41.5472C115.906 41.382 115.78 41.164 115.78 41.0632C115.78 40.962 115.717 40.8794 115.64 40.8794C115.563 40.8794 115.5 40.7674 115.5 40.6302C115.5 40.4934 115.374 40.2904 115.22 40.1794C115.066 40.0685 114.94 39.8795 114.94 39.7594C114.94 39.6394 114.814 39.4504 114.66 39.3394C114.506 39.2285 114.38 39.0395 114.38 38.9194C114.38 38.7994 114.254 38.6104 114.1 38.4994C113.946 38.3885 113.82 38.2198 113.82 38.1249C113.82 38.0297 113.663 37.7945 113.47 37.602C113.278 37.4095 113.12 37.1957 113.12 37.1267C113.12 37.0574 112.931 36.8033 112.7 36.5615C112.469 36.3196 112.28 36.0659 112.28 35.9976C112.28 35.929 112.028 35.6137 111.72 35.2962C111.412 34.9788 111.16 34.662 111.16 34.592C111.16 34.2952 105.302 28.4303 104.294 27.7173C104.028 27.5294 103.674 27.2413 103.508 27.0772C103.342 26.913 102.964 26.6313 102.668 26.4514C102.372 26.2711 102.028 26.0104 101.904 25.8718C101.779 25.7328 101.62 25.6194 101.549 25.6194C101.479 25.6194 101.331 25.4934 101.22 25.3394C101.109 25.1854 100.937 25.0594 100.838 25.0594C100.739 25.0594 100.46 24.8704 100.218 24.6394C99.9761 24.4084 99.7224 24.2194 99.6534 24.2194C99.5845 24.2194 99.393 24.0934 99.2278 23.9394C99.0626 23.7854 98.8446 23.6594 98.7438 23.6594C98.6426 23.6594 98.56 23.5964 98.56 23.5194C98.56 23.4424 98.448 23.3794 98.3108 23.3794C98.174 23.3794 97.971 23.2534 97.86 23.0994C97.7491 22.9454 97.5461 22.8194 97.4092 22.8194C97.272 22.8194 97.16 22.7641 97.16 22.6966C97.16 22.6287 96.971 22.495 96.74 22.3994C96.509 22.3039 96.3197 22.1859 96.3197 22.1373C96.3193 22.089 95.9728 21.8919 95.55 21.6994C95.1272 21.5069 94.7807 21.3022 94.7804 21.2444C94.7804 21.1867 94.654 21.1394 94.5 21.1394C94.346 21.1394 94.22 21.0764 94.22 20.9994C94.22 20.9224 94.135 20.8594 94.031 20.8594C93.9267 20.8594 93.5456 20.7019 93.1833 20.5094C92.8214 20.3169 92.4025 20.1594 92.2527 20.1594C92.1025 20.1594 91.98 20.0964 91.98 20.0194C91.98 19.9424 91.854 19.8794 91.7 19.8794C91.546 19.8794 91.42 19.8164 91.42 19.7394C91.42 19.6624 91.294 19.5994 91.14 19.5994C90.986 19.5994 90.86 19.5364 90.86 19.4594C90.86 19.3824 90.734 19.3194 90.58 19.3194C90.426 19.3194 90.3 19.2564 90.3 19.1794C90.3 19.1024 90.1425 19.0394 89.95 19.0394C89.7575 19.0394 89.6 18.9764 89.6 18.8994C89.6 18.8224 89.4425 18.7594 89.25 18.7594C89.0575 18.7594 88.9 18.6964 88.9 18.6194C88.9 18.5424 88.7425 18.4794 88.55 18.4794C88.3575 18.4794 88.2 18.4164 88.2 18.3394C88.2 18.2624 88.011 18.1994 87.78 18.1994C87.549 18.1994 87.36 18.1364 87.36 18.0594C87.36 17.9824 87.171 17.9194 86.94 17.9194C86.709 17.9194 86.52 17.8564 86.52 17.7794C86.52 17.7024 86.331 17.6394 86.1 17.6394C85.869 17.6394 85.68 17.5764 85.68 17.4994C85.68 17.4224 85.491 17.3594 85.26 17.3594C85.029 17.3594 84.84 17.2964 84.84 17.2194C84.84 17.1424 84.6195 17.0794 84.35 17.0794C84.0805 17.0794 83.86 17.0164 83.86 16.9394C83.86 16.8624 83.6749 16.7994 83.4484 16.7994C83.222 16.7994 82.9976 16.7364 82.95 16.6594C82.9024 16.5824 82.6504 16.5194 82.39 16.5194C82.1296 16.5194 81.8776 16.4564 81.83 16.3794C81.7824 16.3024 81.4636 16.2394 81.1216 16.2394C80.7797 16.2394 80.5 16.1764 80.5 16.0994C80.5 16.0224 80.2204 15.9594 79.8784 15.9594C79.5365 15.9594 79.2176 15.8964 79.17 15.8194C79.1224 15.7424 78.7759 15.6794 78.4 15.6794C78.0241 15.6794 77.6776 15.6164 77.63 15.5394C77.5824 15.4624 77.1099 15.3994 76.58 15.3994C76.0501 15.3994 75.5776 15.3364 75.53 15.2594C75.4814 15.1807 74.808 15.1194 73.99 15.1194C73.1721 15.1194 72.4987 15.0582 72.45 14.9794C72.3359 14.7946 65.526 14.7946 65.24 14.9794ZM72.24 28.9759C74.3243 29.174 75.7813 29.4008 78.05 29.8796C79.2967 30.1432 79.3076 30.146 81.76 30.9426C84.4739 31.8242 87.0338 32.9666 89.39 34.3481C89.929 34.6641 90.5429 35.0187 90.7543 35.1359C92.3419 36.0176 95.7443 38.7542 97.8005 40.8035C115.541 58.4869 113.5 87.6394 93.4682 102.692C92.1589 103.676 90.8548 104.569 90.1142 104.988C89.8314 105.149 89.3638 105.413 89.075 105.578C84.4106 108.226 79.4332 109.863 73.85 110.587C69.6115 111.136 66.5791 111.063 62.09 110.303C39.8146 106.531 24.7503 85.46 28.4211 63.2094C28.7088 61.4668 28.8596 60.8014 29.5327 58.3094C29.7406 57.5401 30.3846 55.6529 30.5232 55.4062C30.5984 55.2725 30.66 55.0985 30.66 55.0198C30.66 54.7146 32.3292 51.1883 33.2031 49.6476C38.073 41.0607 46.3845 34.1556 55.51 31.1155C59.3135 29.8485 62.0302 29.286 66.08 28.9276C67.199 28.8286 71.0042 28.8583 72.24 28.9759Z" fill="#03A8F4"/>
<path fill-rule="evenodd" clip-rule="evenodd" d="M19.6004 12.3197C19.6004 12.3967 19.3484 12.4597 19.0404 12.4597C18.7324 12.4597 18.4804 12.5227 18.4804 12.5997C18.4804 12.6767 18.3544 12.7397 18.2004 12.7397C18.0464 12.7397 17.9204 12.8027 17.9204 12.8797C17.9204 12.9567 17.7944 13.0197 17.6404 13.0197C17.4864 13.0197 17.3604 13.0827 17.3604 13.1597C17.3604 13.2367 17.2648 13.2997 17.1479 13.2997C16.7083 13.2997 14.7004 15.5355 14.7004 16.0248C14.7004 16.1431 14.6374 16.2397 14.5604 16.2397C14.4834 16.2397 14.4204 16.4287 14.4204 16.6597C14.4204 16.8907 14.3574 17.0797 14.2804 17.0797C14.2027 17.0797 14.1404 17.4531 14.1404 17.9197C14.1404 18.3862 14.0781 18.7597 14.0004 18.7597C13.9234 18.7597 13.8604 18.9802 13.8604 19.2497C13.8604 19.5192 13.9234 19.7397 14.0004 19.7397C14.0781 19.7397 14.1404 20.1131 14.1404 20.5797C14.1404 21.0462 14.2027 21.4197 14.2804 21.4197C14.3574 21.4197 14.4204 21.6087 14.4204 21.8397C14.4204 22.0707 14.4834 22.2597 14.5604 22.2597C14.6374 22.2597 14.7004 22.371 14.7004 22.5071C14.7004 23.0507 16.6957 25.3397 17.1693 25.3397C17.2743 25.3397 17.3604 25.4027 17.3604 25.4797C17.3604 25.5567 17.4864 25.6197 17.6404 25.6197C17.7944 25.6197 17.9204 25.669 17.9204 25.7292C17.9204 26.4338 22.7315 26.4583 24.1504 25.7607C25.1104 25.2889 26.8804 23.7538 26.8804 23.3933C26.8804 23.3023 27.0064 23.0927 27.1604 22.9275C27.3144 22.7623 27.4404 22.5166 27.4404 22.3815C27.4404 22.2467 27.5034 22.0973 27.5804 22.0497C27.6574 22.0021 27.7204 21.8131 27.7204 21.6297C27.7204 21.4463 27.7834 21.2573 27.8604 21.2097C27.9423 21.1589 28.0004 20.3476 28.0004 19.2497C28.0004 18.1517 27.9423 17.3404 27.8604 17.2897C27.7834 17.2421 27.7204 17.0531 27.7204 16.8697C27.7204 16.6863 27.6574 16.4973 27.5804 16.4497C27.5034 16.4021 27.4404 16.2407 27.4404 16.0913C27.4404 15.9418 27.3774 15.8197 27.3004 15.8197C27.2234 15.8197 27.1604 15.7252 27.1604 15.6097C27.1604 15.4942 27.0974 15.3997 27.0204 15.3997C26.9434 15.3997 26.8804 15.3339 26.8804 15.2534C26.8804 15.1729 26.7386 14.9562 26.5654 14.7721C26.3921 14.588 26.0929 14.2461 25.9004 14.0126C25.7079 13.7792 25.4716 13.5863 25.3754 13.5839C25.2791 13.5814 25.2004 13.5167 25.2004 13.4397C25.2004 13.3627 25.1059 13.2997 24.9904 13.2997C24.8749 13.2997 24.7804 13.2367 24.7804 13.1597C24.7804 13.0827 24.6544 13.0197 24.5004 13.0197C24.3464 13.0197 24.2204 12.9567 24.2204 12.8797C24.2204 12.8027 24.0944 12.7397 23.9404 12.7397C23.7864 12.7397 23.6604 12.6767 23.6604 12.5997C23.6604 12.5227 23.4084 12.4597 23.1004 12.4597C22.7924 12.4597 22.5404 12.3967 22.5404 12.3197C22.5404 12.2353 21.9569 12.1797 21.0704 12.1797C20.1838 12.1797 19.6004 12.2353 19.6004 12.3197ZM84.2104 55.5251C82.6063 55.9297 82.9773 55.5954 72.2792 66.2694L62.1681 76.3578L58.9068 73.1157C56.2587 70.4837 55.4985 69.8068 54.8632 69.516C49.8376 67.2151 44.9082 72.8613 48.0239 77.3497C48.2972 77.7434 61.2227 90.7879 62.0984 91.5537C62.2255 91.6647 89.6014 64.2177 89.9504 63.6297C92.3325 59.6155 88.6435 54.4072 84.2104 55.5251ZM111.16 119C111.16 119.077 110.971 119.14 110.74 119.14C110.509 119.14 110.32 119.203 110.32 119.28C110.32 119.357 110.194 119.42 110.04 119.42C109.886 119.42 109.76 119.483 109.76 119.56C109.76 119.637 109.648 119.7 109.51 119.7C109.232 119.7 107.94 120.942 107.94 121.21C107.94 121.303 107.877 121.38 107.8 121.38C107.723 121.38 107.66 121.474 107.66 121.59C107.66 121.705 107.597 121.8 107.52 121.8C107.443 121.8 107.38 121.989 107.38 122.22C107.38 122.451 107.317 122.64 107.24 122.64C107.163 122.64 107.1 122.955 107.1 123.34C107.1 123.725 107.037 124.04 106.96 124.04C106.883 124.04 106.82 124.26 106.82 124.53C106.82 124.799 106.883 125.02 106.96 125.02C107.037 125.02 107.1 125.335 107.1 125.72C107.1 126.105 107.163 126.42 107.24 126.42C107.317 126.42 107.38 126.609 107.38 126.84C107.38 127.071 107.436 127.26 107.504 127.26C107.573 127.26 107.731 127.476 107.857 127.741C108.128 128.313 109.278 129.5 109.562 129.5C109.671 129.5 109.76 129.563 109.76 129.64C109.76 129.717 109.856 129.78 109.972 129.78C110.089 129.78 110.293 129.836 110.427 129.906C111.412 130.418 114.94 130.417 114.94 129.904C114.94 129.836 115.066 129.78 115.22 129.78C115.374 129.78 115.5 129.717 115.5 129.64C115.5 129.563 115.586 129.5 115.691 129.5C115.963 129.5 117.46 128.029 117.46 127.762C117.46 127.64 117.523 127.54 117.6 127.54C117.677 127.54 117.74 127.414 117.74 127.26C117.74 127.106 117.803 126.98 117.88 126.98C117.957 126.98 118.02 126.858 118.02 126.708C118.02 126.559 118.083 126.397 118.16 126.35C118.242 126.3 118.3 125.534 118.3 124.53C118.3 123.525 118.242 122.76 118.16 122.71C118.083 122.662 118.02 122.501 118.02 122.351C118.02 122.202 117.957 122.08 117.88 122.08C117.803 122.08 117.74 121.954 117.74 121.8C117.74 121.646 117.677 121.52 117.6 121.52C117.523 121.52 117.46 121.429 117.46 121.317C117.46 121.024 116.069 119.7 115.761 119.7C115.618 119.7 115.5 119.637 115.5 119.56C115.5 119.483 115.374 119.42 115.22 119.42C115.066 119.42 114.94 119.357 114.94 119.28C114.94 119.203 114.751 119.14 114.52 119.14C114.289 119.14 114.1 119.077 114.1 119C114.1 118.915 113.517 118.86 112.63 118.86C111.744 118.86 111.16 118.915 111.16 119Z" fill="#007DC6"/>
<path fill-rule="evenodd" clip-rule="evenodd" d="M106.26 6.85973C106.26 6.93673 106.165 6.99973 106.049 6.99973C105.589 6.99973 104.58 7.80473 104.58 8.17153C104.58 8.28423 104.511 8.39938 104.426 8.42773C104.33 8.45993 104.272 8.94468 104.272 9.72973C104.272 10.5148 104.33 10.9995 104.426 11.0317C104.511 11.0601 104.58 11.1567 104.58 11.2463C104.581 11.6257 105.59 12.4597 106.049 12.4597C106.165 12.4597 106.26 12.5227 106.26 12.5997C106.26 12.6788 106.657 12.7397 107.17 12.7397C107.684 12.7397 108.08 12.6788 108.08 12.5997C108.08 12.5227 108.206 12.4597 108.36 12.4597C108.514 12.4597 108.64 12.3967 108.64 12.3197C108.64 12.2427 108.743 12.1797 108.869 12.1797C109.125 12.1797 109.76 11.506 109.76 11.2347C109.76 11.1385 109.823 11.0597 109.9 11.0597C109.984 11.0597 110.04 10.5232 110.04 9.72973C110.04 8.93628 109.984 8.39973 109.9 8.39973C109.823 8.39973 109.76 8.30243 109.76 8.18343C109.76 7.90343 109.137 7.27973 108.857 7.27973C108.738 7.27973 108.64 7.21673 108.64 7.13973C108.64 7.06273 108.514 6.99973 108.36 6.99973C108.206 6.99973 108.08 6.93673 108.08 6.85973C108.08 6.78063 107.684 6.71973 107.17 6.71973C106.657 6.71973 106.26 6.78063 106.26 6.85973ZM125.44 31.4997C125.44 31.5767 125.283 31.6397 125.09 31.6397C124.898 31.6397 124.74 31.7027 124.74 31.7797C124.74 31.8567 124.675 31.9197 124.594 31.9197C124.172 31.9197 123.48 32.9974 123.48 33.6561C123.48 33.9203 123.402 34.1653 123.305 34.2007C123.165 34.2518 123.165 34.3018 123.305 34.4502C123.402 34.5524 123.48 34.8751 123.48 35.1677C123.48 35.4603 123.543 35.6997 123.62 35.6997C123.697 35.6997 123.76 35.7785 123.76 35.8747C123.761 36.1407 124.339 36.728 124.81 36.9419C125.041 37.0465 125.34 37.1879 125.474 37.2562C125.963 37.505 127.82 37.2436 127.82 36.9258C127.82 36.8673 127.904 36.8197 128.007 36.8197C128.202 36.8197 128.745 36.2489 129.045 35.7274C129.257 35.3602 129.287 33.0397 129.08 33.0397C129.003 33.0397 128.94 32.961 128.94 32.8647C128.94 32.5935 128.305 31.9197 128.049 31.9197C127.923 31.9197 127.82 31.8567 127.82 31.7797C127.82 31.7027 127.694 31.6397 127.54 31.6397C127.386 31.6397 127.26 31.5767 127.26 31.4997C127.26 31.4206 126.864 31.3597 126.35 31.3597C125.837 31.3597 125.44 31.4206 125.44 31.4997ZM10.5704 34.1597C10.5228 34.2367 10.3614 34.2997 10.212 34.2997C10.0625 34.2997 9.94039 34.3627 9.94039 34.4397C9.94039 34.5167 9.85674 34.5797 9.75489 34.5797C9.32964 34.5797 8.68039 35.636 8.68039 36.328C8.68039 36.5985 8.61739 36.8197 8.54039 36.8197C8.46339 36.8197 8.40039 36.9142 8.40039 37.0297C8.40039 37.1452 8.46339 37.2397 8.54039 37.2397C8.61739 37.2397 8.68039 37.4504 8.68039 37.7084C8.68039 38.576 9.59669 39.7597 10.2687 39.7597C10.3961 39.7597 10.5004 39.8227 10.5004 39.8997C10.5004 39.9799 10.9204 40.0397 11.4804 40.0397C12.0404 40.0397 12.4604 39.9799 12.4604 39.8997C12.4604 39.8227 12.5864 39.7597 12.7404 39.7597C12.8944 39.7597 13.0204 39.6967 13.0204 39.6197C13.0204 39.5427 13.104 39.4797 13.2059 39.4797C14.1092 39.4797 14.8019 36.8432 14.203 35.685C13.9045 35.1079 13.4278 34.5797 13.2052 34.5797C13.1037 34.5797 13.0204 34.5167 13.0204 34.4397C13.0204 34.3627 12.8982 34.2997 12.7488 34.2997C12.5993 34.2997 12.438 34.2367 12.3904 34.1597C12.3428 34.0827 11.9333 34.0197 11.4804 34.0197C11.0275 34.0197 10.618 34.0827 10.5704 34.1597ZM84.9454 55.4009C85.1956 55.432 85.6051 55.432 85.8554 55.4009C86.1056 55.3701 85.9009 55.3445 85.4004 55.3445C84.8999 55.3445 84.6951 55.3701 84.9454 55.4009ZM83.3354 55.6616C82.7068 55.9364 82.7617 56.0428 83.4054 55.7971C83.6941 55.6868 84.0564 55.5685 84.2104 55.5342C84.4288 55.4859 84.4134 55.4712 84.1404 55.4674C83.9479 55.4646 83.5856 55.5521 83.3354 55.6616ZM88.0604 56.0981C88.9973 56.7694 89.8107 57.6713 90.1807 58.4497C90.4005 58.9117 90.5804 59.2089 90.5804 59.1102C90.5807 58.4021 89.1475 56.5933 88.1941 56.0988C87.7307 55.858 87.7251 55.858 88.0604 56.0981ZM72.2838 66.1081L62.1691 76.2164L59.0765 73.1431C57.3755 71.4526 55.9689 70.0697 55.9503 70.0697C55.9314 70.0697 57.3227 71.4858 59.0415 73.2162L62.1663 76.3631L72.1385 66.4101C77.623 60.9361 82.2661 56.3543 82.4565 56.2286C82.6574 56.0956 82.718 55.9997 82.6007 55.9997C82.4894 55.9997 77.847 60.5483 72.2838 66.1081ZM90.6875 60.3814C90.7561 61.8962 90.8201 62.0859 90.839 60.8297C90.8485 60.2137 90.8079 59.6338 90.7491 59.5414C90.6903 59.4486 90.6626 59.8266 90.6875 60.3814ZM90.4974 62.3883C90.4446 62.6091 90.3123 62.9787 90.2041 63.2097C90.0228 63.5954 90.0246 63.6073 90.2248 63.356C90.454 63.069 90.755 62.1478 90.6535 62.046C90.6206 62.0134 90.5506 62.1674 90.4974 62.3883ZM75.9504 77.8397C68.4047 85.3857 62.1961 91.5597 62.1534 91.5597C62.1107 91.5597 61.8002 91.292 61.4635 90.9647C61.1272 90.6375 60.9413 90.5024 61.0509 90.6648C61.1608 90.8272 61.4607 91.1366 61.7176 91.3525L62.1849 91.7452L75.9976 77.9325C83.5944 70.3354 89.7785 64.1197 89.74 64.1197C89.7015 64.1197 83.496 70.2937 75.9504 77.8397ZM51.1004 69.018C50.9572 69.109 51.0689 69.1244 51.4504 69.0659C52.1423 68.9599 52.2603 68.879 51.7188 68.8818C51.4941 68.8829 51.2159 68.9441 51.1004 69.018ZM52.9319 68.9298C52.9641 68.9574 53.2424 69.0187 53.5504 69.0659C53.9319 69.1244 54.0435 69.109 53.9004 69.018C53.7089 68.8958 52.7961 68.8129 52.9319 68.9298ZM49.7676 69.5654C49.0326 69.9871 48.0253 70.9811 47.7519 71.5544C47.5955 71.8834 47.5972 71.8831 47.8412 71.5397C48.4586 70.6724 49.2349 69.9742 50.0171 69.5836C50.4837 69.3505 50.7763 69.1604 50.6678 69.1611C50.5593 69.1618 50.154 69.3438 49.7676 69.5654ZM54.3204 69.2598C54.4359 69.3029 54.7036 69.4257 54.9154 69.5325C55.1271 69.6396 55.3004 69.6956 55.3004 69.6571C55.3004 69.5472 54.4947 69.1583 54.2924 69.1709C54.1702 69.1783 54.1793 69.2073 54.3204 69.2598ZM47.1104 73.0797C47.0572 73.3216 47.0428 73.5491 47.0785 73.5844C47.1142 73.6201 47.1835 73.4483 47.2329 73.2022C47.3494 72.6188 47.2364 72.5057 47.1104 73.0797ZM47.0642 75.2497C47.0621 75.4037 47.1142 75.6557 47.1804 75.8097C47.3337 76.1664 47.3337 75.7985 47.1804 75.3197C47.0904 75.0383 47.0673 75.0247 47.0642 75.2497ZM47.837 77.2489C47.9738 77.5016 48.3046 77.9111 48.5723 78.1589L49.0585 78.6097L48.5744 78.0483C48.3081 77.7396 47.9773 77.3301 47.8394 77.1383C47.5972 76.802 47.5969 76.8058 47.837 77.2489ZM50.8249 80.4189C51.4206 81.1248 54.6196 84.307 54.6763 84.2503C54.7061 84.2206 53.774 83.2542 52.605 82.1031C51.436 80.9516 50.6349 80.1938 50.8249 80.4189ZM55.1345 84.8089C55.341 85.0231 55.537 85.1806 55.5692 85.1586C55.65 85.104 54.9976 84.4197 54.865 84.4197C54.8062 84.4197 54.9276 84.5951 55.1345 84.8089ZM56.7182 86.3395C57.0269 86.7245 59.9743 89.6501 60.2756 89.8706C60.4268 89.9812 59.6691 89.178 58.5921 88.0856C56.7742 86.2418 56.244 85.748 56.7182 86.3395ZM10.5704 102.511C9.78534 102.789 8.96039 103.45 8.96039 103.8C8.96039 103.921 8.89739 104.02 8.82039 104.02C8.74339 104.02 8.68039 104.266 8.68039 104.568C8.68039 104.88 8.60479 105.144 8.50539 105.18C8.36539 105.23 8.36539 105.302 8.50539 105.539C8.60164 105.703 8.68039 106.057 8.68039 106.328C8.68039 106.599 8.74339 106.82 8.82039 106.82C8.89739 106.82 8.96039 106.908 8.96039 107.015C8.96039 107.292 9.89594 108.08 10.2253 108.08C10.3765 108.08 10.5004 108.143 10.5004 108.22C10.5004 108.3 10.9204 108.36 11.4804 108.36C12.0194 108.36 12.4604 108.305 12.4604 108.237C12.4604 108.17 12.6336 108.076 12.8454 108.029C14.1957 107.728 14.937 105.323 14.118 103.9C13.4267 102.699 11.8174 102.068 10.5704 102.511ZM125.308 102.54C124.706 102.767 123.76 103.547 123.76 103.818C123.76 103.929 123.697 104.02 123.62 104.02C123.543 104.02 123.48 104.259 123.48 104.552C123.48 104.844 123.405 105.159 123.312 105.252C123.182 105.382 123.182 105.457 123.312 105.588C123.405 105.68 123.48 105.995 123.48 106.288C123.48 106.58 123.543 106.82 123.62 106.82C123.697 106.82 123.76 106.892 123.76 106.981C123.76 107.285 124.717 108.08 125.083 108.08C125.28 108.08 125.44 108.143 125.44 108.22C125.44 108.299 125.837 108.36 126.35 108.36C126.851 108.36 127.26 108.305 127.26 108.237C127.26 108.17 127.434 108.08 127.647 108.037C129.275 107.712 129.862 104.722 128.564 103.365C127.781 102.546 126.293 102.169 125.308 102.54ZM26.9504 124.46C26.9028 124.537 26.754 124.6 26.6196 124.6C26.0698 124.6 25.0604 125.85 25.0604 126.53C25.0604 126.747 24.9848 126.999 24.8924 127.092C24.7618 127.222 24.7618 127.297 24.8924 127.428C24.9848 127.52 25.0604 127.835 25.0604 128.128C25.0604 128.42 25.1234 128.66 25.2004 128.66C25.2774 128.66 25.3404 128.759 25.3404 128.88C25.3404 129.227 26.3687 130.06 26.7971 130.06C26.9199 130.06 27.0204 130.123 27.0204 130.2C27.0204 130.277 27.391 130.34 27.852 130.34C28.3094 130.34 28.7228 130.277 28.7704 130.2C28.818 130.123 28.9793 130.06 29.1288 130.06C29.2782 130.06 29.4004 129.997 29.4004 129.92C29.4004 129.843 29.4942 129.78 29.609 129.78C29.7238 129.78 30.0374 129.48 30.3055 129.115C31.2431 127.837 30.7643 124.88 29.6205 124.88C29.4994 124.88 29.4004 124.817 29.4004 124.74C29.4004 124.663 29.2744 124.6 29.1204 124.6C28.9664 124.6 28.8404 124.537 28.8404 124.46C28.8404 124.381 28.4466 124.32 27.9388 124.32C27.4428 124.32 26.998 124.383 26.9504 124.46Z" fill="#94D4FC"/>
<path fill-rule="evenodd" clip-rule="evenodd" d="M64.3302 29.1407C63.7142 29.2104 62.8637 29.3318 62.4402 29.4106C60.692 29.7354 59.0162 30.0906 58.5202 30.2411C58.3277 30.2996 57.8867 30.427 57.5402 30.5236C45.922 33.7719 35.4034 43.1561 31.0645 54.1451C30.9962 54.3183 30.8856 54.6018 30.8191 54.7751C30.7523 54.9483 30.6305 55.2476 30.5482 55.4401C27.6387 62.2493 27.1648 72.9306 29.4205 80.8501C29.7383 81.9655 30.3932 83.9357 30.5251 84.1733C30.5993 84.307 30.6602 84.4782 30.6602 84.5541C30.6602 84.6297 30.8177 85.0403 31.0102 85.4659C31.2027 85.8918 31.5177 86.5883 31.7102 87.0143C31.9027 87.4399 32.0602 87.8102 32.0602 87.8368C32.0602 87.8634 32.4571 88.6019 32.9422 89.4776C36.346 95.6222 40.6912 100.288 46.8575 104.419C47.3346 104.739 47.757 105 47.7962 105C47.8358 105 48.2015 105.198 48.6089 105.44C50.6809 106.67 54.231 108.215 56.7002 108.962C57.7922 109.292 58.2406 109.414 59.6402 109.765C61.5222 110.236 65.6284 110.836 66.0001 110.693C66.1954 110.618 66.2202 109.961 66.2202 104.892V99.175L66.6329 98.524C67.2797 97.5042 67.7777 97.3221 70.3838 97.1517C82.8218 96.3386 92.9833 87.7104 95.6003 75.7401C95.9629 74.0821 96.05 73.4133 96.1704 71.3794C96.3601 68.1675 97.0227 67.1931 99.0107 67.2032C101.466 67.2158 102.188 69.6378 101.304 74.9001C98.8805 89.3327 87.8215 100.262 73.5702 102.308L71.7502 102.57L71.7131 106.655L71.676 110.74H72.117C72.5279 110.74 72.9371 110.684 75.3202 110.302C76.7916 110.066 78.8412 109.634 79.8002 109.357C80.0697 109.28 80.5107 109.155 80.7802 109.08C84.9848 107.91 90.2456 105.182 94.0102 102.22C97.6821 99.3304 101.905 94.7066 103.461 91.873C103.576 91.6623 103.828 91.2381 104.02 90.9301C107.613 85.1747 109.9 76.9581 109.9 69.8104C109.9 67.5781 109.384 63.0295 108.921 61.1801C108.853 60.9106 108.725 60.3751 108.635 59.9901C106.283 49.8849 99.0947 40.171 89.9502 34.7421C88.6395 33.9637 85.5227 32.3401 85.3397 32.3401C85.2942 32.3401 84.9585 32.2078 84.5938 32.0461C84.2288 31.8844 83.8042 31.6978 83.6502 31.6313C82.4511 31.1144 78.5773 30.0056 76.8602 29.6874C76.3597 29.5947 75.6667 29.4645 75.3202 29.398C74.9737 29.3315 74.2807 29.2401 73.7802 29.1946C73.2797 29.1495 72.6025 29.0756 72.2752 29.0305L71.6802 28.9482V34.362C71.6802 42.1891 71.6207 42.3102 67.6482 42.5678C59.3949 43.1026 52.1117 46.8371 47.4592 52.9201C47.1942 53.2666 46.9401 53.5816 46.8946 53.6201C46.5457 53.9148 44.837 56.7841 44.1849 58.1701C42.5963 61.5465 41.5802 65.7535 41.5802 68.9557C41.5802 71.3406 40.6412 72.5201 38.7421 72.5201C36.5154 72.5201 35.7279 70.6206 36.2634 66.5407C36.4856 64.8463 36.6932 63.5363 36.8241 63.0001C36.8899 62.7306 37.0194 62.1951 37.1114 61.8101C40.2569 48.6893 52.0253 38.596 65.8002 37.2054L66.1502 37.1701V33.1101V29.0501L65.8002 29.0319C65.6077 29.0221 64.9462 29.0711 64.3302 29.1407ZM86.4502 55.3001C86.4978 55.3771 86.6868 55.4401 86.8699 55.4401C87.8219 55.4401 89.6958 56.9528 90.2925 58.203C90.4675 58.5698 90.667 58.9796 90.7356 59.1133C90.8998 59.4332 90.8966 62.2346 90.7321 62.5468C90.6614 62.6805 90.5074 63.0106 90.3895 63.2801C90.2715 63.5496 90.03 63.9517 89.8526 64.174C89.3066 64.8575 62.2897 91.8401 62.1511 91.8401C61.9863 91.8401 48.5228 78.3822 47.9338 77.6287C45.1593 74.079 47.8785 68.8409 52.5002 68.8307C54.7868 68.8258 54.9544 68.9308 58.9077 72.848L62.1648 76.0754L71.9977 66.2463C81.391 56.8562 82.5873 55.7201 83.0829 55.7201C83.2022 55.7201 83.3002 55.6571 83.3002 55.5801C83.3002 55.5031 83.4735 55.439 83.6852 55.438C83.897 55.4369 84.1647 55.3746 84.2802 55.3001C84.5578 55.1209 86.3393 55.1209 86.4502 55.3001Z" fill="#FBFBFB"/>
<path fill-rule="evenodd" clip-rule="evenodd" d="M66.3603 28.9548C66.1808 29.0363 66.1503 29.6366 66.1503 33.11V37.17L65.8003 37.2053C52.0254 38.5959 40.257 48.6892 37.1115 61.81C37.0195 62.195 36.89 62.7305 36.8242 63C35.701 67.6 35.9135 71.1998 37.3618 72.1182C39.494 73.4706 41.5803 71.9064 41.5803 68.9556C41.5803 65.7534 42.5964 61.5464 44.185 58.17C44.8371 56.784 46.5458 53.9147 46.8947 53.62C46.9402 53.5815 47.1943 53.2665 47.4593 52.92C52.1118 46.837 59.395 43.1025 67.6483 42.5677C70.3311 42.3937 71.1354 41.9405 71.5281 40.3812C71.7958 39.3179 71.7335 29.0304 71.4588 28.925C71.1574 28.8092 66.6228 28.8358 66.3603 28.9548ZM72.5553 29.0766C72.6901 29.1116 72.9106 29.1116 73.0453 29.0766C73.1801 29.0412 73.0698 29.0125 72.8003 29.0125C72.5308 29.0125 72.4206 29.0412 72.5553 29.0766ZM97.4403 40.53C97.9363 41.0305 98.3738 41.44 98.4123 41.44C98.4508 41.44 98.0763 41.0305 97.5803 40.53C97.0844 40.0295 96.6469 39.62 96.6084 39.62C96.5699 39.62 96.9444 40.0295 97.4403 40.53ZM84.3286 55.2671C84.2394 55.3238 84.6902 55.37 85.33 55.37C85.9698 55.37 86.464 55.3227 86.4286 55.265C86.3453 55.1299 84.5418 55.1316 84.3286 55.2671ZM88.2003 56.057C88.2003 56.085 88.3578 56.211 88.5503 56.337C88.7428 56.4634 88.9003 56.512 88.9003 56.4455C88.9003 56.3794 88.7428 56.253 88.5503 56.1655C88.3578 56.0777 88.2003 56.029 88.2003 56.057ZM72.0695 66.1699L62.181 76.0595L61.2958 75.2391L60.4103 74.4184L61.1103 75.1597C61.4953 75.5674 61.909 75.9552 62.0294 76.0217C62.2009 76.1159 64.4203 73.9707 72.1791 66.2112C77.6408 60.7491 82.0753 56.28 82.0337 56.28C81.992 56.28 77.5078 60.7302 72.0695 66.1699ZM90.7364 61.9734C90.7277 62.0634 90.6797 62.2524 90.6297 62.3934C90.5593 62.5926 90.5782 62.6139 90.713 62.4897C90.8085 62.4018 90.8565 62.2128 90.8197 62.0697C90.783 61.9269 90.7455 61.8835 90.7364 61.9734ZM89.9661 63.7658C89.8383 63.9604 89.783 64.12 89.8436 64.12C89.9797 64.12 90.342 63.5551 90.259 63.4721C90.2254 63.4385 90.0938 63.5708 89.9661 63.7658ZM75.9206 78.0094L62.1712 91.7591L61.8156 91.4252C61.6203 91.2415 61.4603 91.1421 61.4603 91.204C61.4603 91.3409 62.0193 91.84 62.1722 91.84C62.2709 91.84 89.1306 65.0429 89.5825 64.4934C90.1743 63.7738 88.4642 65.4661 75.9206 78.0094ZM109.653 66.22C109.653 66.4895 109.682 66.5997 109.717 66.465C109.752 66.3302 109.752 66.1097 109.717 65.975C109.682 65.8402 109.653 65.9505 109.653 66.22ZM97.8645 67.4215C96.6059 67.9675 96.3347 68.6017 96.1705 71.3793C96.0501 73.4132 95.963 74.082 95.6004 75.74C92.982 87.717 82.8229 96.3385 70.3682 97.1526C67.7743 97.3224 67.257 97.5163 66.6134 98.56L66.2249 99.19L66.2161 105L66.2074 110.81L67.5437 110.922C68.279 110.983 69.4946 110.983 70.2453 110.922L71.6103 110.81L71.6803 106.69L71.7503 102.569L73.5703 102.308C87.234 100.346 98.1046 90.1054 101.029 76.44C101.531 74.0936 101.805 69.874 101.513 68.9881C101.028 67.5195 99.3251 66.7884 97.8645 67.4215ZM27.9072 68.32C27.9072 68.8975 27.9321 69.1337 27.9622 68.845C27.9926 68.5562 27.9926 68.0837 27.9622 67.795C27.9321 67.5062 27.9072 67.7425 27.9072 68.32ZM52.1153 68.8404C52.3271 68.8723 52.6736 68.8723 52.8853 68.8404C53.0971 68.8082 52.9238 68.782 52.5003 68.782C52.0768 68.782 51.9036 68.8082 52.1153 68.8404ZM50.6803 69.02C50.4938 69.1407 50.4938 69.1558 50.6803 69.1558C50.7958 69.1558 50.9848 69.0945 51.1003 69.02C51.2869 68.8992 51.2869 68.8842 51.1003 68.8842C50.9848 68.8842 50.7958 68.9454 50.6803 69.02ZM53.9003 69.02C54.0158 69.0945 54.2048 69.1558 54.3203 69.1558C54.5069 69.1558 54.5069 69.1407 54.3203 69.02C54.2048 68.9454 54.0158 68.8842 53.9003 68.8842C53.7138 68.8842 53.7138 68.8992 53.9003 69.02ZM49.7003 69.4536C49.1487 69.783 47.7403 71.1137 47.7403 71.3055C47.7403 71.3741 48.0336 71.1042 48.3917 70.7056C48.7501 70.3073 49.3643 69.797 49.7567 69.5719C50.1494 69.3469 50.4073 69.1621 50.3303 69.1617C50.2533 69.1614 49.9698 69.2926 49.7003 69.4536ZM55.238 69.5919C55.6188 69.8295 56.9383 71.0108 58.1703 72.2169L60.4103 74.41L58.1703 72.1301C56.9383 70.876 55.6671 69.6948 55.3455 69.5051C54.5034 69.0084 54.4159 69.0791 55.238 69.5919ZM27.9072 71.4C27.9072 71.9775 27.9321 72.2137 27.9622 71.925C27.9926 71.6362 27.9926 71.1637 27.9622 70.875C27.9321 70.5862 27.9072 70.8225 27.9072 71.4ZM47.2815 72.205C46.5689 73.7695 46.8688 76.2639 47.9339 77.6296C48.4568 78.2999 49.5603 79.4269 49.5603 79.2904C49.5603 79.2372 49.1806 78.7983 48.7161 78.3146C47.0932 76.6244 46.5724 74.3508 47.3613 72.3982C47.7708 71.3842 47.7162 71.2516 47.2815 72.205ZM109.653 73.5C109.653 73.7695 109.682 73.8797 109.717 73.745C109.752 73.6102 109.752 73.3897 109.717 73.255C109.682 73.1202 109.653 73.2305 109.653 73.5ZM50.5977 80.43C50.7902 80.6225 50.9929 80.78 51.0485 80.78C51.1038 80.78 51.0013 80.6225 50.8203 80.43C50.6394 80.2375 50.4367 80.08 50.3695 80.08C50.3023 80.08 50.4052 80.2375 50.5977 80.43ZM54.8803 84.6184C54.8803 84.7658 55.3021 85.1648 55.3777 85.0892C55.413 85.0538 55.3157 84.9107 55.161 84.7707C55.0067 84.631 54.8803 84.5624 54.8803 84.6184ZM55.7777 85.61C55.9702 85.8025 56.1729 85.96 56.2285 85.96C56.2838 85.96 56.1813 85.8025 56.0003 85.61C55.8194 85.4175 55.6167 85.26 55.5495 85.26C55.4823 85.26 55.5852 85.4175 55.7777 85.61ZM60.6203 90.3584C60.6203 90.5058 61.0421 90.9048 61.1177 90.8292C61.153 90.7938 61.0557 90.6507 60.901 90.5107C60.7467 90.371 60.6203 90.3024 60.6203 90.3584ZM98.7616 97.895L98.3503 98.35L98.8053 97.9387C99.0556 97.7126 99.2603 97.5079 99.2603 97.4837C99.2603 97.3756 99.1448 97.4708 98.7616 97.895ZM39.7603 98.77C40.0214 99.0395 40.2668 99.26 40.3053 99.26C40.3438 99.26 40.1614 99.0395 39.9003 98.77C39.6392 98.5005 39.3939 98.28 39.3554 98.28C39.3169 98.28 39.4992 98.5005 39.7603 98.77Z" fill="#D3DCE4"/>
</svg>
