<?xml version="1.0" encoding="utf-8"?>
<!-- Generator: Adobe Illustrator 25.0.0, SVG Export Plug-In . SVG Version: 6.00 Build 0)  -->
<svg version="1.1" id="Layer_1" xmlns="http://www.w3.org/2000/svg" xmlns:xlink="http://www.w3.org/1999/xlink" x="0px" y="0px"
	 viewBox="0 0 70 80" enable-background="new 0 0 70 80" xml:space="preserve">
<linearGradient id="SVGID_1_" gradientUnits="userSpaceOnUse" x1="-7.1715" y1="11.2549" x2="71.8367" y2="78.6968" gradientTransform="matrix(1 0 0 -1 0 82)">
	<stop  offset="0" style="stop-color:#28C76F"/>
	<stop  offset="1" style="stop-color:#48DA89"/>
</linearGradient>
<path fill="url(#SVGID_1_)" d="M35.12,79.87c-0.13,0-0.13,0.13-0.26,0.13c-0.13,0-0.26-0.13-0.26-0.13
	C12.57,70.43-0.94,60.59,0.89,13.38c0,0,22.82,0.39,33.7-12.98c0.13-0.13,0.13-0.26,0.26-0.39c0.13,0.13,0.13,0.26,0.26,0.39
	c11.02,13.25,33.7,12.98,33.7,12.98C70.8,60.59,57.16,70.43,35.12,79.87z"/>
<path fill="#FFFFFF" d="M28.31,55.08L15.19,42.23c-0.79-0.79-0.79-2.1,0-2.89l4.33-4.46c0.79-0.79,2.1-0.79,2.89,0l5.9,5.77
	c0.79,0.79,2.1,0.79,2.89,0l16.13-15.74c0.79-0.79,2.1-0.79,2.89,0l4.33,4.46c0.79,0.79,0.79,2.1,0,2.89L31.19,54.95
	C30.4,55.87,29.09,55.87,28.31,55.08z"/>
</svg>
